G75*
%MOIN*%
%OFA0B0*%
%FSLAX24Y24*%
%IPPOS*%
%LPD*%
%AMOC8*
5,1,8,0,0,1.08239X$1,22.5*
%
%ADD10C,0.0160*%
%ADD11C,0.0000*%
%ADD12R,0.0394X0.1083*%
%ADD13R,0.0433X0.0787*%
%ADD14C,0.0800*%
%ADD15C,0.0600*%
%ADD16R,0.0630X0.0460*%
%ADD17R,0.0591X0.0512*%
%ADD18R,0.0800X0.0800*%
%ADD19R,0.0787X0.0315*%
%ADD20R,0.1000X0.0500*%
%ADD21C,0.0356*%
%ADD22C,0.0320*%
%ADD23C,0.0240*%
D10*
X000180Y001125D02*
X000680Y000625D01*
X017680Y000625D01*
X018180Y001125D01*
X018180Y019625D01*
X017680Y020125D01*
X016680Y020125D01*
X016680Y026125D01*
X016180Y026625D01*
X014680Y026625D01*
X014680Y030625D01*
X014180Y031125D01*
X004180Y031125D01*
X003680Y030625D01*
X003680Y021125D01*
X000680Y021125D01*
X000180Y020625D01*
X000180Y001125D01*
X000460Y001241D02*
X000460Y003746D01*
X000590Y003616D01*
X000811Y003525D01*
X001049Y003525D01*
X001270Y003616D01*
X001419Y003765D01*
X001531Y003765D01*
X002726Y002570D01*
X002858Y002515D01*
X010502Y002515D01*
X010634Y002570D01*
X010735Y002671D01*
X014735Y006671D01*
X014790Y006803D01*
X014790Y010726D01*
X015829Y011765D01*
X016691Y011765D01*
X016840Y011616D01*
X017061Y011525D01*
X017299Y011525D01*
X017520Y011616D01*
X017689Y011785D01*
X017780Y012006D01*
X017780Y012244D01*
X017689Y012465D01*
X017608Y012546D01*
X017649Y012557D01*
X017691Y012581D01*
X017724Y012614D01*
X017748Y012656D01*
X017760Y012701D01*
X017760Y013045D01*
X017260Y013045D01*
X017260Y013205D01*
X017760Y013205D01*
X017760Y013549D01*
X017748Y013594D01*
X017724Y013636D01*
X017691Y013669D01*
X017649Y013693D01*
X017608Y013704D01*
X017689Y013785D01*
X017780Y014006D01*
X017780Y014244D01*
X017689Y014465D01*
X017540Y014614D01*
X017540Y014636D01*
X017689Y014785D01*
X017780Y015006D01*
X017780Y015216D01*
X017900Y015336D01*
X017900Y001241D01*
X017564Y000905D01*
X017520Y000905D01*
X017558Y000933D01*
X017622Y000997D01*
X017676Y001071D01*
X017718Y001152D01*
X017746Y001239D01*
X017755Y001295D01*
X017260Y001295D01*
X017260Y001455D01*
X017100Y001455D01*
X017100Y001950D01*
X017044Y001941D01*
X016957Y001913D01*
X016876Y001871D01*
X016802Y001817D01*
X016738Y001753D01*
X016684Y001679D01*
X016642Y001598D01*
X016614Y001511D01*
X016605Y001455D01*
X017100Y001455D01*
X017100Y001295D01*
X016605Y001295D01*
X016614Y001239D01*
X016642Y001152D01*
X016684Y001071D01*
X016738Y000997D01*
X016802Y000933D01*
X016840Y000905D01*
X012059Y000905D01*
X012189Y001035D01*
X012280Y001256D01*
X012280Y001494D01*
X012189Y001715D01*
X012040Y001864D01*
X012040Y002256D01*
X012058Y002300D01*
X012058Y002450D01*
X012001Y002589D01*
X011894Y002696D01*
X011755Y002753D01*
X011605Y002753D01*
X011466Y002696D01*
X011359Y002589D01*
X011302Y002450D01*
X011302Y002300D01*
X011320Y002256D01*
X011320Y001864D01*
X011171Y001715D01*
X011080Y001494D01*
X011080Y001256D01*
X011171Y001035D01*
X011301Y000905D01*
X000796Y000905D01*
X000460Y001241D01*
X000460Y001259D02*
X011080Y001259D01*
X011080Y001418D02*
X000460Y001418D01*
X000460Y001576D02*
X011114Y001576D01*
X011191Y001735D02*
X000460Y001735D01*
X000460Y001893D02*
X011320Y001893D01*
X011320Y002052D02*
X000460Y002052D01*
X000460Y002210D02*
X011320Y002210D01*
X011302Y002369D02*
X000460Y002369D01*
X000460Y002527D02*
X002829Y002527D01*
X002610Y002686D02*
X000460Y002686D01*
X000460Y002844D02*
X002452Y002844D01*
X002293Y003003D02*
X000460Y003003D01*
X000460Y003161D02*
X002135Y003161D01*
X001976Y003320D02*
X000460Y003320D01*
X000460Y003478D02*
X001818Y003478D01*
X001659Y003637D02*
X001290Y003637D01*
X001419Y004485D02*
X001279Y004625D01*
X001439Y004785D01*
X001530Y005006D01*
X001530Y005244D01*
X001505Y005304D01*
X003339Y007138D01*
X003417Y007216D01*
X003460Y007319D01*
X003460Y011625D01*
X008034Y011625D01*
X007943Y011534D01*
X007900Y011431D01*
X007900Y007819D01*
X007943Y007716D01*
X008021Y007638D01*
X009355Y006304D01*
X009330Y006244D01*
X009330Y006006D01*
X009421Y005785D01*
X009590Y005616D01*
X009609Y005609D01*
X009552Y005567D01*
X009488Y005503D01*
X009434Y005429D01*
X009392Y005348D01*
X009364Y005261D01*
X009355Y005205D01*
X009850Y005205D01*
X009850Y005045D01*
X009355Y005045D01*
X009364Y004989D01*
X009392Y004902D01*
X009434Y004821D01*
X009488Y004747D01*
X009552Y004683D01*
X009609Y004641D01*
X009590Y004634D01*
X009441Y004485D01*
X008799Y004485D01*
X008755Y004503D01*
X008605Y004503D01*
X008466Y004446D01*
X008359Y004339D01*
X008302Y004200D01*
X008302Y004050D01*
X008359Y003911D01*
X008466Y003804D01*
X008605Y003747D01*
X008755Y003747D01*
X008799Y003765D01*
X009441Y003765D01*
X009590Y003616D01*
X009811Y003525D01*
X010049Y003525D01*
X010270Y003616D01*
X010439Y003785D01*
X010530Y004006D01*
X010530Y004244D01*
X010439Y004465D01*
X010270Y004634D01*
X010251Y004641D01*
X010308Y004683D01*
X010372Y004747D01*
X010426Y004821D01*
X010468Y004902D01*
X010496Y004989D01*
X010505Y005045D01*
X010010Y005045D01*
X010010Y005205D01*
X010505Y005205D01*
X010496Y005261D01*
X010468Y005348D01*
X010426Y005429D01*
X010372Y005503D01*
X010308Y005567D01*
X010251Y005609D01*
X010270Y005616D01*
X010439Y005785D01*
X010530Y006006D01*
X010530Y006244D01*
X010439Y006465D01*
X010279Y006625D01*
X010439Y006785D01*
X010530Y007006D01*
X010530Y007244D01*
X010439Y007465D01*
X010279Y007625D01*
X010439Y007785D01*
X010530Y008006D01*
X010530Y008244D01*
X010439Y008465D01*
X010279Y008625D01*
X010439Y008785D01*
X010530Y009006D01*
X010530Y009244D01*
X010505Y009304D01*
X010839Y009638D01*
X010917Y009716D01*
X010960Y009819D01*
X010960Y012259D01*
X013546Y014845D01*
X015736Y014845D01*
X015839Y014888D01*
X016839Y015888D01*
X016917Y015966D01*
X016960Y016069D01*
X016960Y016175D01*
X017263Y016175D01*
X017320Y016232D01*
X017320Y015774D01*
X017271Y015725D01*
X017061Y015725D01*
X016840Y015634D01*
X016671Y015465D01*
X016580Y015244D01*
X016580Y015006D01*
X016671Y014785D01*
X016820Y014636D01*
X016820Y014614D01*
X016671Y014465D01*
X016580Y014244D01*
X016580Y014006D01*
X016671Y013785D01*
X016752Y013704D01*
X016711Y013693D01*
X016669Y013669D01*
X016636Y013636D01*
X016612Y013594D01*
X016600Y013549D01*
X016600Y013205D01*
X017100Y013205D01*
X017100Y013525D01*
X017260Y013525D01*
X017260Y013205D01*
X017100Y013205D01*
X017100Y013045D01*
X016600Y013045D01*
X016600Y012701D01*
X016612Y012656D01*
X016636Y012614D01*
X016669Y012581D01*
X016711Y012557D01*
X016752Y012546D01*
X016691Y012485D01*
X015608Y012485D01*
X015476Y012430D01*
X014226Y011180D01*
X014125Y011079D01*
X014070Y010947D01*
X014070Y007024D01*
X010281Y003235D01*
X003079Y003235D01*
X002019Y004295D01*
X002001Y004339D01*
X001894Y004446D01*
X001755Y004503D01*
X001605Y004503D01*
X001561Y004485D01*
X001419Y004485D01*
X001316Y004588D02*
X009544Y004588D01*
X009489Y004746D02*
X001400Y004746D01*
X001488Y004905D02*
X009392Y004905D01*
X009358Y005222D02*
X001530Y005222D01*
X001530Y005063D02*
X009850Y005063D01*
X010010Y005063D02*
X012109Y005063D01*
X012267Y005222D02*
X010502Y005222D01*
X010451Y005380D02*
X012426Y005380D01*
X012584Y005539D02*
X010337Y005539D01*
X010351Y005697D02*
X012743Y005697D01*
X012901Y005856D02*
X010468Y005856D01*
X010530Y006014D02*
X013060Y006014D01*
X013218Y006173D02*
X010530Y006173D01*
X010494Y006331D02*
X013377Y006331D01*
X013535Y006490D02*
X010414Y006490D01*
X010302Y006648D02*
X013694Y006648D01*
X013852Y006807D02*
X010448Y006807D01*
X010513Y006965D02*
X014011Y006965D01*
X014070Y007124D02*
X010530Y007124D01*
X010514Y007282D02*
X014070Y007282D01*
X014070Y007441D02*
X010449Y007441D01*
X010305Y007599D02*
X014070Y007599D01*
X014070Y007758D02*
X010411Y007758D01*
X010493Y007916D02*
X014070Y007916D01*
X014070Y008075D02*
X010530Y008075D01*
X010530Y008233D02*
X014070Y008233D01*
X014070Y008392D02*
X010469Y008392D01*
X010354Y008550D02*
X014070Y008550D01*
X014070Y008709D02*
X010362Y008709D01*
X010473Y008867D02*
X014070Y008867D01*
X014070Y009026D02*
X010530Y009026D01*
X010530Y009184D02*
X014070Y009184D01*
X014070Y009343D02*
X010543Y009343D01*
X010702Y009501D02*
X014070Y009501D01*
X014070Y009660D02*
X010860Y009660D01*
X010959Y009818D02*
X011457Y009818D01*
X011561Y009775D02*
X011799Y009775D01*
X012020Y009866D01*
X012169Y010015D01*
X012191Y010015D01*
X012340Y009866D01*
X012561Y009775D01*
X012799Y009775D01*
X013020Y009866D01*
X013169Y010015D01*
X013561Y010015D01*
X013605Y009997D01*
X013755Y009997D01*
X013894Y010054D01*
X014001Y010161D01*
X014058Y010300D01*
X014058Y010450D01*
X014001Y010589D01*
X013894Y010696D01*
X013755Y010753D01*
X013605Y010753D01*
X013561Y010735D01*
X013169Y010735D01*
X013020Y010884D01*
X012799Y010975D01*
X012561Y010975D01*
X012340Y010884D01*
X012191Y010735D01*
X012169Y010735D01*
X012020Y010884D01*
X011799Y010975D01*
X011561Y010975D01*
X011340Y010884D01*
X011171Y010715D01*
X011080Y010494D01*
X011080Y010256D01*
X011171Y010035D01*
X011340Y009866D01*
X011561Y009775D01*
X011230Y009977D02*
X010960Y009977D01*
X010960Y010135D02*
X011130Y010135D01*
X011080Y010294D02*
X010960Y010294D01*
X010960Y010452D02*
X011080Y010452D01*
X011128Y010611D02*
X010960Y010611D01*
X010960Y010769D02*
X011225Y010769D01*
X011446Y010928D02*
X010960Y010928D01*
X010960Y011086D02*
X014132Y011086D01*
X014226Y011180D02*
X014226Y011180D01*
X014290Y011245D02*
X010960Y011245D01*
X010960Y011403D02*
X014449Y011403D01*
X014607Y011562D02*
X010960Y011562D01*
X010960Y011720D02*
X014766Y011720D01*
X014924Y011879D02*
X010960Y011879D01*
X010960Y012037D02*
X015083Y012037D01*
X015241Y012196D02*
X010960Y012196D01*
X011055Y012354D02*
X015400Y012354D01*
X015784Y011720D02*
X016736Y011720D01*
X016972Y011562D02*
X015626Y011562D01*
X015467Y011403D02*
X017900Y011403D01*
X017900Y011245D02*
X015309Y011245D01*
X015150Y011086D02*
X017900Y011086D01*
X017900Y010928D02*
X017356Y010928D01*
X017316Y010941D02*
X017260Y010950D01*
X017260Y010455D01*
X017100Y010455D01*
X017100Y010950D01*
X017044Y010941D01*
X016957Y010913D01*
X016876Y010871D01*
X016802Y010817D01*
X016738Y010753D01*
X016696Y010696D01*
X016689Y010715D01*
X016520Y010884D01*
X016299Y010975D01*
X016061Y010975D01*
X015840Y010884D01*
X015691Y010735D01*
X015299Y010735D01*
X015255Y010753D01*
X015105Y010753D01*
X014966Y010696D01*
X014859Y010589D01*
X014802Y010450D01*
X014802Y010300D01*
X014859Y010161D01*
X014966Y010054D01*
X015105Y009997D01*
X015255Y009997D01*
X015299Y010015D01*
X015691Y010015D01*
X015840Y009866D01*
X016061Y009775D01*
X016299Y009775D01*
X016520Y009866D01*
X016689Y010035D01*
X016696Y010054D01*
X016738Y009997D01*
X016802Y009933D01*
X016876Y009879D01*
X016957Y009837D01*
X017044Y009809D01*
X017100Y009800D01*
X017100Y010295D01*
X017260Y010295D01*
X017260Y010455D01*
X017755Y010455D01*
X017746Y010511D01*
X017718Y010598D01*
X017676Y010679D01*
X017622Y010753D01*
X017558Y010817D01*
X017484Y010871D01*
X017403Y010913D01*
X017316Y010941D01*
X017260Y010928D02*
X017100Y010928D01*
X017004Y010928D02*
X016414Y010928D01*
X016635Y010769D02*
X016754Y010769D01*
X017100Y010769D02*
X017260Y010769D01*
X017260Y010611D02*
X017100Y010611D01*
X017260Y010452D02*
X017900Y010452D01*
X017900Y010294D02*
X017754Y010294D01*
X017755Y010295D02*
X017260Y010295D01*
X017260Y009800D01*
X017316Y009809D01*
X017403Y009837D01*
X017484Y009879D01*
X017558Y009933D01*
X017622Y009997D01*
X017676Y010071D01*
X017718Y010152D01*
X017746Y010239D01*
X017755Y010295D01*
X017709Y010135D02*
X017900Y010135D01*
X017900Y009977D02*
X017602Y009977D01*
X017343Y009818D02*
X017900Y009818D01*
X017900Y009660D02*
X014790Y009660D01*
X014790Y009818D02*
X015957Y009818D01*
X015730Y009977D02*
X014790Y009977D01*
X014790Y010135D02*
X014885Y010135D01*
X014804Y010294D02*
X014790Y010294D01*
X014790Y010452D02*
X014803Y010452D01*
X014790Y010611D02*
X014881Y010611D01*
X014833Y010769D02*
X015725Y010769D01*
X015946Y010928D02*
X014992Y010928D01*
X014790Y009501D02*
X017900Y009501D01*
X017900Y009343D02*
X014790Y009343D01*
X014790Y009184D02*
X017900Y009184D01*
X017900Y009026D02*
X014790Y009026D01*
X014790Y008867D02*
X017900Y008867D01*
X017900Y008709D02*
X014790Y008709D01*
X014790Y008550D02*
X017900Y008550D01*
X017900Y008392D02*
X014790Y008392D01*
X014790Y008233D02*
X017900Y008233D01*
X017900Y008075D02*
X014790Y008075D01*
X014790Y007916D02*
X017900Y007916D01*
X017900Y007758D02*
X014790Y007758D01*
X014790Y007599D02*
X017900Y007599D01*
X017900Y007441D02*
X014790Y007441D01*
X014790Y007282D02*
X017900Y007282D01*
X017900Y007124D02*
X014790Y007124D01*
X014790Y006965D02*
X017900Y006965D01*
X017900Y006807D02*
X014790Y006807D01*
X014712Y006648D02*
X017900Y006648D01*
X017900Y006490D02*
X014554Y006490D01*
X014395Y006331D02*
X017900Y006331D01*
X017900Y006173D02*
X014237Y006173D01*
X014078Y006014D02*
X017900Y006014D01*
X017900Y005856D02*
X013920Y005856D01*
X013761Y005697D02*
X017900Y005697D01*
X017900Y005539D02*
X013603Y005539D01*
X013444Y005380D02*
X017900Y005380D01*
X017900Y005222D02*
X013286Y005222D01*
X013127Y005063D02*
X017900Y005063D01*
X017900Y004905D02*
X012969Y004905D01*
X012810Y004746D02*
X017900Y004746D01*
X017900Y004588D02*
X012652Y004588D01*
X012493Y004429D02*
X017900Y004429D01*
X017900Y004271D02*
X012335Y004271D01*
X012176Y004112D02*
X017900Y004112D01*
X017900Y003954D02*
X012018Y003954D01*
X011859Y003795D02*
X017900Y003795D01*
X017900Y003637D02*
X011701Y003637D01*
X011542Y003478D02*
X017900Y003478D01*
X017900Y003320D02*
X011384Y003320D01*
X011225Y003161D02*
X017900Y003161D01*
X017900Y003003D02*
X011067Y003003D01*
X010908Y002844D02*
X017900Y002844D01*
X017900Y002686D02*
X011904Y002686D01*
X012026Y002527D02*
X017900Y002527D01*
X017900Y002369D02*
X012058Y002369D01*
X012040Y002210D02*
X017900Y002210D01*
X017900Y002052D02*
X012040Y002052D01*
X012040Y001893D02*
X016919Y001893D01*
X017100Y001893D02*
X017260Y001893D01*
X017260Y001950D02*
X017260Y001455D01*
X017755Y001455D01*
X017746Y001511D01*
X017718Y001598D01*
X017676Y001679D01*
X017622Y001753D01*
X017558Y001817D01*
X017484Y001871D01*
X017403Y001913D01*
X017316Y001941D01*
X017260Y001950D01*
X017441Y001893D02*
X017900Y001893D01*
X017900Y001735D02*
X017636Y001735D01*
X017725Y001576D02*
X017900Y001576D01*
X017900Y001418D02*
X017260Y001418D01*
X017260Y001576D02*
X017100Y001576D01*
X017100Y001418D02*
X012280Y001418D01*
X012280Y001259D02*
X016611Y001259D01*
X016669Y001101D02*
X012216Y001101D01*
X012096Y000942D02*
X016793Y000942D01*
X016635Y001576D02*
X012246Y001576D01*
X012169Y001735D02*
X016724Y001735D01*
X017100Y001735D02*
X017260Y001735D01*
X017749Y001259D02*
X017900Y001259D01*
X017760Y001101D02*
X017691Y001101D01*
X017601Y000942D02*
X017567Y000942D01*
X017260Y009818D02*
X017100Y009818D01*
X017017Y009818D02*
X016403Y009818D01*
X016630Y009977D02*
X016758Y009977D01*
X017100Y009977D02*
X017260Y009977D01*
X017260Y010135D02*
X017100Y010135D01*
X017100Y010294D02*
X017260Y010294D01*
X017711Y010611D02*
X017900Y010611D01*
X017900Y010769D02*
X017606Y010769D01*
X017388Y011562D02*
X017900Y011562D01*
X017900Y011720D02*
X017624Y011720D01*
X017727Y011879D02*
X017900Y011879D01*
X017900Y012037D02*
X017780Y012037D01*
X017780Y012196D02*
X017900Y012196D01*
X017900Y012354D02*
X017735Y012354D01*
X017641Y012513D02*
X017900Y012513D01*
X017900Y012671D02*
X017752Y012671D01*
X017760Y012830D02*
X017900Y012830D01*
X017900Y012988D02*
X017760Y012988D01*
X017900Y013147D02*
X017260Y013147D01*
X017260Y013045D02*
X017260Y012725D01*
X017100Y012725D01*
X017100Y013045D01*
X017260Y013045D01*
X017260Y012988D02*
X017100Y012988D01*
X017100Y012830D02*
X017260Y012830D01*
X017100Y013147D02*
X011847Y013147D01*
X011689Y012988D02*
X016600Y012988D01*
X016600Y012830D02*
X011530Y012830D01*
X011372Y012671D02*
X016608Y012671D01*
X016719Y012513D02*
X011213Y012513D01*
X010680Y012375D02*
X013430Y015125D01*
X015680Y015125D01*
X016680Y016125D01*
X016680Y016625D01*
X016960Y016158D02*
X017320Y016158D01*
X017320Y016000D02*
X016931Y016000D01*
X016792Y015841D02*
X017320Y015841D01*
X016958Y015683D02*
X016634Y015683D01*
X016730Y015524D02*
X016475Y015524D01*
X016630Y015366D02*
X016317Y015366D01*
X016158Y015207D02*
X016580Y015207D01*
X016580Y015049D02*
X016000Y015049D01*
X015841Y014890D02*
X016628Y014890D01*
X016725Y014732D02*
X013433Y014732D01*
X013274Y014573D02*
X016779Y014573D01*
X016650Y014415D02*
X013116Y014415D01*
X012957Y014256D02*
X016585Y014256D01*
X016580Y014098D02*
X012799Y014098D01*
X012640Y013939D02*
X016608Y013939D01*
X016676Y013781D02*
X012481Y013781D01*
X012323Y013622D02*
X016628Y013622D01*
X016600Y013464D02*
X012164Y013464D01*
X012006Y013305D02*
X016600Y013305D01*
X017100Y013305D02*
X017260Y013305D01*
X017260Y013464D02*
X017100Y013464D01*
X017732Y013622D02*
X017900Y013622D01*
X017900Y013464D02*
X017760Y013464D01*
X017760Y013305D02*
X017900Y013305D01*
X017900Y013781D02*
X017684Y013781D01*
X017752Y013939D02*
X017900Y013939D01*
X017900Y014098D02*
X017780Y014098D01*
X017775Y014256D02*
X017900Y014256D01*
X017900Y014415D02*
X017710Y014415D01*
X017581Y014573D02*
X017900Y014573D01*
X017900Y014732D02*
X017635Y014732D01*
X017732Y014890D02*
X017900Y014890D01*
X017900Y015049D02*
X017780Y015049D01*
X017780Y015207D02*
X017900Y015207D01*
X017320Y017018D02*
X017263Y017075D01*
X016097Y017075D01*
X015980Y016958D01*
X015980Y016292D01*
X016097Y016175D01*
X016334Y016175D01*
X015564Y015405D01*
X013606Y015405D01*
X013967Y015766D01*
X014172Y015766D01*
X014289Y015883D01*
X014289Y017131D01*
X014173Y017248D01*
X014173Y018002D01*
X014289Y018119D01*
X014289Y019367D01*
X014184Y019473D01*
X014327Y019532D01*
X014523Y019728D01*
X014630Y019986D01*
X014630Y020264D01*
X014523Y020522D01*
X014327Y020718D01*
X014069Y020825D01*
X013791Y020825D01*
X013533Y020718D01*
X013337Y020522D01*
X013230Y020264D01*
X013230Y019986D01*
X013337Y019728D01*
X013533Y019532D01*
X013647Y019484D01*
X013613Y019484D01*
X013496Y019367D01*
X013496Y018119D01*
X013613Y018002D01*
X013613Y017248D01*
X013496Y017131D01*
X013496Y016087D01*
X012747Y015338D01*
X012747Y015766D01*
X012864Y015883D01*
X012864Y017131D01*
X012747Y017248D01*
X012747Y018002D01*
X012864Y018119D01*
X012864Y019367D01*
X012747Y019484D01*
X012188Y019484D01*
X012071Y019367D01*
X012071Y018119D01*
X012187Y018002D01*
X012187Y017248D01*
X012071Y017131D01*
X012071Y015883D01*
X012187Y015766D01*
X012187Y015278D01*
X010680Y013771D01*
X010680Y014625D01*
X010129Y014625D01*
X010129Y016244D01*
X010149Y016244D01*
X010266Y016361D01*
X010266Y017314D01*
X010149Y017431D01*
X009550Y017431D01*
X009433Y017314D01*
X009433Y016361D01*
X009550Y016244D01*
X009569Y016244D01*
X009569Y014625D01*
X004576Y014625D01*
X004796Y014845D01*
X005986Y014845D01*
X006089Y014888D01*
X006839Y015638D01*
X006917Y015716D01*
X006960Y015819D01*
X006960Y021931D01*
X006917Y022034D01*
X006792Y022159D01*
X006058Y022893D01*
X006058Y022950D01*
X006001Y023089D01*
X005894Y023196D01*
X005755Y023253D01*
X005605Y023253D01*
X005466Y023196D01*
X005425Y023155D01*
X005380Y023155D01*
X005380Y023208D01*
X005263Y023325D01*
X004097Y023325D01*
X003980Y023208D01*
X003980Y022542D01*
X004097Y022425D01*
X005263Y022425D01*
X005380Y022542D01*
X005380Y022595D01*
X005425Y022595D01*
X005466Y022554D01*
X005605Y022497D01*
X005662Y022497D01*
X006396Y021763D01*
X006400Y021759D01*
X006400Y015991D01*
X006160Y015751D01*
X006166Y015766D01*
X006172Y015766D01*
X006289Y015883D01*
X006289Y017131D01*
X006173Y017248D01*
X006173Y018002D01*
X006289Y018119D01*
X006289Y019367D01*
X006172Y019484D01*
X005613Y019484D01*
X005496Y019367D01*
X005496Y018119D01*
X005613Y018002D01*
X005613Y017248D01*
X005496Y017131D01*
X005496Y015905D01*
X004864Y015905D01*
X004864Y017131D01*
X004747Y017248D01*
X004747Y018002D01*
X004864Y018119D01*
X004864Y019367D01*
X004747Y019484D01*
X004713Y019484D01*
X004827Y019532D01*
X005023Y019728D01*
X005130Y019986D01*
X005130Y020264D01*
X005023Y020522D01*
X004827Y020718D01*
X004569Y020825D01*
X004291Y020825D01*
X004033Y020718D01*
X003837Y020522D01*
X003730Y020264D01*
X003730Y019986D01*
X003837Y019728D01*
X004033Y019532D01*
X004176Y019473D01*
X004071Y019367D01*
X004071Y018119D01*
X004187Y018002D01*
X004187Y017248D01*
X004071Y017131D01*
X004071Y015912D01*
X002784Y014625D01*
X001076Y014625D01*
X000960Y014741D01*
X000960Y017009D01*
X001296Y017345D01*
X001392Y017345D01*
X001385Y017338D01*
X001385Y016660D01*
X001436Y016609D01*
X001417Y016576D01*
X001405Y016531D01*
X001405Y016299D01*
X001832Y016299D01*
X001832Y016203D01*
X001405Y016203D01*
X001405Y015971D01*
X001417Y015926D01*
X001441Y015885D01*
X001474Y015851D01*
X001515Y015827D01*
X001561Y015815D01*
X001832Y015815D01*
X001832Y016203D01*
X001928Y016203D01*
X001928Y016299D01*
X002355Y016299D01*
X002355Y016531D01*
X002343Y016576D01*
X002324Y016609D01*
X002375Y016660D01*
X002375Y017338D01*
X002258Y017455D01*
X002210Y017455D01*
X002210Y017795D01*
X002258Y017795D01*
X002375Y017912D01*
X002375Y018590D01*
X002340Y018625D01*
X002375Y018660D01*
X002375Y019338D01*
X002258Y019455D01*
X001502Y019455D01*
X001385Y019338D01*
X001385Y019155D01*
X001185Y019155D01*
X001144Y019196D01*
X001005Y019253D01*
X000855Y019253D01*
X000716Y019196D01*
X000609Y019089D01*
X000552Y018950D01*
X000552Y018800D01*
X000609Y018661D01*
X000716Y018554D01*
X000855Y018497D01*
X001005Y018497D01*
X001144Y018554D01*
X001185Y018595D01*
X001390Y018595D01*
X001385Y018590D01*
X001385Y017912D01*
X001392Y017905D01*
X001124Y017905D01*
X001021Y017862D01*
X000460Y017301D01*
X000460Y020509D01*
X000796Y020845D01*
X003736Y020845D01*
X003839Y020888D01*
X003917Y020966D01*
X003960Y021069D01*
X003960Y028855D01*
X004033Y028782D01*
X004291Y028675D01*
X004569Y028675D01*
X004827Y028782D01*
X005023Y028978D01*
X005130Y029236D01*
X005130Y029514D01*
X005023Y029772D01*
X004827Y029968D01*
X004569Y030075D01*
X004291Y030075D01*
X004033Y029968D01*
X003960Y029895D01*
X003960Y030509D01*
X004296Y030845D01*
X014064Y030845D01*
X014400Y030509D01*
X014400Y029895D01*
X014327Y029968D01*
X014069Y030075D01*
X013791Y030075D01*
X013533Y029968D01*
X013337Y029772D01*
X013230Y029514D01*
X013230Y029236D01*
X013337Y028978D01*
X013533Y028782D01*
X013791Y028675D01*
X014069Y028675D01*
X014327Y028782D01*
X014400Y028855D01*
X014400Y027547D01*
X014389Y027566D01*
X014356Y027599D01*
X014314Y027623D01*
X014269Y027635D01*
X013965Y027635D01*
X013965Y027260D01*
X013895Y027260D01*
X013895Y027635D01*
X013591Y027635D01*
X013546Y027623D01*
X013504Y027599D01*
X013471Y027566D01*
X013447Y027524D01*
X013435Y027479D01*
X013435Y027260D01*
X013895Y027260D01*
X013895Y027190D01*
X013435Y027190D01*
X013435Y026971D01*
X013438Y026961D01*
X013422Y026945D01*
X011813Y026945D01*
X010250Y028508D01*
X010250Y028660D01*
X010251Y028661D01*
X010308Y028800D01*
X010308Y028950D01*
X010251Y029089D01*
X010144Y029196D01*
X010005Y029253D01*
X009855Y029253D01*
X009716Y029196D01*
X009609Y029089D01*
X009552Y028950D01*
X009552Y028800D01*
X009609Y028661D01*
X009610Y028660D01*
X009610Y028311D01*
X009659Y028194D01*
X011409Y026444D01*
X011493Y026359D01*
X011347Y026299D01*
X011206Y026158D01*
X011130Y025974D01*
X011130Y025776D01*
X011206Y025592D01*
X011347Y025451D01*
X011531Y025375D01*
X011347Y025299D01*
X011206Y025158D01*
X011130Y024974D01*
X011130Y024776D01*
X011206Y024592D01*
X011347Y024451D01*
X011531Y024375D01*
X012329Y024375D01*
X012513Y024451D01*
X012654Y024592D01*
X012730Y024776D01*
X012730Y024972D01*
X013442Y025685D01*
X013532Y025595D01*
X014328Y025595D01*
X014445Y025712D01*
X014445Y026464D01*
X014521Y026388D01*
X014624Y026345D01*
X016064Y026345D01*
X016400Y026009D01*
X016400Y020069D01*
X016443Y019966D01*
X016521Y019888D01*
X016624Y019845D01*
X017564Y019845D01*
X017900Y019509D01*
X017900Y018414D01*
X013540Y022774D01*
X013540Y023774D01*
X013605Y023747D01*
X013755Y023747D01*
X013799Y023765D01*
X014374Y023765D01*
X014380Y023768D01*
X014779Y023768D01*
X014896Y023885D01*
X014896Y024365D01*
X014779Y024482D01*
X014380Y024482D01*
X014374Y024485D01*
X013799Y024485D01*
X013755Y024503D01*
X013605Y024503D01*
X013541Y024477D01*
X013813Y024749D01*
X014374Y024749D01*
X014380Y024752D01*
X014779Y024752D01*
X014896Y024869D01*
X014896Y025350D01*
X014779Y025467D01*
X014380Y025467D01*
X014374Y025469D01*
X013593Y025469D01*
X013460Y025414D01*
X012976Y024930D01*
X012875Y024829D01*
X012820Y024697D01*
X012820Y022553D01*
X012875Y022421D01*
X012976Y022320D01*
X017258Y018038D01*
X017249Y018043D01*
X017204Y018055D01*
X016725Y018055D01*
X016725Y017670D01*
X016635Y017670D01*
X016635Y018055D01*
X016156Y018055D01*
X016111Y018043D01*
X016069Y018019D01*
X016036Y017986D01*
X016012Y017944D01*
X016000Y017899D01*
X016000Y017670D01*
X016635Y017670D01*
X016635Y017580D01*
X016725Y017580D01*
X016725Y017195D01*
X017204Y017195D01*
X017249Y017207D01*
X017291Y017231D01*
X017320Y017260D01*
X017320Y017018D01*
X017320Y017109D02*
X015829Y017109D01*
X015832Y017104D02*
X015808Y017145D01*
X015775Y017178D01*
X015734Y017202D01*
X015688Y017214D01*
X015486Y017214D01*
X015486Y016512D01*
X015449Y016512D01*
X015449Y017214D01*
X015247Y017214D01*
X015201Y017202D01*
X015160Y017178D01*
X015127Y017145D01*
X015103Y017104D01*
X015091Y017058D01*
X015091Y016512D01*
X015449Y016512D01*
X015449Y016475D01*
X014289Y016475D01*
X014289Y016317D02*
X015091Y016317D01*
X015091Y016475D02*
X015091Y015928D01*
X015103Y015882D01*
X015127Y015841D01*
X014248Y015841D01*
X014289Y016000D02*
X015091Y016000D01*
X015091Y016158D02*
X014289Y016158D01*
X014289Y016634D02*
X015091Y016634D01*
X015091Y016792D02*
X014289Y016792D01*
X014289Y016951D02*
X015091Y016951D01*
X015106Y017109D02*
X014289Y017109D01*
X014173Y017268D02*
X016034Y017268D01*
X016036Y017264D02*
X016069Y017231D01*
X016111Y017207D01*
X016156Y017195D01*
X016635Y017195D01*
X016635Y017580D01*
X016000Y017580D01*
X016000Y017351D01*
X016012Y017306D01*
X016036Y017264D01*
X016000Y017426D02*
X014173Y017426D01*
X014173Y017585D02*
X016635Y017585D01*
X016635Y017743D02*
X016725Y017743D01*
X016725Y017902D02*
X016635Y017902D01*
X016635Y017426D02*
X016725Y017426D01*
X016725Y017268D02*
X016635Y017268D01*
X015980Y016951D02*
X015844Y016951D01*
X015844Y017058D02*
X015832Y017104D01*
X015844Y017058D02*
X015844Y016512D01*
X015486Y016512D01*
X015486Y016475D01*
X015980Y016475D01*
X015844Y016475D02*
X015844Y015928D01*
X015832Y015882D01*
X015808Y015841D01*
X016000Y015841D01*
X015808Y015841D02*
X015775Y015808D01*
X015734Y015784D01*
X015688Y015772D01*
X015486Y015772D01*
X015486Y016475D01*
X015844Y016475D01*
X015844Y016317D02*
X015980Y016317D01*
X015844Y016158D02*
X016317Y016158D01*
X016159Y016000D02*
X015844Y016000D01*
X015842Y015683D02*
X013884Y015683D01*
X013725Y015524D02*
X015683Y015524D01*
X015449Y015772D02*
X015449Y016475D01*
X015091Y016475D01*
X015127Y015841D02*
X015160Y015808D01*
X015201Y015784D01*
X015247Y015772D01*
X015449Y015772D01*
X015449Y015841D02*
X015486Y015841D01*
X015486Y016000D02*
X015449Y016000D01*
X015449Y016158D02*
X015486Y016158D01*
X015486Y016317D02*
X015449Y016317D01*
X015449Y016475D02*
X015486Y016475D01*
X015486Y016634D02*
X015449Y016634D01*
X015449Y016792D02*
X015486Y016792D01*
X015486Y016951D02*
X015449Y016951D01*
X015449Y017109D02*
X015486Y017109D01*
X015844Y016792D02*
X015980Y016792D01*
X015980Y016634D02*
X015844Y016634D01*
X016000Y017743D02*
X014173Y017743D01*
X014173Y017902D02*
X016001Y017902D01*
X015808Y018105D02*
X015832Y018146D01*
X015844Y018192D01*
X015844Y018738D01*
X015486Y018738D01*
X015486Y018036D01*
X015688Y018036D01*
X015734Y018048D01*
X015775Y018072D01*
X015808Y018105D01*
X015755Y018060D02*
X017236Y018060D01*
X017077Y018219D02*
X015844Y018219D01*
X015844Y018377D02*
X016919Y018377D01*
X016760Y018536D02*
X015844Y018536D01*
X015844Y018694D02*
X016602Y018694D01*
X016443Y018853D02*
X015844Y018853D01*
X015844Y018775D02*
X015844Y019322D01*
X015832Y019368D01*
X015808Y019409D01*
X015775Y019442D01*
X015734Y019466D01*
X015688Y019478D01*
X015486Y019478D01*
X015486Y018775D01*
X015844Y018775D01*
X015844Y019011D02*
X016285Y019011D01*
X016126Y019170D02*
X015844Y019170D01*
X015843Y019328D02*
X015968Y019328D01*
X015809Y019487D02*
X014218Y019487D01*
X014289Y019328D02*
X015092Y019328D01*
X015091Y019322D02*
X015091Y018775D01*
X015449Y018775D01*
X015449Y018738D01*
X015486Y018738D01*
X015486Y018775D01*
X015449Y018775D01*
X015449Y019478D01*
X015247Y019478D01*
X015201Y019466D01*
X015160Y019442D01*
X015127Y019409D01*
X015103Y019368D01*
X015091Y019322D01*
X015091Y019170D02*
X014289Y019170D01*
X014289Y019011D02*
X015091Y019011D01*
X015091Y018853D02*
X014289Y018853D01*
X014289Y018694D02*
X015091Y018694D01*
X015091Y018738D02*
X015091Y018192D01*
X015103Y018146D01*
X015127Y018105D01*
X015160Y018072D01*
X015201Y018048D01*
X015247Y018036D01*
X015449Y018036D01*
X015449Y018738D01*
X015091Y018738D01*
X015091Y018536D02*
X014289Y018536D01*
X014289Y018377D02*
X015091Y018377D01*
X015091Y018219D02*
X014289Y018219D01*
X014231Y018060D02*
X015180Y018060D01*
X015449Y018060D02*
X015486Y018060D01*
X015486Y018219D02*
X015449Y018219D01*
X015449Y018377D02*
X015486Y018377D01*
X015486Y018536D02*
X015449Y018536D01*
X015449Y018694D02*
X015486Y018694D01*
X015486Y018853D02*
X015449Y018853D01*
X015449Y019011D02*
X015486Y019011D01*
X015486Y019170D02*
X015449Y019170D01*
X015449Y019328D02*
X015486Y019328D01*
X015651Y019645D02*
X014440Y019645D01*
X014555Y019804D02*
X015492Y019804D01*
X015334Y019962D02*
X014620Y019962D01*
X014630Y020121D02*
X015175Y020121D01*
X015017Y020279D02*
X014624Y020279D01*
X014558Y020438D02*
X014858Y020438D01*
X014700Y020596D02*
X014449Y020596D01*
X014541Y020755D02*
X014239Y020755D01*
X014383Y020913D02*
X011040Y020913D01*
X011040Y021006D02*
X011040Y020614D01*
X011189Y020465D01*
X011280Y020244D01*
X011280Y020006D01*
X011189Y019785D01*
X011020Y019616D01*
X010867Y019553D01*
X010792Y019478D01*
X010874Y019478D01*
X010874Y018775D01*
X010874Y018738D01*
X010911Y018738D01*
X010911Y018036D01*
X011113Y018036D01*
X011159Y018048D01*
X011200Y018072D01*
X011233Y018105D01*
X011257Y018146D01*
X011269Y018192D01*
X011269Y018738D01*
X010911Y018738D01*
X010911Y018775D01*
X011269Y018775D01*
X011269Y019322D01*
X011257Y019368D01*
X011233Y019409D01*
X011200Y019442D01*
X011159Y019466D01*
X011113Y019478D01*
X010911Y019478D01*
X010911Y018775D01*
X010874Y018775D01*
X010516Y018775D01*
X010516Y019202D01*
X010234Y018920D01*
X010266Y018889D01*
X010266Y017936D01*
X010149Y017819D01*
X009550Y017819D01*
X009433Y017936D01*
X009433Y018889D01*
X009489Y018945D01*
X009489Y019116D01*
X009544Y019248D01*
X009874Y019578D01*
X009816Y019559D01*
X009760Y019550D01*
X009760Y020045D01*
X009760Y020205D01*
X010080Y020205D01*
X010080Y020045D01*
X009760Y020045D01*
X009600Y020045D01*
X009600Y019550D01*
X009544Y019559D01*
X009457Y019587D01*
X009376Y019629D01*
X009302Y019683D01*
X009238Y019747D01*
X009196Y019804D01*
X009189Y019785D01*
X009020Y019616D01*
X008799Y019525D01*
X008561Y019525D01*
X008340Y019616D01*
X008180Y019776D01*
X008020Y019616D01*
X007799Y019525D01*
X007561Y019525D01*
X007340Y019616D01*
X007171Y019785D01*
X007080Y020006D01*
X007080Y020244D01*
X007171Y020465D01*
X007340Y020634D01*
X007373Y020647D01*
X007359Y020661D01*
X007302Y020800D01*
X007302Y020950D01*
X007359Y021089D01*
X007466Y021196D01*
X007605Y021253D01*
X007662Y021253D01*
X009150Y022741D01*
X009150Y027370D01*
X009109Y027411D01*
X009052Y027550D01*
X009052Y027700D01*
X009109Y027839D01*
X009216Y027946D01*
X009355Y028003D01*
X009505Y028003D01*
X009644Y027946D01*
X009751Y027839D01*
X009796Y027729D01*
X009855Y027753D01*
X010005Y027753D01*
X010144Y027696D01*
X010251Y027589D01*
X010308Y027450D01*
X010308Y027300D01*
X010251Y027161D01*
X010210Y027120D01*
X010210Y025690D01*
X010216Y025696D01*
X010355Y025753D01*
X010505Y025753D01*
X010644Y025696D01*
X010751Y025589D01*
X010808Y025450D01*
X010808Y025300D01*
X010790Y025256D01*
X010790Y022524D01*
X010985Y022329D01*
X011040Y022197D01*
X011040Y021244D01*
X011058Y021200D01*
X011058Y021050D01*
X011040Y021006D01*
X011058Y021072D02*
X014224Y021072D01*
X014066Y021230D02*
X011046Y021230D01*
X011040Y021389D02*
X013907Y021389D01*
X013749Y021547D02*
X011040Y021547D01*
X011040Y021706D02*
X013590Y021706D01*
X013432Y021864D02*
X011040Y021864D01*
X011040Y022023D02*
X013273Y022023D01*
X013115Y022181D02*
X011040Y022181D01*
X010975Y022340D02*
X012956Y022340D01*
X012843Y022498D02*
X010816Y022498D01*
X010790Y022657D02*
X012820Y022657D01*
X012820Y022815D02*
X010790Y022815D01*
X010790Y022974D02*
X012820Y022974D01*
X012820Y023132D02*
X010790Y023132D01*
X010790Y023291D02*
X012820Y023291D01*
X012820Y023449D02*
X010790Y023449D01*
X010790Y023608D02*
X012820Y023608D01*
X012820Y023766D02*
X010790Y023766D01*
X010790Y023925D02*
X012820Y023925D01*
X012820Y024083D02*
X010790Y024083D01*
X010790Y024242D02*
X012820Y024242D01*
X012820Y024400D02*
X012390Y024400D01*
X012621Y024559D02*
X012820Y024559D01*
X012828Y024717D02*
X012706Y024717D01*
X012730Y024876D02*
X012921Y024876D01*
X012792Y025034D02*
X013080Y025034D01*
X012950Y025193D02*
X013238Y025193D01*
X013109Y025351D02*
X013397Y025351D01*
X013267Y025510D02*
X015323Y025510D01*
X015323Y025515D02*
X015323Y025373D01*
X015377Y025241D01*
X015478Y025141D01*
X015609Y025086D01*
X015751Y025086D01*
X015882Y025141D01*
X015983Y025241D01*
X016037Y025373D01*
X016037Y025515D01*
X015983Y025646D01*
X015882Y025747D01*
X015751Y025801D01*
X015609Y025801D01*
X015478Y025747D01*
X015377Y025646D01*
X015323Y025515D01*
X015332Y025351D02*
X014894Y025351D01*
X014896Y025193D02*
X015426Y025193D01*
X015399Y025668D02*
X014401Y025668D01*
X014445Y025827D02*
X016400Y025827D01*
X016400Y025985D02*
X014445Y025985D01*
X014445Y026144D02*
X016265Y026144D01*
X016107Y026302D02*
X014445Y026302D01*
X014445Y026461D02*
X014448Y026461D01*
X013895Y027253D02*
X011505Y027253D01*
X011663Y027095D02*
X013435Y027095D01*
X013435Y027412D02*
X011346Y027412D01*
X011188Y027570D02*
X013475Y027570D01*
X013895Y027570D02*
X013965Y027570D01*
X013965Y027412D02*
X013895Y027412D01*
X014385Y027570D02*
X014400Y027570D01*
X014400Y027729D02*
X011029Y027729D01*
X010871Y027887D02*
X014400Y027887D01*
X014400Y028046D02*
X010712Y028046D01*
X010554Y028204D02*
X014400Y028204D01*
X014400Y028363D02*
X010395Y028363D01*
X010250Y028521D02*
X014400Y028521D01*
X014400Y028680D02*
X014080Y028680D01*
X013780Y028680D02*
X010258Y028680D01*
X010308Y028838D02*
X013477Y028838D01*
X013329Y028997D02*
X010289Y028997D01*
X010185Y029155D02*
X013263Y029155D01*
X013230Y029314D02*
X005130Y029314D01*
X005130Y029472D02*
X013230Y029472D01*
X013278Y029631D02*
X005082Y029631D01*
X005006Y029789D02*
X013354Y029789D01*
X013513Y029948D02*
X004847Y029948D01*
X005097Y029155D02*
X009675Y029155D01*
X009571Y028997D02*
X005031Y028997D01*
X004883Y028838D02*
X009552Y028838D01*
X009602Y028680D02*
X004580Y028680D01*
X004280Y028680D02*
X003960Y028680D01*
X003960Y028838D02*
X003977Y028838D01*
X003960Y028521D02*
X009610Y028521D01*
X009610Y028363D02*
X003960Y028363D01*
X003960Y028204D02*
X009654Y028204D01*
X009807Y028046D02*
X003960Y028046D01*
X003960Y027887D02*
X009157Y027887D01*
X009064Y027729D02*
X003960Y027729D01*
X003960Y027570D02*
X009052Y027570D01*
X009109Y027412D02*
X003960Y027412D01*
X003960Y027253D02*
X009150Y027253D01*
X009150Y027095D02*
X003960Y027095D01*
X003960Y026936D02*
X009150Y026936D01*
X009150Y026778D02*
X003960Y026778D01*
X003960Y026619D02*
X009150Y026619D01*
X009150Y026461D02*
X003960Y026461D01*
X003960Y026302D02*
X009150Y026302D01*
X009150Y026144D02*
X003960Y026144D01*
X003960Y025985D02*
X009150Y025985D01*
X009150Y025827D02*
X003960Y025827D01*
X004036Y025736D02*
X004012Y025694D01*
X004000Y025649D01*
X004000Y025420D01*
X004635Y025420D01*
X004635Y025805D01*
X004156Y025805D01*
X004111Y025793D01*
X004069Y025769D01*
X004036Y025736D01*
X004005Y025668D02*
X003960Y025668D01*
X003960Y025510D02*
X004000Y025510D01*
X003960Y025351D02*
X004635Y025351D01*
X004635Y025330D02*
X004000Y025330D01*
X004000Y025101D01*
X004012Y025056D01*
X004036Y025014D01*
X004069Y024981D01*
X004111Y024957D01*
X004156Y024945D01*
X004635Y024945D01*
X004635Y025330D01*
X004725Y025330D01*
X004725Y025420D01*
X004635Y025420D01*
X004635Y025330D01*
X004725Y025330D02*
X004725Y024945D01*
X005204Y024945D01*
X005249Y024957D01*
X005291Y024981D01*
X005324Y025014D01*
X005348Y025056D01*
X005360Y025101D01*
X005360Y025330D01*
X004725Y025330D01*
X004725Y025351D02*
X009150Y025351D01*
X009150Y025193D02*
X005360Y025193D01*
X005335Y025034D02*
X009150Y025034D01*
X009150Y024876D02*
X003960Y024876D01*
X003960Y025034D02*
X004025Y025034D01*
X004000Y025193D02*
X003960Y025193D01*
X003960Y024717D02*
X009150Y024717D01*
X009150Y024559D02*
X003960Y024559D01*
X003960Y024400D02*
X009150Y024400D01*
X009150Y024242D02*
X003960Y024242D01*
X003960Y024083D02*
X009150Y024083D01*
X009150Y023925D02*
X003960Y023925D01*
X003960Y023766D02*
X009150Y023766D01*
X009150Y023608D02*
X003960Y023608D01*
X003960Y023449D02*
X009150Y023449D01*
X009150Y023291D02*
X005297Y023291D01*
X005680Y022875D02*
X006555Y022000D01*
X006680Y021875D01*
X006680Y015875D01*
X005930Y015125D01*
X004680Y015125D01*
X003180Y013625D01*
X003180Y007375D01*
X000930Y005125D01*
X001581Y005380D02*
X009409Y005380D01*
X009523Y005539D02*
X001739Y005539D01*
X001898Y005697D02*
X009509Y005697D01*
X009392Y005856D02*
X002056Y005856D01*
X002215Y006014D02*
X009330Y006014D01*
X009330Y006173D02*
X002373Y006173D01*
X002532Y006331D02*
X009328Y006331D01*
X009170Y006490D02*
X002690Y006490D01*
X002849Y006648D02*
X009011Y006648D01*
X008853Y006807D02*
X003007Y006807D01*
X003166Y006965D02*
X008694Y006965D01*
X008536Y007124D02*
X003324Y007124D01*
X003445Y007282D02*
X008377Y007282D01*
X008219Y007441D02*
X003460Y007441D01*
X003460Y007599D02*
X008060Y007599D01*
X007926Y007758D02*
X003460Y007758D01*
X003460Y007916D02*
X007900Y007916D01*
X007900Y008075D02*
X003460Y008075D01*
X003460Y008233D02*
X007900Y008233D01*
X007900Y008392D02*
X003460Y008392D01*
X003460Y008550D02*
X007900Y008550D01*
X007900Y008709D02*
X003460Y008709D01*
X003460Y008867D02*
X007900Y008867D01*
X007900Y009026D02*
X003460Y009026D01*
X003460Y009184D02*
X007900Y009184D01*
X007900Y009343D02*
X003460Y009343D01*
X003460Y009501D02*
X007900Y009501D01*
X007900Y009660D02*
X003460Y009660D01*
X003460Y009818D02*
X007900Y009818D01*
X007900Y009977D02*
X003460Y009977D01*
X003460Y010135D02*
X007900Y010135D01*
X007900Y010294D02*
X003460Y010294D01*
X003460Y010452D02*
X007900Y010452D01*
X007900Y010611D02*
X003460Y010611D01*
X003460Y010769D02*
X007900Y010769D01*
X007900Y010928D02*
X003460Y010928D01*
X003460Y011086D02*
X007900Y011086D01*
X007900Y011245D02*
X003460Y011245D01*
X003460Y011403D02*
X007900Y011403D01*
X007971Y011562D02*
X003460Y011562D01*
X002180Y010375D02*
X002180Y013625D01*
X004467Y015912D01*
X004467Y016507D01*
X004467Y018743D01*
X004071Y018694D02*
X003269Y018694D01*
X003269Y018738D02*
X003269Y018192D01*
X003257Y018146D01*
X003233Y018105D01*
X003200Y018072D01*
X003159Y018048D01*
X003113Y018036D01*
X002911Y018036D01*
X002911Y018738D01*
X002874Y018738D01*
X002874Y018036D01*
X002672Y018036D01*
X002626Y018048D01*
X002585Y018072D01*
X002552Y018105D01*
X002528Y018146D01*
X002516Y018192D01*
X002516Y018738D01*
X002874Y018738D01*
X002874Y018775D01*
X002516Y018775D01*
X002516Y019322D01*
X002528Y019368D01*
X002552Y019409D01*
X002585Y019442D01*
X002626Y019466D01*
X002672Y019478D01*
X002874Y019478D01*
X002874Y018775D01*
X002911Y018775D01*
X003269Y018775D01*
X003269Y019322D01*
X003257Y019368D01*
X003233Y019409D01*
X003200Y019442D01*
X003159Y019466D01*
X003113Y019478D01*
X002911Y019478D01*
X002911Y018775D01*
X002911Y018738D01*
X003269Y018738D01*
X003269Y018853D02*
X004071Y018853D01*
X004071Y019011D02*
X003269Y019011D01*
X003269Y019170D02*
X004071Y019170D01*
X004071Y019328D02*
X003268Y019328D01*
X002911Y019328D02*
X002874Y019328D01*
X002874Y019170D02*
X002911Y019170D01*
X002911Y019011D02*
X002874Y019011D01*
X002874Y018853D02*
X002911Y018853D01*
X002911Y018694D02*
X002874Y018694D01*
X002874Y018536D02*
X002911Y018536D01*
X002911Y018377D02*
X002874Y018377D01*
X002874Y018219D02*
X002911Y018219D01*
X002911Y018060D02*
X002874Y018060D01*
X002605Y018060D02*
X002375Y018060D01*
X002375Y018219D02*
X002516Y018219D01*
X002516Y018377D02*
X002375Y018377D01*
X002375Y018536D02*
X002516Y018536D01*
X002516Y018694D02*
X002375Y018694D01*
X002375Y018853D02*
X002516Y018853D01*
X002516Y019011D02*
X002375Y019011D01*
X002375Y019170D02*
X002516Y019170D01*
X002517Y019328D02*
X002375Y019328D01*
X001880Y018999D02*
X001773Y018875D01*
X000930Y018875D01*
X001098Y018536D02*
X001385Y018536D01*
X001385Y018377D02*
X000460Y018377D01*
X000460Y018219D02*
X001385Y018219D01*
X001385Y018060D02*
X000460Y018060D01*
X000460Y017902D02*
X001116Y017902D01*
X001180Y017625D02*
X001930Y017625D01*
X001930Y017049D01*
X001880Y016999D01*
X001865Y016968D01*
X002375Y016951D02*
X002516Y016951D01*
X002516Y017058D02*
X002516Y016512D01*
X002874Y016512D01*
X002874Y017214D01*
X002672Y017214D01*
X002626Y017202D01*
X002585Y017178D01*
X002552Y017145D01*
X002528Y017104D01*
X002516Y017058D01*
X002531Y017109D02*
X002375Y017109D01*
X002375Y017268D02*
X004187Y017268D01*
X004187Y017426D02*
X002287Y017426D01*
X002210Y017585D02*
X004187Y017585D01*
X004187Y017743D02*
X002210Y017743D01*
X002365Y017902D02*
X004187Y017902D01*
X004129Y018060D02*
X003180Y018060D01*
X003269Y018219D02*
X004071Y018219D01*
X004071Y018377D02*
X003269Y018377D01*
X003269Y018536D02*
X004071Y018536D01*
X004747Y017902D02*
X005613Y017902D01*
X005613Y017743D02*
X004747Y017743D01*
X004747Y017585D02*
X005613Y017585D01*
X005613Y017426D02*
X004747Y017426D01*
X004747Y017268D02*
X005613Y017268D01*
X005496Y017109D02*
X004864Y017109D01*
X004864Y016951D02*
X005496Y016951D01*
X005496Y016792D02*
X004864Y016792D01*
X004864Y016634D02*
X005496Y016634D01*
X005496Y016475D02*
X004864Y016475D01*
X004864Y016317D02*
X005496Y016317D01*
X005496Y016158D02*
X004864Y016158D01*
X004864Y016000D02*
X005496Y016000D01*
X005680Y015625D02*
X005893Y015838D01*
X005893Y016507D01*
X005893Y018743D01*
X006289Y018694D02*
X006400Y018694D01*
X006400Y018536D02*
X006289Y018536D01*
X006289Y018377D02*
X006400Y018377D01*
X006400Y018219D02*
X006289Y018219D01*
X006231Y018060D02*
X006400Y018060D01*
X006400Y017902D02*
X006173Y017902D01*
X006173Y017743D02*
X006400Y017743D01*
X006400Y017585D02*
X006173Y017585D01*
X006173Y017426D02*
X006400Y017426D01*
X006400Y017268D02*
X006173Y017268D01*
X006289Y017109D02*
X006400Y017109D01*
X006400Y016951D02*
X006289Y016951D01*
X006289Y016792D02*
X006400Y016792D01*
X006400Y016634D02*
X006289Y016634D01*
X006289Y016475D02*
X006400Y016475D01*
X006400Y016317D02*
X006289Y016317D01*
X006289Y016158D02*
X006400Y016158D01*
X006400Y016000D02*
X006289Y016000D01*
X006250Y015841D02*
X006248Y015841D01*
X006567Y015366D02*
X009569Y015366D01*
X009569Y015524D02*
X006725Y015524D01*
X006884Y015683D02*
X009569Y015683D01*
X009569Y015841D02*
X007808Y015841D01*
X007832Y015882D01*
X007844Y015928D01*
X007844Y016475D01*
X007486Y016475D01*
X008114Y016475D01*
X008114Y016420D02*
X008126Y016374D01*
X008150Y016333D01*
X008184Y016300D01*
X008225Y016276D01*
X008270Y016264D01*
X008482Y016264D01*
X008482Y016809D01*
X008114Y016809D01*
X008114Y016420D01*
X008167Y016317D02*
X007844Y016317D01*
X007844Y016158D02*
X009569Y016158D01*
X009569Y016000D02*
X007844Y016000D01*
X007808Y015841D02*
X007775Y015808D01*
X007734Y015784D01*
X007688Y015772D01*
X007486Y015772D01*
X007486Y016475D01*
X007486Y016512D01*
X007449Y016512D01*
X007449Y017214D01*
X007247Y017214D01*
X007201Y017202D01*
X007160Y017178D01*
X007127Y017145D01*
X007103Y017104D01*
X007091Y017058D01*
X007091Y016512D01*
X007449Y016512D01*
X007449Y016475D01*
X006960Y016475D01*
X007091Y016475D02*
X007091Y015928D01*
X007103Y015882D01*
X007127Y015841D01*
X006960Y015841D01*
X006960Y016000D02*
X007091Y016000D01*
X007091Y016158D02*
X006960Y016158D01*
X006960Y016317D02*
X007091Y016317D01*
X007091Y016475D02*
X007449Y016475D01*
X007486Y016475D01*
X007486Y016512D02*
X007844Y016512D01*
X007844Y017058D01*
X007832Y017104D01*
X007808Y017145D01*
X007775Y017178D01*
X007734Y017202D01*
X007688Y017214D01*
X007486Y017214D01*
X007486Y016512D01*
X007449Y016475D02*
X007449Y015772D01*
X007247Y015772D01*
X007201Y015784D01*
X007160Y015808D01*
X007127Y015841D01*
X007449Y015841D02*
X007486Y015841D01*
X007486Y016000D02*
X007449Y016000D01*
X007449Y016158D02*
X007486Y016158D01*
X007486Y016317D02*
X007449Y016317D01*
X007449Y016634D02*
X007486Y016634D01*
X007486Y016792D02*
X007449Y016792D01*
X007449Y016951D02*
X007486Y016951D01*
X007486Y017109D02*
X007449Y017109D01*
X007106Y017109D02*
X006960Y017109D01*
X006960Y016951D02*
X007091Y016951D01*
X007091Y016792D02*
X006960Y016792D01*
X006960Y016634D02*
X007091Y016634D01*
X006960Y017268D02*
X008118Y017268D01*
X008114Y017255D02*
X008114Y016866D01*
X008482Y016866D01*
X008482Y016809D01*
X008539Y016809D01*
X008539Y016264D01*
X008751Y016264D01*
X008797Y016276D01*
X008838Y016300D01*
X008871Y016333D01*
X008895Y016374D01*
X008907Y016420D01*
X008907Y016809D01*
X008539Y016809D01*
X008539Y016866D01*
X008482Y016866D01*
X008482Y017411D01*
X008270Y017411D01*
X008225Y017399D01*
X008184Y017375D01*
X008150Y017342D01*
X008126Y017301D01*
X008114Y017255D01*
X008114Y017109D02*
X007829Y017109D01*
X007844Y016951D02*
X008114Y016951D01*
X008114Y016792D02*
X007844Y016792D01*
X007844Y016634D02*
X008114Y016634D01*
X008482Y016634D02*
X008539Y016634D01*
X008539Y016792D02*
X008482Y016792D01*
X008539Y016866D02*
X008907Y016866D01*
X008907Y017255D01*
X008895Y017301D01*
X008871Y017342D01*
X008838Y017375D01*
X008797Y017399D01*
X008751Y017411D01*
X008539Y017411D01*
X008539Y016866D01*
X008539Y016951D02*
X008482Y016951D01*
X008482Y017109D02*
X008539Y017109D01*
X008539Y017268D02*
X008482Y017268D01*
X008904Y017268D02*
X009433Y017268D01*
X009433Y017109D02*
X008907Y017109D01*
X008907Y016951D02*
X009433Y016951D01*
X009433Y016792D02*
X008907Y016792D01*
X008907Y016634D02*
X009433Y016634D01*
X009433Y016475D02*
X008907Y016475D01*
X008854Y016317D02*
X009477Y016317D01*
X009849Y016838D02*
X009849Y013044D01*
X008180Y011375D01*
X008180Y007875D01*
X009930Y006125D01*
X010468Y004905D02*
X011950Y004905D01*
X011792Y004746D02*
X010371Y004746D01*
X010316Y004588D02*
X011633Y004588D01*
X011475Y004429D02*
X010454Y004429D01*
X010519Y004271D02*
X011316Y004271D01*
X011158Y004112D02*
X010530Y004112D01*
X010508Y003954D02*
X010999Y003954D01*
X010841Y003795D02*
X010443Y003795D01*
X010290Y003637D02*
X010682Y003637D01*
X010524Y003478D02*
X002836Y003478D01*
X002678Y003637D02*
X009570Y003637D01*
X010365Y003320D02*
X002995Y003320D01*
X002519Y003795D02*
X008489Y003795D01*
X008342Y003954D02*
X002361Y003954D01*
X002202Y004112D02*
X008302Y004112D01*
X008331Y004271D02*
X002044Y004271D01*
X001911Y004429D02*
X008449Y004429D01*
X009930Y007125D02*
X008680Y008375D01*
X008680Y011375D01*
X012467Y015162D01*
X012467Y016507D01*
X012467Y018743D01*
X012071Y018694D02*
X011269Y018694D01*
X011269Y018536D02*
X012071Y018536D01*
X012071Y018377D02*
X011269Y018377D01*
X011269Y018219D02*
X012071Y018219D01*
X012129Y018060D02*
X011180Y018060D01*
X010911Y018060D02*
X010874Y018060D01*
X010874Y018036D02*
X010874Y018738D01*
X010516Y018738D01*
X010516Y018192D01*
X010528Y018146D01*
X010552Y018105D01*
X010585Y018072D01*
X010626Y018048D01*
X010672Y018036D01*
X010874Y018036D01*
X010874Y018219D02*
X010911Y018219D01*
X010911Y018377D02*
X010874Y018377D01*
X010874Y018536D02*
X010911Y018536D01*
X010911Y018694D02*
X010874Y018694D01*
X010874Y018853D02*
X010911Y018853D01*
X010911Y019011D02*
X010874Y019011D01*
X010874Y019170D02*
X010911Y019170D01*
X010911Y019328D02*
X010874Y019328D01*
X010801Y019487D02*
X013642Y019487D01*
X013496Y019328D02*
X012864Y019328D01*
X012864Y019170D02*
X013496Y019170D01*
X013496Y019011D02*
X012864Y019011D01*
X012864Y018853D02*
X013496Y018853D01*
X013496Y018694D02*
X012864Y018694D01*
X012864Y018536D02*
X013496Y018536D01*
X013496Y018377D02*
X012864Y018377D01*
X012864Y018219D02*
X013496Y018219D01*
X013555Y018060D02*
X012805Y018060D01*
X012747Y017902D02*
X013613Y017902D01*
X013613Y017743D02*
X012747Y017743D01*
X012747Y017585D02*
X013613Y017585D01*
X013613Y017426D02*
X012747Y017426D01*
X012747Y017268D02*
X013613Y017268D01*
X013496Y017109D02*
X012864Y017109D01*
X012864Y016951D02*
X013496Y016951D01*
X013496Y016792D02*
X012864Y016792D01*
X012864Y016634D02*
X013496Y016634D01*
X013496Y016475D02*
X012864Y016475D01*
X012864Y016317D02*
X013496Y016317D01*
X013496Y016158D02*
X012864Y016158D01*
X012864Y016000D02*
X013409Y016000D01*
X013250Y015841D02*
X012823Y015841D01*
X012747Y015683D02*
X013092Y015683D01*
X012933Y015524D02*
X012747Y015524D01*
X012747Y015366D02*
X012775Y015366D01*
X012187Y015366D02*
X010129Y015366D01*
X010129Y015524D02*
X012187Y015524D01*
X012187Y015683D02*
X010129Y015683D01*
X010129Y015841D02*
X010552Y015841D01*
X010585Y015808D01*
X010626Y015784D01*
X010672Y015772D01*
X010874Y015772D01*
X010874Y016475D01*
X010266Y016475D01*
X010266Y016634D02*
X010516Y016634D01*
X010516Y016512D02*
X010516Y017058D01*
X010528Y017104D01*
X010552Y017145D01*
X010585Y017178D01*
X010626Y017202D01*
X010672Y017214D01*
X010874Y017214D01*
X010874Y016512D01*
X010911Y016512D01*
X010911Y017214D01*
X011113Y017214D01*
X011159Y017202D01*
X011200Y017178D01*
X011233Y017145D01*
X011257Y017104D01*
X011269Y017058D01*
X011269Y016512D01*
X010911Y016512D01*
X010911Y016475D01*
X012071Y016475D01*
X012071Y016317D02*
X011269Y016317D01*
X011269Y016475D02*
X010911Y016475D01*
X010911Y015772D01*
X011113Y015772D01*
X011159Y015784D01*
X011200Y015808D01*
X011233Y015841D01*
X012112Y015841D01*
X012071Y016000D02*
X011269Y016000D01*
X011269Y015928D02*
X011269Y016475D01*
X011269Y016634D02*
X012071Y016634D01*
X012071Y016792D02*
X011269Y016792D01*
X011269Y016951D02*
X012071Y016951D01*
X012071Y017109D02*
X011254Y017109D01*
X010911Y017109D02*
X010874Y017109D01*
X010874Y016951D02*
X010911Y016951D01*
X010911Y016792D02*
X010874Y016792D01*
X010874Y016634D02*
X010911Y016634D01*
X010874Y016512D02*
X010874Y016475D01*
X010516Y016475D01*
X010516Y015928D01*
X010528Y015882D01*
X010552Y015841D01*
X010516Y016000D02*
X010129Y016000D01*
X010129Y016158D02*
X010516Y016158D01*
X010516Y016317D02*
X010221Y016317D01*
X010266Y016792D02*
X010516Y016792D01*
X010516Y016951D02*
X010266Y016951D01*
X010266Y017109D02*
X010531Y017109D01*
X010516Y016512D02*
X010874Y016512D01*
X010874Y016475D02*
X010911Y016475D01*
X010911Y016317D02*
X010874Y016317D01*
X010874Y016158D02*
X010911Y016158D01*
X010911Y016000D02*
X010874Y016000D01*
X010874Y015841D02*
X010911Y015841D01*
X011233Y015841D02*
X011257Y015882D01*
X011269Y015928D01*
X011269Y016158D02*
X012071Y016158D01*
X012116Y015207D02*
X010129Y015207D01*
X010129Y015049D02*
X011958Y015049D01*
X011799Y014890D02*
X010129Y014890D01*
X010129Y014732D02*
X011641Y014732D01*
X011482Y014573D02*
X010680Y014573D01*
X010680Y014415D02*
X011324Y014415D01*
X011165Y014256D02*
X010680Y014256D01*
X010680Y014098D02*
X011007Y014098D01*
X010848Y013939D02*
X010680Y013939D01*
X010680Y013781D02*
X010690Y013781D01*
X010680Y012375D02*
X010680Y009875D01*
X009930Y009125D01*
X009180Y008875D02*
X009930Y008125D01*
X009180Y008875D02*
X009180Y011375D01*
X013893Y016088D01*
X013893Y016507D01*
X013893Y018743D01*
X013420Y019645D02*
X011049Y019645D01*
X011196Y019804D02*
X013305Y019804D01*
X013240Y019962D02*
X011262Y019962D01*
X011280Y020121D02*
X013230Y020121D01*
X013236Y020279D02*
X011266Y020279D01*
X011200Y020438D02*
X013302Y020438D01*
X013411Y020596D02*
X011057Y020596D01*
X011040Y020755D02*
X013621Y020755D01*
X014450Y021864D02*
X016400Y021864D01*
X016400Y021706D02*
X014609Y021706D01*
X014767Y021547D02*
X016400Y021547D01*
X016400Y021389D02*
X014926Y021389D01*
X015084Y021230D02*
X016400Y021230D01*
X016400Y021072D02*
X015243Y021072D01*
X015401Y020913D02*
X016400Y020913D01*
X016400Y020755D02*
X015560Y020755D01*
X015718Y020596D02*
X016400Y020596D01*
X016400Y020438D02*
X015877Y020438D01*
X016035Y020279D02*
X016400Y020279D01*
X016400Y020121D02*
X016194Y020121D01*
X016352Y019962D02*
X016447Y019962D01*
X016511Y019804D02*
X017605Y019804D01*
X017764Y019645D02*
X016669Y019645D01*
X016828Y019487D02*
X017900Y019487D01*
X017900Y019328D02*
X016986Y019328D01*
X017145Y019170D02*
X017900Y019170D01*
X017900Y019011D02*
X017303Y019011D01*
X017462Y018853D02*
X017900Y018853D01*
X017900Y018694D02*
X017620Y018694D01*
X017779Y018536D02*
X017900Y018536D01*
X016400Y022023D02*
X014292Y022023D01*
X014133Y022181D02*
X016400Y022181D01*
X016400Y022340D02*
X013975Y022340D01*
X013816Y022498D02*
X015490Y022498D01*
X015478Y022503D02*
X015609Y022449D01*
X015751Y022449D01*
X015882Y022503D01*
X015983Y022604D01*
X016037Y022735D01*
X016037Y022877D01*
X015983Y023009D01*
X015882Y023109D01*
X015751Y023164D01*
X015609Y023164D01*
X015478Y023109D01*
X015377Y023009D01*
X015323Y022877D01*
X015323Y022735D01*
X015377Y022604D01*
X015478Y022503D01*
X015355Y022657D02*
X013658Y022657D01*
X013540Y022815D02*
X013794Y022815D01*
X013826Y022783D02*
X013708Y022900D01*
X013708Y023381D01*
X013826Y023498D01*
X014779Y023498D01*
X014896Y023381D01*
X014896Y022900D01*
X014779Y022783D01*
X013826Y022783D01*
X013708Y022974D02*
X013540Y022974D01*
X013540Y023132D02*
X013708Y023132D01*
X013708Y023291D02*
X013540Y023291D01*
X013540Y023449D02*
X013776Y023449D01*
X013540Y023608D02*
X016400Y023608D01*
X016400Y023766D02*
X014376Y023766D01*
X014828Y023449D02*
X016400Y023449D01*
X016400Y023291D02*
X014896Y023291D01*
X014896Y023132D02*
X015533Y023132D01*
X015362Y022974D02*
X014896Y022974D01*
X014810Y022815D02*
X015323Y022815D01*
X015827Y023132D02*
X016400Y023132D01*
X016400Y022974D02*
X015998Y022974D01*
X016037Y022815D02*
X016400Y022815D01*
X016400Y022657D02*
X016005Y022657D01*
X015870Y022498D02*
X016400Y022498D01*
X016400Y023925D02*
X014896Y023925D01*
X014896Y024083D02*
X016400Y024083D01*
X016400Y024242D02*
X014896Y024242D01*
X014861Y024400D02*
X016400Y024400D01*
X016400Y024559D02*
X013623Y024559D01*
X013781Y024717D02*
X016400Y024717D01*
X016400Y024876D02*
X014896Y024876D01*
X014896Y025034D02*
X016400Y025034D01*
X016400Y025193D02*
X015934Y025193D01*
X016028Y025351D02*
X016400Y025351D01*
X016400Y025510D02*
X016037Y025510D01*
X015961Y025668D02*
X016400Y025668D01*
X014400Y028838D02*
X014383Y028838D01*
X014347Y029948D02*
X014400Y029948D01*
X014400Y030106D02*
X003960Y030106D01*
X003960Y029948D02*
X004013Y029948D01*
X003960Y030265D02*
X014400Y030265D01*
X014400Y030423D02*
X003960Y030423D01*
X004033Y030582D02*
X014327Y030582D01*
X014169Y030740D02*
X004191Y030740D01*
X004725Y025805D02*
X004725Y025420D01*
X005360Y025420D01*
X005360Y025649D01*
X005348Y025694D01*
X005324Y025736D01*
X005291Y025769D01*
X005249Y025793D01*
X005204Y025805D01*
X004725Y025805D01*
X004725Y025668D02*
X004635Y025668D01*
X004635Y025510D02*
X004725Y025510D01*
X004725Y025193D02*
X004635Y025193D01*
X004635Y025034D02*
X004725Y025034D01*
X005360Y025510D02*
X009150Y025510D01*
X009150Y025668D02*
X005355Y025668D01*
X004063Y023291D02*
X003960Y023291D01*
X003960Y023132D02*
X003980Y023132D01*
X003980Y022974D02*
X003960Y022974D01*
X003960Y022815D02*
X003980Y022815D01*
X003980Y022657D02*
X003960Y022657D01*
X003960Y022498D02*
X004024Y022498D01*
X003960Y022340D02*
X005819Y022340D01*
X005978Y022181D02*
X003960Y022181D01*
X003960Y022023D02*
X006136Y022023D01*
X006295Y021864D02*
X003960Y021864D01*
X003960Y021706D02*
X006400Y021706D01*
X006400Y021547D02*
X003960Y021547D01*
X003960Y021389D02*
X006400Y021389D01*
X006400Y021230D02*
X003960Y021230D01*
X003960Y021072D02*
X006400Y021072D01*
X006400Y020913D02*
X003864Y020913D01*
X004121Y020755D02*
X000706Y020755D01*
X000547Y020596D02*
X003911Y020596D01*
X003802Y020438D02*
X000460Y020438D01*
X000460Y020279D02*
X003736Y020279D01*
X003730Y020121D02*
X000460Y020121D01*
X000460Y019962D02*
X003740Y019962D01*
X003805Y019804D02*
X000460Y019804D01*
X000460Y019645D02*
X003920Y019645D01*
X004142Y019487D02*
X000460Y019487D01*
X000460Y019328D02*
X001385Y019328D01*
X001385Y019170D02*
X001170Y019170D01*
X000762Y018536D02*
X000460Y018536D01*
X000460Y018694D02*
X000596Y018694D01*
X000552Y018853D02*
X000460Y018853D01*
X000460Y019011D02*
X000577Y019011D01*
X000690Y019170D02*
X000460Y019170D01*
X000460Y017743D02*
X000902Y017743D01*
X000744Y017585D02*
X000460Y017585D01*
X000460Y017426D02*
X000585Y017426D01*
X000680Y017125D02*
X001180Y017625D01*
X001219Y017268D02*
X001385Y017268D01*
X001385Y017109D02*
X001060Y017109D01*
X000960Y016951D02*
X001385Y016951D01*
X001385Y016792D02*
X000960Y016792D01*
X000960Y016634D02*
X001411Y016634D01*
X001405Y016475D02*
X000960Y016475D01*
X000960Y016317D02*
X001405Y016317D01*
X001405Y016158D02*
X000960Y016158D01*
X000960Y016000D02*
X001405Y016000D01*
X001492Y015841D02*
X000960Y015841D01*
X000960Y015683D02*
X003842Y015683D01*
X004000Y015841D02*
X003233Y015841D01*
X003257Y015882D01*
X003269Y015928D01*
X003269Y016475D01*
X002911Y016475D01*
X004071Y016475D01*
X004071Y016317D02*
X003269Y016317D01*
X003269Y016158D02*
X004071Y016158D01*
X004071Y016000D02*
X003269Y016000D01*
X003233Y015841D02*
X003200Y015808D01*
X003159Y015784D01*
X003113Y015772D01*
X002911Y015772D01*
X002911Y016475D01*
X002911Y016512D01*
X002874Y016512D01*
X002874Y016475D01*
X002355Y016475D01*
X002355Y016317D02*
X002516Y016317D01*
X002516Y016475D02*
X002516Y015928D01*
X002528Y015882D01*
X002552Y015841D01*
X002268Y015841D01*
X002286Y015851D02*
X002319Y015885D01*
X002343Y015926D01*
X002355Y015971D01*
X002355Y016203D01*
X001928Y016203D01*
X001928Y015815D01*
X002199Y015815D01*
X002245Y015827D01*
X002286Y015851D01*
X002355Y016000D02*
X002516Y016000D01*
X002516Y016158D02*
X002355Y016158D01*
X002516Y016475D02*
X002874Y016475D01*
X002911Y016475D01*
X002911Y016512D02*
X003269Y016512D01*
X003269Y017058D01*
X003257Y017104D01*
X003233Y017145D01*
X003200Y017178D01*
X003159Y017202D01*
X003113Y017214D01*
X002911Y017214D01*
X002911Y016512D01*
X002874Y016475D02*
X002874Y015772D01*
X002672Y015772D01*
X002626Y015784D01*
X002585Y015808D01*
X002552Y015841D01*
X002874Y015841D02*
X002911Y015841D01*
X002911Y016000D02*
X002874Y016000D01*
X002874Y016158D02*
X002911Y016158D01*
X002911Y016317D02*
X002874Y016317D01*
X002874Y016634D02*
X002911Y016634D01*
X002911Y016792D02*
X002874Y016792D01*
X002874Y016951D02*
X002911Y016951D01*
X002911Y017109D02*
X002874Y017109D01*
X003254Y017109D02*
X004071Y017109D01*
X004071Y016951D02*
X003269Y016951D01*
X003269Y016792D02*
X004071Y016792D01*
X004071Y016634D02*
X003269Y016634D01*
X003683Y015524D02*
X000960Y015524D01*
X000960Y015366D02*
X003525Y015366D01*
X003366Y015207D02*
X000960Y015207D01*
X000960Y015049D02*
X003208Y015049D01*
X003049Y014890D02*
X000960Y014890D01*
X000969Y014732D02*
X002891Y014732D01*
X002680Y013625D02*
X004680Y015625D01*
X005680Y015625D01*
X006091Y014890D02*
X009569Y014890D01*
X009569Y014732D02*
X004683Y014732D01*
X006250Y015049D02*
X009569Y015049D01*
X009569Y015207D02*
X006408Y015207D01*
X006960Y017426D02*
X009545Y017426D01*
X009467Y017902D02*
X008893Y017902D01*
X008927Y017936D02*
X008927Y018889D01*
X008810Y019006D01*
X008211Y019006D01*
X008094Y018889D01*
X008094Y017936D01*
X008211Y017819D01*
X008810Y017819D01*
X008927Y017936D01*
X008927Y018060D02*
X009433Y018060D01*
X009433Y018219D02*
X008927Y018219D01*
X008927Y018377D02*
X009433Y018377D01*
X009433Y018536D02*
X008927Y018536D01*
X008927Y018694D02*
X009433Y018694D01*
X009433Y018853D02*
X008927Y018853D01*
X009049Y019645D02*
X009354Y019645D01*
X009197Y019804D02*
X009196Y019804D01*
X009280Y020045D02*
X009280Y020205D01*
X009600Y020205D01*
X009600Y020700D01*
X009544Y020691D01*
X009457Y020663D01*
X009376Y020621D01*
X009302Y020567D01*
X009238Y020503D01*
X009196Y020446D01*
X009189Y020465D01*
X009020Y020634D01*
X008960Y020658D01*
X008960Y020870D01*
X009001Y020911D01*
X009058Y021050D01*
X009058Y021107D01*
X010089Y022138D01*
X010124Y022173D01*
X010125Y022171D01*
X010226Y022070D01*
X010320Y021976D01*
X010320Y021244D01*
X010302Y021200D01*
X010302Y021050D01*
X010320Y021006D01*
X010320Y020614D01*
X010171Y020465D01*
X010164Y020446D01*
X010122Y020503D01*
X010058Y020567D01*
X009984Y020621D01*
X009903Y020663D01*
X009816Y020691D01*
X009760Y020700D01*
X009760Y020205D01*
X009600Y020205D01*
X009600Y020045D01*
X009280Y020045D01*
X009280Y020121D02*
X009600Y020121D01*
X009600Y020279D02*
X009760Y020279D01*
X009760Y020121D02*
X010080Y020121D01*
X009760Y019962D02*
X009600Y019962D01*
X009600Y019804D02*
X009760Y019804D01*
X009760Y019645D02*
X009600Y019645D01*
X009782Y019487D02*
X006960Y019487D01*
X006960Y019645D02*
X007311Y019645D01*
X007247Y019478D02*
X007201Y019466D01*
X007160Y019442D01*
X007127Y019409D01*
X007103Y019368D01*
X007091Y019322D01*
X007091Y018775D01*
X007449Y018775D01*
X007449Y018738D01*
X007486Y018738D01*
X007486Y018036D01*
X007688Y018036D01*
X007734Y018048D01*
X007775Y018072D01*
X007808Y018105D01*
X007832Y018146D01*
X007844Y018192D01*
X007844Y018738D01*
X007486Y018738D01*
X007486Y018775D01*
X007844Y018775D01*
X007844Y019322D01*
X007832Y019368D01*
X007808Y019409D01*
X007775Y019442D01*
X007734Y019466D01*
X007688Y019478D01*
X007486Y019478D01*
X007486Y018775D01*
X007449Y018775D01*
X007449Y019478D01*
X007247Y019478D01*
X007092Y019328D02*
X006960Y019328D01*
X006960Y019170D02*
X007091Y019170D01*
X007091Y019011D02*
X006960Y019011D01*
X006960Y018853D02*
X007091Y018853D01*
X007091Y018738D02*
X007091Y018192D01*
X007103Y018146D01*
X007127Y018105D01*
X007160Y018072D01*
X007201Y018048D01*
X007247Y018036D01*
X007449Y018036D01*
X007449Y018738D01*
X007091Y018738D01*
X007091Y018694D02*
X006960Y018694D01*
X006960Y018536D02*
X007091Y018536D01*
X007091Y018377D02*
X006960Y018377D01*
X006960Y018219D02*
X007091Y018219D01*
X007180Y018060D02*
X006960Y018060D01*
X006960Y017902D02*
X008129Y017902D01*
X008094Y018060D02*
X007755Y018060D01*
X007844Y018219D02*
X008094Y018219D01*
X008094Y018377D02*
X007844Y018377D01*
X007844Y018536D02*
X008094Y018536D01*
X008094Y018694D02*
X007844Y018694D01*
X007844Y018853D02*
X008094Y018853D01*
X007844Y019011D02*
X009489Y019011D01*
X009512Y019170D02*
X007844Y019170D01*
X007843Y019328D02*
X009624Y019328D01*
X010266Y018853D02*
X010516Y018853D01*
X010516Y019011D02*
X010325Y019011D01*
X010484Y019170D02*
X010516Y019170D01*
X010516Y018694D02*
X010266Y018694D01*
X010266Y018536D02*
X010516Y018536D01*
X010516Y018377D02*
X010266Y018377D01*
X010266Y018219D02*
X010516Y018219D01*
X010605Y018060D02*
X010266Y018060D01*
X010231Y017902D02*
X012187Y017902D01*
X012187Y017743D02*
X006960Y017743D01*
X006960Y017585D02*
X012187Y017585D01*
X012187Y017426D02*
X010154Y017426D01*
X010266Y017268D02*
X012187Y017268D01*
X012071Y018853D02*
X011269Y018853D01*
X011269Y019011D02*
X012071Y019011D01*
X012071Y019170D02*
X011269Y019170D01*
X011268Y019328D02*
X012071Y019328D01*
X010303Y020596D02*
X010018Y020596D01*
X009760Y020596D02*
X009600Y020596D01*
X009600Y020438D02*
X009760Y020438D01*
X009342Y020596D02*
X009057Y020596D01*
X008960Y020755D02*
X010320Y020755D01*
X010320Y020913D02*
X009001Y020913D01*
X009058Y021072D02*
X010302Y021072D01*
X010314Y021230D02*
X009181Y021230D01*
X009340Y021389D02*
X010320Y021389D01*
X010320Y021547D02*
X009498Y021547D01*
X009657Y021706D02*
X010320Y021706D01*
X010320Y021864D02*
X009815Y021864D01*
X009974Y022023D02*
X010273Y022023D01*
X010089Y022138D02*
X010089Y022138D01*
X009930Y022375D02*
X009930Y027375D01*
X010065Y027729D02*
X010124Y027729D01*
X010258Y027570D02*
X010282Y027570D01*
X010308Y027412D02*
X010441Y027412D01*
X010289Y027253D02*
X010599Y027253D01*
X010758Y027095D02*
X010210Y027095D01*
X010210Y026936D02*
X010916Y026936D01*
X011075Y026778D02*
X010210Y026778D01*
X010210Y026619D02*
X011233Y026619D01*
X011392Y026461D02*
X010210Y026461D01*
X010210Y026302D02*
X011354Y026302D01*
X011200Y026144D02*
X010210Y026144D01*
X010210Y025985D02*
X011134Y025985D01*
X011130Y025827D02*
X010210Y025827D01*
X010672Y025668D02*
X011175Y025668D01*
X011288Y025510D02*
X010784Y025510D01*
X010808Y025351D02*
X011473Y025351D01*
X011531Y025375D02*
X012227Y025375D01*
X012227Y025375D01*
X011531Y025375D01*
X011240Y025193D02*
X010790Y025193D01*
X010790Y025034D02*
X011155Y025034D01*
X011130Y024876D02*
X010790Y024876D01*
X010790Y024717D02*
X011154Y024717D01*
X011239Y024559D02*
X010790Y024559D01*
X010790Y024400D02*
X011470Y024400D01*
X009930Y022375D02*
X008680Y021125D01*
X008680Y020125D01*
X008311Y019645D02*
X008049Y019645D01*
X007680Y020125D02*
X007680Y020875D01*
X009430Y022625D01*
X009430Y027625D01*
X009703Y027887D02*
X009965Y027887D01*
X009150Y023132D02*
X005958Y023132D01*
X006048Y022974D02*
X009150Y022974D01*
X009150Y022815D02*
X006136Y022815D01*
X006294Y022657D02*
X009066Y022657D01*
X008907Y022498D02*
X006453Y022498D01*
X006611Y022340D02*
X008749Y022340D01*
X008590Y022181D02*
X006770Y022181D01*
X006922Y022023D02*
X008432Y022023D01*
X008273Y021864D02*
X006960Y021864D01*
X006960Y021706D02*
X008115Y021706D01*
X007956Y021547D02*
X006960Y021547D01*
X006960Y021389D02*
X007798Y021389D01*
X007549Y021230D02*
X006960Y021230D01*
X006960Y021072D02*
X007352Y021072D01*
X007302Y020913D02*
X006960Y020913D01*
X006960Y020755D02*
X007321Y020755D01*
X007303Y020596D02*
X006960Y020596D01*
X006960Y020438D02*
X007160Y020438D01*
X007094Y020279D02*
X006960Y020279D01*
X006960Y020121D02*
X007080Y020121D01*
X007098Y019962D02*
X006960Y019962D01*
X006960Y019804D02*
X007164Y019804D01*
X007449Y019328D02*
X007486Y019328D01*
X007486Y019170D02*
X007449Y019170D01*
X007449Y019011D02*
X007486Y019011D01*
X007486Y018853D02*
X007449Y018853D01*
X007449Y018694D02*
X007486Y018694D01*
X007486Y018536D02*
X007449Y018536D01*
X007449Y018377D02*
X007486Y018377D01*
X007486Y018219D02*
X007449Y018219D01*
X007449Y018060D02*
X007486Y018060D01*
X006400Y018853D02*
X006289Y018853D01*
X006289Y019011D02*
X006400Y019011D01*
X006400Y019170D02*
X006289Y019170D01*
X006289Y019328D02*
X006400Y019328D01*
X006400Y019487D02*
X004718Y019487D01*
X004864Y019328D02*
X005496Y019328D01*
X005496Y019170D02*
X004864Y019170D01*
X004864Y019011D02*
X005496Y019011D01*
X005496Y018853D02*
X004864Y018853D01*
X004864Y018694D02*
X005496Y018694D01*
X005496Y018536D02*
X004864Y018536D01*
X004864Y018377D02*
X005496Y018377D01*
X005496Y018219D02*
X004864Y018219D01*
X004805Y018060D02*
X005555Y018060D01*
X004940Y019645D02*
X006400Y019645D01*
X006400Y019804D02*
X005055Y019804D01*
X005120Y019962D02*
X006400Y019962D01*
X006400Y020121D02*
X005130Y020121D01*
X005124Y020279D02*
X006400Y020279D01*
X006400Y020438D02*
X005058Y020438D01*
X004949Y020596D02*
X006400Y020596D01*
X006400Y020755D02*
X004739Y020755D01*
X005336Y022498D02*
X005602Y022498D01*
X005680Y022875D02*
X004680Y022875D01*
X001880Y018251D02*
X001930Y018201D01*
X001930Y017625D01*
X002375Y016792D02*
X002516Y016792D01*
X002516Y016634D02*
X002349Y016634D01*
X001928Y016158D02*
X001832Y016158D01*
X001832Y016000D02*
X001928Y016000D01*
X001928Y015841D02*
X001832Y015841D01*
X000680Y014625D02*
X000680Y017125D01*
X000680Y014625D02*
X001680Y013625D01*
X001680Y010875D01*
X000930Y010125D01*
X000930Y009125D02*
X002180Y010375D01*
X001680Y008875D02*
X000930Y008125D01*
X000930Y007125D02*
X002180Y008375D01*
X002680Y007875D02*
X000930Y006125D01*
X000570Y003637D02*
X000460Y003637D01*
X000600Y001101D02*
X011144Y001101D01*
X011264Y000942D02*
X000759Y000942D01*
X002680Y007875D02*
X002680Y013625D01*
X008482Y016317D02*
X008539Y016317D01*
X008539Y016475D02*
X008482Y016475D01*
X011914Y010928D02*
X012446Y010928D01*
X012225Y010769D02*
X012135Y010769D01*
X012130Y009977D02*
X012230Y009977D01*
X012457Y009818D02*
X011903Y009818D01*
X012903Y009818D02*
X014070Y009818D01*
X014070Y009977D02*
X013130Y009977D01*
X013135Y010769D02*
X014070Y010769D01*
X014070Y010611D02*
X013979Y010611D01*
X014057Y010452D02*
X014070Y010452D01*
X014056Y010294D02*
X014070Y010294D01*
X014070Y010135D02*
X013975Y010135D01*
X014070Y010928D02*
X012914Y010928D01*
X013893Y016487D02*
X013893Y016507D01*
X013559Y023766D02*
X013540Y023766D01*
X013459Y025668D02*
X013426Y025668D01*
X011456Y002686D02*
X010750Y002686D01*
X010531Y002527D02*
X011334Y002527D01*
D11*
X013430Y020125D02*
X013432Y020169D01*
X013438Y020213D01*
X013448Y020256D01*
X013461Y020298D01*
X013478Y020339D01*
X013499Y020378D01*
X013523Y020415D01*
X013550Y020450D01*
X013580Y020482D01*
X013613Y020512D01*
X013649Y020538D01*
X013686Y020562D01*
X013726Y020581D01*
X013767Y020598D01*
X013810Y020610D01*
X013853Y020619D01*
X013897Y020624D01*
X013941Y020625D01*
X013985Y020622D01*
X014029Y020615D01*
X014072Y020604D01*
X014114Y020590D01*
X014154Y020572D01*
X014193Y020550D01*
X014229Y020526D01*
X014263Y020498D01*
X014295Y020467D01*
X014324Y020433D01*
X014350Y020397D01*
X014372Y020359D01*
X014391Y020319D01*
X014406Y020277D01*
X014418Y020235D01*
X014426Y020191D01*
X014430Y020147D01*
X014430Y020103D01*
X014426Y020059D01*
X014418Y020015D01*
X014406Y019973D01*
X014391Y019931D01*
X014372Y019891D01*
X014350Y019853D01*
X014324Y019817D01*
X014295Y019783D01*
X014263Y019752D01*
X014229Y019724D01*
X014193Y019700D01*
X014154Y019678D01*
X014114Y019660D01*
X014072Y019646D01*
X014029Y019635D01*
X013985Y019628D01*
X013941Y019625D01*
X013897Y019626D01*
X013853Y019631D01*
X013810Y019640D01*
X013767Y019652D01*
X013726Y019669D01*
X013686Y019688D01*
X013649Y019712D01*
X013613Y019738D01*
X013580Y019768D01*
X013550Y019800D01*
X013523Y019835D01*
X013499Y019872D01*
X013478Y019911D01*
X013461Y019952D01*
X013448Y019994D01*
X013438Y020037D01*
X013432Y020081D01*
X013430Y020125D01*
X015523Y022806D02*
X015525Y022831D01*
X015531Y022855D01*
X015540Y022877D01*
X015553Y022898D01*
X015569Y022917D01*
X015588Y022933D01*
X015609Y022946D01*
X015631Y022955D01*
X015655Y022961D01*
X015680Y022963D01*
X015705Y022961D01*
X015729Y022955D01*
X015751Y022946D01*
X015772Y022933D01*
X015791Y022917D01*
X015807Y022898D01*
X015820Y022877D01*
X015829Y022855D01*
X015835Y022831D01*
X015837Y022806D01*
X015835Y022781D01*
X015829Y022757D01*
X015820Y022735D01*
X015807Y022714D01*
X015791Y022695D01*
X015772Y022679D01*
X015751Y022666D01*
X015729Y022657D01*
X015705Y022651D01*
X015680Y022649D01*
X015655Y022651D01*
X015631Y022657D01*
X015609Y022666D01*
X015588Y022679D01*
X015569Y022695D01*
X015553Y022714D01*
X015540Y022735D01*
X015531Y022757D01*
X015525Y022781D01*
X015523Y022806D01*
X015523Y025444D02*
X015525Y025469D01*
X015531Y025493D01*
X015540Y025515D01*
X015553Y025536D01*
X015569Y025555D01*
X015588Y025571D01*
X015609Y025584D01*
X015631Y025593D01*
X015655Y025599D01*
X015680Y025601D01*
X015705Y025599D01*
X015729Y025593D01*
X015751Y025584D01*
X015772Y025571D01*
X015791Y025555D01*
X015807Y025536D01*
X015820Y025515D01*
X015829Y025493D01*
X015835Y025469D01*
X015837Y025444D01*
X015835Y025419D01*
X015829Y025395D01*
X015820Y025373D01*
X015807Y025352D01*
X015791Y025333D01*
X015772Y025317D01*
X015751Y025304D01*
X015729Y025295D01*
X015705Y025289D01*
X015680Y025287D01*
X015655Y025289D01*
X015631Y025295D01*
X015609Y025304D01*
X015588Y025317D01*
X015569Y025333D01*
X015553Y025352D01*
X015540Y025373D01*
X015531Y025395D01*
X015525Y025419D01*
X015523Y025444D01*
X013430Y029375D02*
X013432Y029419D01*
X013438Y029463D01*
X013448Y029506D01*
X013461Y029548D01*
X013478Y029589D01*
X013499Y029628D01*
X013523Y029665D01*
X013550Y029700D01*
X013580Y029732D01*
X013613Y029762D01*
X013649Y029788D01*
X013686Y029812D01*
X013726Y029831D01*
X013767Y029848D01*
X013810Y029860D01*
X013853Y029869D01*
X013897Y029874D01*
X013941Y029875D01*
X013985Y029872D01*
X014029Y029865D01*
X014072Y029854D01*
X014114Y029840D01*
X014154Y029822D01*
X014193Y029800D01*
X014229Y029776D01*
X014263Y029748D01*
X014295Y029717D01*
X014324Y029683D01*
X014350Y029647D01*
X014372Y029609D01*
X014391Y029569D01*
X014406Y029527D01*
X014418Y029485D01*
X014426Y029441D01*
X014430Y029397D01*
X014430Y029353D01*
X014426Y029309D01*
X014418Y029265D01*
X014406Y029223D01*
X014391Y029181D01*
X014372Y029141D01*
X014350Y029103D01*
X014324Y029067D01*
X014295Y029033D01*
X014263Y029002D01*
X014229Y028974D01*
X014193Y028950D01*
X014154Y028928D01*
X014114Y028910D01*
X014072Y028896D01*
X014029Y028885D01*
X013985Y028878D01*
X013941Y028875D01*
X013897Y028876D01*
X013853Y028881D01*
X013810Y028890D01*
X013767Y028902D01*
X013726Y028919D01*
X013686Y028938D01*
X013649Y028962D01*
X013613Y028988D01*
X013580Y029018D01*
X013550Y029050D01*
X013523Y029085D01*
X013499Y029122D01*
X013478Y029161D01*
X013461Y029202D01*
X013448Y029244D01*
X013438Y029287D01*
X013432Y029331D01*
X013430Y029375D01*
X003930Y029375D02*
X003932Y029419D01*
X003938Y029463D01*
X003948Y029506D01*
X003961Y029548D01*
X003978Y029589D01*
X003999Y029628D01*
X004023Y029665D01*
X004050Y029700D01*
X004080Y029732D01*
X004113Y029762D01*
X004149Y029788D01*
X004186Y029812D01*
X004226Y029831D01*
X004267Y029848D01*
X004310Y029860D01*
X004353Y029869D01*
X004397Y029874D01*
X004441Y029875D01*
X004485Y029872D01*
X004529Y029865D01*
X004572Y029854D01*
X004614Y029840D01*
X004654Y029822D01*
X004693Y029800D01*
X004729Y029776D01*
X004763Y029748D01*
X004795Y029717D01*
X004824Y029683D01*
X004850Y029647D01*
X004872Y029609D01*
X004891Y029569D01*
X004906Y029527D01*
X004918Y029485D01*
X004926Y029441D01*
X004930Y029397D01*
X004930Y029353D01*
X004926Y029309D01*
X004918Y029265D01*
X004906Y029223D01*
X004891Y029181D01*
X004872Y029141D01*
X004850Y029103D01*
X004824Y029067D01*
X004795Y029033D01*
X004763Y029002D01*
X004729Y028974D01*
X004693Y028950D01*
X004654Y028928D01*
X004614Y028910D01*
X004572Y028896D01*
X004529Y028885D01*
X004485Y028878D01*
X004441Y028875D01*
X004397Y028876D01*
X004353Y028881D01*
X004310Y028890D01*
X004267Y028902D01*
X004226Y028919D01*
X004186Y028938D01*
X004149Y028962D01*
X004113Y028988D01*
X004080Y029018D01*
X004050Y029050D01*
X004023Y029085D01*
X003999Y029122D01*
X003978Y029161D01*
X003961Y029202D01*
X003948Y029244D01*
X003938Y029287D01*
X003932Y029331D01*
X003930Y029375D01*
X003930Y020125D02*
X003932Y020169D01*
X003938Y020213D01*
X003948Y020256D01*
X003961Y020298D01*
X003978Y020339D01*
X003999Y020378D01*
X004023Y020415D01*
X004050Y020450D01*
X004080Y020482D01*
X004113Y020512D01*
X004149Y020538D01*
X004186Y020562D01*
X004226Y020581D01*
X004267Y020598D01*
X004310Y020610D01*
X004353Y020619D01*
X004397Y020624D01*
X004441Y020625D01*
X004485Y020622D01*
X004529Y020615D01*
X004572Y020604D01*
X004614Y020590D01*
X004654Y020572D01*
X004693Y020550D01*
X004729Y020526D01*
X004763Y020498D01*
X004795Y020467D01*
X004824Y020433D01*
X004850Y020397D01*
X004872Y020359D01*
X004891Y020319D01*
X004906Y020277D01*
X004918Y020235D01*
X004926Y020191D01*
X004930Y020147D01*
X004930Y020103D01*
X004926Y020059D01*
X004918Y020015D01*
X004906Y019973D01*
X004891Y019931D01*
X004872Y019891D01*
X004850Y019853D01*
X004824Y019817D01*
X004795Y019783D01*
X004763Y019752D01*
X004729Y019724D01*
X004693Y019700D01*
X004654Y019678D01*
X004614Y019660D01*
X004572Y019646D01*
X004529Y019635D01*
X004485Y019628D01*
X004441Y019625D01*
X004397Y019626D01*
X004353Y019631D01*
X004310Y019640D01*
X004267Y019652D01*
X004226Y019669D01*
X004186Y019688D01*
X004149Y019712D01*
X004113Y019738D01*
X004080Y019768D01*
X004050Y019800D01*
X004023Y019835D01*
X003999Y019872D01*
X003978Y019911D01*
X003961Y019952D01*
X003948Y019994D01*
X003938Y020037D01*
X003932Y020081D01*
X003930Y020125D01*
D12*
X004467Y018743D03*
X004467Y016507D03*
X005893Y016507D03*
X005893Y018743D03*
X007467Y018757D03*
X007467Y016493D03*
X010893Y016493D03*
X010893Y018757D03*
X012467Y018743D03*
X012467Y016507D03*
X013893Y016507D03*
X013893Y018743D03*
X015467Y018757D03*
X015467Y016493D03*
X002893Y016493D03*
X002893Y018757D03*
D13*
X008511Y018412D03*
X008511Y016838D03*
X009849Y016838D03*
X009849Y018412D03*
D14*
X009680Y020125D03*
X008680Y020125D03*
X007680Y020125D03*
X010680Y020125D03*
X009930Y011125D03*
X009930Y010125D03*
X009930Y009125D03*
X009930Y008125D03*
X009930Y007125D03*
X009930Y006125D03*
X009930Y005125D03*
X009930Y004125D03*
X011680Y001375D03*
X011680Y010375D03*
X012680Y010375D03*
X016180Y010375D03*
X017180Y010375D03*
X017180Y012125D03*
X017180Y014125D03*
X017180Y015125D03*
X017180Y001375D03*
X000930Y004125D03*
X000930Y005125D03*
X000930Y006125D03*
X000930Y007125D03*
X000930Y008125D03*
X000930Y009125D03*
X000930Y010125D03*
X000930Y011125D03*
D15*
X011630Y024875D02*
X012230Y024875D01*
X012230Y025875D02*
X011630Y025875D01*
D16*
X013930Y026025D03*
X013930Y026625D03*
X013930Y027225D03*
D17*
X001880Y018999D03*
X001880Y018251D03*
X001880Y016999D03*
X001880Y016251D03*
D18*
X017180Y013125D03*
D19*
X014302Y023141D03*
X014302Y024125D03*
X014302Y025109D03*
D20*
X016680Y017625D03*
X016680Y016625D03*
X004680Y022875D03*
X004680Y025375D03*
D21*
X005680Y025375D03*
X005680Y022875D03*
X007680Y020875D03*
X008680Y021125D03*
X009680Y021125D03*
X010680Y021125D03*
X011680Y017625D03*
X009180Y017625D03*
X010430Y025375D03*
X009930Y027375D03*
X009430Y027625D03*
X009930Y028875D03*
X013680Y024125D03*
X015430Y017625D03*
X016180Y013125D03*
X016680Y011125D03*
X015180Y010375D03*
X013680Y010375D03*
X010930Y005125D03*
X011680Y002375D03*
X009930Y001375D03*
X008680Y004125D03*
X002180Y008375D03*
X001680Y008875D03*
X001680Y004125D03*
X000930Y001375D03*
X002930Y017625D03*
X000930Y018875D03*
X016430Y002125D03*
D22*
X014430Y006875D02*
X010430Y002875D01*
X002930Y002875D01*
X001680Y004125D01*
X000930Y004125D01*
X008680Y004125D02*
X009930Y004125D01*
X011680Y002375D02*
X011680Y001375D01*
X014430Y006875D02*
X014430Y010875D01*
X015680Y012125D01*
X017180Y012125D01*
X016180Y010375D02*
X015180Y010375D01*
X013680Y010375D02*
X012680Y010375D01*
X011680Y010375D01*
X009849Y018294D02*
X009849Y018412D01*
X009849Y019044D01*
X010680Y019875D01*
X010680Y020125D01*
X010680Y021125D01*
X010680Y022125D01*
X010430Y022375D01*
X010430Y025375D01*
X013180Y024625D02*
X013180Y022625D01*
X017680Y018125D01*
X017680Y015625D01*
X017180Y015125D01*
X017180Y014125D01*
X014302Y024125D02*
X013680Y024125D01*
X013180Y024625D02*
X013664Y025109D01*
X014302Y025109D01*
D23*
X013930Y026025D02*
X013330Y026025D01*
X012180Y024875D01*
X011930Y024875D01*
X011680Y026625D02*
X013930Y026625D01*
X011680Y026625D02*
X009930Y028375D01*
X009930Y028875D01*
M02*
