G75*
%MOIN*%
%OFA0B0*%
%FSLAX24Y24*%
%IPPOS*%
%LPD*%
%AMOC8*
5,1,8,0,0,1.08239X$1,22.5*
%
%ADD10C,0.0160*%
%ADD11C,0.0000*%
D10*
X000180Y001125D02*
X000680Y000625D01*
X017680Y000625D01*
X018180Y001125D01*
X018180Y019625D01*
X017680Y020125D01*
X016680Y020125D01*
X016680Y026125D01*
X016180Y026625D01*
X014680Y026625D01*
X014680Y030625D01*
X014180Y031125D01*
X004180Y031125D01*
X003680Y030625D01*
X003680Y021125D01*
X000680Y021125D01*
X000180Y020625D01*
X000180Y001125D01*
D11*
X003930Y020125D02*
X003932Y020169D01*
X003938Y020213D01*
X003948Y020256D01*
X003961Y020298D01*
X003978Y020339D01*
X003999Y020378D01*
X004023Y020415D01*
X004050Y020450D01*
X004080Y020482D01*
X004113Y020512D01*
X004149Y020538D01*
X004186Y020562D01*
X004226Y020581D01*
X004267Y020598D01*
X004310Y020610D01*
X004353Y020619D01*
X004397Y020624D01*
X004441Y020625D01*
X004485Y020622D01*
X004529Y020615D01*
X004572Y020604D01*
X004614Y020590D01*
X004654Y020572D01*
X004693Y020550D01*
X004729Y020526D01*
X004763Y020498D01*
X004795Y020467D01*
X004824Y020433D01*
X004850Y020397D01*
X004872Y020359D01*
X004891Y020319D01*
X004906Y020277D01*
X004918Y020235D01*
X004926Y020191D01*
X004930Y020147D01*
X004930Y020103D01*
X004926Y020059D01*
X004918Y020015D01*
X004906Y019973D01*
X004891Y019931D01*
X004872Y019891D01*
X004850Y019853D01*
X004824Y019817D01*
X004795Y019783D01*
X004763Y019752D01*
X004729Y019724D01*
X004693Y019700D01*
X004654Y019678D01*
X004614Y019660D01*
X004572Y019646D01*
X004529Y019635D01*
X004485Y019628D01*
X004441Y019625D01*
X004397Y019626D01*
X004353Y019631D01*
X004310Y019640D01*
X004267Y019652D01*
X004226Y019669D01*
X004186Y019688D01*
X004149Y019712D01*
X004113Y019738D01*
X004080Y019768D01*
X004050Y019800D01*
X004023Y019835D01*
X003999Y019872D01*
X003978Y019911D01*
X003961Y019952D01*
X003948Y019994D01*
X003938Y020037D01*
X003932Y020081D01*
X003930Y020125D01*
X003930Y029375D02*
X003932Y029419D01*
X003938Y029463D01*
X003948Y029506D01*
X003961Y029548D01*
X003978Y029589D01*
X003999Y029628D01*
X004023Y029665D01*
X004050Y029700D01*
X004080Y029732D01*
X004113Y029762D01*
X004149Y029788D01*
X004186Y029812D01*
X004226Y029831D01*
X004267Y029848D01*
X004310Y029860D01*
X004353Y029869D01*
X004397Y029874D01*
X004441Y029875D01*
X004485Y029872D01*
X004529Y029865D01*
X004572Y029854D01*
X004614Y029840D01*
X004654Y029822D01*
X004693Y029800D01*
X004729Y029776D01*
X004763Y029748D01*
X004795Y029717D01*
X004824Y029683D01*
X004850Y029647D01*
X004872Y029609D01*
X004891Y029569D01*
X004906Y029527D01*
X004918Y029485D01*
X004926Y029441D01*
X004930Y029397D01*
X004930Y029353D01*
X004926Y029309D01*
X004918Y029265D01*
X004906Y029223D01*
X004891Y029181D01*
X004872Y029141D01*
X004850Y029103D01*
X004824Y029067D01*
X004795Y029033D01*
X004763Y029002D01*
X004729Y028974D01*
X004693Y028950D01*
X004654Y028928D01*
X004614Y028910D01*
X004572Y028896D01*
X004529Y028885D01*
X004485Y028878D01*
X004441Y028875D01*
X004397Y028876D01*
X004353Y028881D01*
X004310Y028890D01*
X004267Y028902D01*
X004226Y028919D01*
X004186Y028938D01*
X004149Y028962D01*
X004113Y028988D01*
X004080Y029018D01*
X004050Y029050D01*
X004023Y029085D01*
X003999Y029122D01*
X003978Y029161D01*
X003961Y029202D01*
X003948Y029244D01*
X003938Y029287D01*
X003932Y029331D01*
X003930Y029375D01*
X013430Y029375D02*
X013432Y029419D01*
X013438Y029463D01*
X013448Y029506D01*
X013461Y029548D01*
X013478Y029589D01*
X013499Y029628D01*
X013523Y029665D01*
X013550Y029700D01*
X013580Y029732D01*
X013613Y029762D01*
X013649Y029788D01*
X013686Y029812D01*
X013726Y029831D01*
X013767Y029848D01*
X013810Y029860D01*
X013853Y029869D01*
X013897Y029874D01*
X013941Y029875D01*
X013985Y029872D01*
X014029Y029865D01*
X014072Y029854D01*
X014114Y029840D01*
X014154Y029822D01*
X014193Y029800D01*
X014229Y029776D01*
X014263Y029748D01*
X014295Y029717D01*
X014324Y029683D01*
X014350Y029647D01*
X014372Y029609D01*
X014391Y029569D01*
X014406Y029527D01*
X014418Y029485D01*
X014426Y029441D01*
X014430Y029397D01*
X014430Y029353D01*
X014426Y029309D01*
X014418Y029265D01*
X014406Y029223D01*
X014391Y029181D01*
X014372Y029141D01*
X014350Y029103D01*
X014324Y029067D01*
X014295Y029033D01*
X014263Y029002D01*
X014229Y028974D01*
X014193Y028950D01*
X014154Y028928D01*
X014114Y028910D01*
X014072Y028896D01*
X014029Y028885D01*
X013985Y028878D01*
X013941Y028875D01*
X013897Y028876D01*
X013853Y028881D01*
X013810Y028890D01*
X013767Y028902D01*
X013726Y028919D01*
X013686Y028938D01*
X013649Y028962D01*
X013613Y028988D01*
X013580Y029018D01*
X013550Y029050D01*
X013523Y029085D01*
X013499Y029122D01*
X013478Y029161D01*
X013461Y029202D01*
X013448Y029244D01*
X013438Y029287D01*
X013432Y029331D01*
X013430Y029375D01*
X015523Y025444D02*
X015525Y025469D01*
X015531Y025493D01*
X015540Y025515D01*
X015553Y025536D01*
X015569Y025555D01*
X015588Y025571D01*
X015609Y025584D01*
X015631Y025593D01*
X015655Y025599D01*
X015680Y025601D01*
X015705Y025599D01*
X015729Y025593D01*
X015751Y025584D01*
X015772Y025571D01*
X015791Y025555D01*
X015807Y025536D01*
X015820Y025515D01*
X015829Y025493D01*
X015835Y025469D01*
X015837Y025444D01*
X015835Y025419D01*
X015829Y025395D01*
X015820Y025373D01*
X015807Y025352D01*
X015791Y025333D01*
X015772Y025317D01*
X015751Y025304D01*
X015729Y025295D01*
X015705Y025289D01*
X015680Y025287D01*
X015655Y025289D01*
X015631Y025295D01*
X015609Y025304D01*
X015588Y025317D01*
X015569Y025333D01*
X015553Y025352D01*
X015540Y025373D01*
X015531Y025395D01*
X015525Y025419D01*
X015523Y025444D01*
X015523Y022806D02*
X015525Y022831D01*
X015531Y022855D01*
X015540Y022877D01*
X015553Y022898D01*
X015569Y022917D01*
X015588Y022933D01*
X015609Y022946D01*
X015631Y022955D01*
X015655Y022961D01*
X015680Y022963D01*
X015705Y022961D01*
X015729Y022955D01*
X015751Y022946D01*
X015772Y022933D01*
X015791Y022917D01*
X015807Y022898D01*
X015820Y022877D01*
X015829Y022855D01*
X015835Y022831D01*
X015837Y022806D01*
X015835Y022781D01*
X015829Y022757D01*
X015820Y022735D01*
X015807Y022714D01*
X015791Y022695D01*
X015772Y022679D01*
X015751Y022666D01*
X015729Y022657D01*
X015705Y022651D01*
X015680Y022649D01*
X015655Y022651D01*
X015631Y022657D01*
X015609Y022666D01*
X015588Y022679D01*
X015569Y022695D01*
X015553Y022714D01*
X015540Y022735D01*
X015531Y022757D01*
X015525Y022781D01*
X015523Y022806D01*
X013430Y020125D02*
X013432Y020169D01*
X013438Y020213D01*
X013448Y020256D01*
X013461Y020298D01*
X013478Y020339D01*
X013499Y020378D01*
X013523Y020415D01*
X013550Y020450D01*
X013580Y020482D01*
X013613Y020512D01*
X013649Y020538D01*
X013686Y020562D01*
X013726Y020581D01*
X013767Y020598D01*
X013810Y020610D01*
X013853Y020619D01*
X013897Y020624D01*
X013941Y020625D01*
X013985Y020622D01*
X014029Y020615D01*
X014072Y020604D01*
X014114Y020590D01*
X014154Y020572D01*
X014193Y020550D01*
X014229Y020526D01*
X014263Y020498D01*
X014295Y020467D01*
X014324Y020433D01*
X014350Y020397D01*
X014372Y020359D01*
X014391Y020319D01*
X014406Y020277D01*
X014418Y020235D01*
X014426Y020191D01*
X014430Y020147D01*
X014430Y020103D01*
X014426Y020059D01*
X014418Y020015D01*
X014406Y019973D01*
X014391Y019931D01*
X014372Y019891D01*
X014350Y019853D01*
X014324Y019817D01*
X014295Y019783D01*
X014263Y019752D01*
X014229Y019724D01*
X014193Y019700D01*
X014154Y019678D01*
X014114Y019660D01*
X014072Y019646D01*
X014029Y019635D01*
X013985Y019628D01*
X013941Y019625D01*
X013897Y019626D01*
X013853Y019631D01*
X013810Y019640D01*
X013767Y019652D01*
X013726Y019669D01*
X013686Y019688D01*
X013649Y019712D01*
X013613Y019738D01*
X013580Y019768D01*
X013550Y019800D01*
X013523Y019835D01*
X013499Y019872D01*
X013478Y019911D01*
X013461Y019952D01*
X013448Y019994D01*
X013438Y020037D01*
X013432Y020081D01*
X013430Y020125D01*
M02*
