G75*
%MOIN*%
%OFA0B0*%
%FSLAX24Y24*%
%IPPOS*%
%LPD*%
%AMOC8*
5,1,8,0,0,1.08239X$1,22.5*
%
%ADD10C,0.0160*%
%ADD11C,0.0040*%
%ADD12C,0.0000*%
%ADD13C,0.0050*%
%ADD14C,0.0080*%
%ADD15C,0.0020*%
%ADD16C,0.0030*%
%ADD17C,0.0060*%
D10*
X000180Y001125D02*
X000680Y000625D01*
X017680Y000625D01*
X018180Y001125D01*
X018180Y019625D01*
X017680Y020125D01*
X016680Y020125D01*
X016680Y026125D01*
X016180Y026625D01*
X014680Y026625D01*
X014680Y030625D01*
X014180Y031125D01*
X004180Y031125D01*
X003680Y030625D01*
X003680Y021125D01*
X000680Y021125D01*
X000180Y020625D01*
X000180Y001125D01*
D11*
X003950Y005645D02*
X004210Y005645D01*
X004297Y005732D01*
X004297Y006079D01*
X004210Y006165D01*
X003950Y006165D01*
X003950Y005645D01*
X004466Y005645D02*
X004813Y005645D01*
X004639Y005645D02*
X004639Y006165D01*
X004466Y005992D01*
X004552Y006485D02*
X004466Y006572D01*
X004466Y006745D01*
X004552Y006832D01*
X004726Y006832D01*
X004813Y006745D01*
X004813Y006658D01*
X004466Y006658D01*
X004552Y006485D02*
X004726Y006485D01*
X004981Y006485D02*
X004981Y007005D01*
X005155Y006832D01*
X005328Y007005D01*
X005328Y006485D01*
X005497Y006572D02*
X005584Y006485D01*
X005757Y006485D01*
X005844Y006572D01*
X005844Y006745D01*
X005757Y006832D01*
X005584Y006832D01*
X005497Y006745D01*
X005497Y006572D01*
X005497Y005992D02*
X005584Y005992D01*
X005670Y005905D01*
X005757Y005992D01*
X005844Y005905D01*
X005844Y005645D01*
X006013Y005645D02*
X006186Y005645D01*
X006099Y005645D02*
X006099Y005992D01*
X006013Y005992D01*
X006099Y006165D02*
X006099Y006252D01*
X006013Y006485D02*
X006273Y006485D01*
X006360Y006572D01*
X006273Y006658D01*
X006099Y006658D01*
X006013Y006745D01*
X006099Y006832D01*
X006360Y006832D01*
X006528Y006572D02*
X006615Y006572D01*
X006615Y006485D01*
X006528Y006485D01*
X006528Y006572D01*
X006786Y006572D02*
X006873Y006485D01*
X007133Y006485D01*
X007302Y006572D02*
X007388Y006485D01*
X007649Y006485D01*
X007649Y006832D02*
X007388Y006832D01*
X007302Y006745D01*
X007302Y006572D01*
X007133Y006832D02*
X006873Y006832D01*
X006786Y006745D01*
X006786Y006572D01*
X006959Y006252D02*
X006959Y006165D01*
X006959Y005992D02*
X006959Y005645D01*
X007045Y005645D02*
X006872Y005645D01*
X006703Y005645D02*
X006703Y005905D01*
X006617Y005992D01*
X006356Y005992D01*
X006356Y005645D01*
X006872Y005992D02*
X006959Y005992D01*
X005670Y005905D02*
X005670Y005645D01*
X005497Y005645D02*
X005497Y005992D01*
X004297Y006485D02*
X004297Y007005D01*
X004123Y006658D02*
X004297Y006485D01*
X004123Y006658D02*
X003950Y006485D01*
X003950Y007005D01*
X003903Y012445D02*
X004250Y012445D01*
X004419Y012445D02*
X004419Y012965D01*
X004679Y012965D01*
X004766Y012879D01*
X004766Y012705D01*
X004679Y012618D01*
X004419Y012618D01*
X004250Y012965D02*
X003903Y012965D01*
X003903Y012445D01*
X003734Y012445D02*
X003387Y012445D01*
X003387Y012965D01*
X003734Y012965D01*
X003903Y012705D02*
X004077Y012705D01*
X004161Y013285D02*
X004161Y013805D01*
X004508Y013285D01*
X004508Y013805D01*
X004677Y013805D02*
X005024Y013805D01*
X005192Y013805D02*
X005192Y013285D01*
X005539Y013285D01*
X005708Y013285D02*
X005708Y013805D01*
X006055Y013285D01*
X006055Y013805D01*
X006223Y013805D02*
X006223Y013285D01*
X006570Y013285D02*
X006223Y013805D01*
X006570Y013805D02*
X006570Y013285D01*
X006739Y013285D02*
X006739Y013632D01*
X006913Y013805D01*
X007086Y013632D01*
X007086Y013285D01*
X007086Y013545D02*
X006739Y013545D01*
X006828Y012965D02*
X006481Y012965D01*
X006481Y012445D01*
X006828Y012445D01*
X006997Y012445D02*
X006997Y012792D01*
X007170Y012965D01*
X007344Y012792D01*
X007344Y012445D01*
X007513Y012445D02*
X007513Y012965D01*
X007773Y012965D01*
X007860Y012879D01*
X007860Y012705D01*
X007773Y012618D01*
X007513Y012618D01*
X007686Y012618D02*
X007860Y012445D01*
X007344Y012705D02*
X006997Y012705D01*
X006655Y012705D02*
X006481Y012705D01*
X006313Y012445D02*
X005966Y012445D01*
X005966Y012965D01*
X005797Y012879D02*
X005710Y012965D01*
X005537Y012965D01*
X005450Y012879D01*
X005450Y012532D01*
X005537Y012445D01*
X005710Y012445D01*
X005797Y012532D01*
X005366Y013545D02*
X005192Y013545D01*
X005192Y013805D02*
X005539Y013805D01*
X004850Y013805D02*
X004850Y013285D01*
X003992Y013285D02*
X003992Y013632D01*
X003819Y013805D01*
X003645Y013632D01*
X003645Y013285D01*
X003645Y013545D02*
X003992Y013545D01*
X003561Y012705D02*
X003387Y012705D01*
X003219Y012445D02*
X002959Y012705D01*
X002872Y012618D02*
X003219Y012965D01*
X002872Y012965D02*
X002872Y012445D01*
X005450Y022224D02*
X005450Y022454D01*
X005526Y022531D01*
X005603Y022531D01*
X005680Y022454D01*
X005680Y022224D01*
X005910Y022224D02*
X005450Y022224D01*
X005680Y022454D02*
X005757Y022531D01*
X005833Y022531D01*
X005910Y022454D01*
X005910Y022224D01*
X005833Y022685D02*
X005910Y022761D01*
X005910Y022915D01*
X005833Y022992D01*
X005450Y022992D01*
X005450Y023145D02*
X005450Y023452D01*
X005526Y023452D01*
X005833Y023145D01*
X005910Y023145D01*
X005910Y023452D01*
X005833Y023759D02*
X005526Y023759D01*
X005680Y023605D02*
X005680Y023912D01*
X005680Y024474D02*
X005680Y024704D01*
X005757Y024781D01*
X005833Y024781D01*
X005910Y024704D01*
X005910Y024474D01*
X005450Y024474D01*
X005450Y024704D01*
X005526Y024781D01*
X005603Y024781D01*
X005680Y024704D01*
X005833Y024935D02*
X005450Y024935D01*
X005450Y025242D02*
X005833Y025242D01*
X005910Y025165D01*
X005910Y025011D01*
X005833Y024935D01*
X005833Y025395D02*
X005910Y025395D01*
X005910Y025702D01*
X005833Y025395D02*
X005526Y025702D01*
X005450Y025702D01*
X005450Y025395D01*
X005680Y025855D02*
X005680Y026162D01*
X005648Y027145D02*
X005597Y027197D01*
X005648Y027248D01*
X005803Y027248D01*
X005803Y027300D02*
X005803Y027145D01*
X005648Y027145D01*
X005481Y027197D02*
X005481Y027404D01*
X005429Y027455D01*
X005274Y027455D01*
X005274Y027145D01*
X005429Y027145D01*
X005481Y027197D01*
X005648Y027352D02*
X005752Y027352D01*
X005803Y027300D01*
X005919Y027352D02*
X006074Y027352D01*
X006126Y027300D01*
X006126Y027145D01*
X006241Y027145D02*
X006344Y027145D01*
X006293Y027145D02*
X006293Y027352D01*
X006241Y027352D01*
X006293Y027455D02*
X006293Y027507D01*
X006289Y027670D02*
X006289Y027980D01*
X006134Y027825D01*
X006340Y027825D01*
X006241Y028195D02*
X006241Y028402D01*
X006344Y028402D02*
X006241Y028298D01*
X006126Y028298D02*
X005919Y028298D01*
X005919Y028247D02*
X005919Y028350D01*
X005971Y028402D01*
X006074Y028402D01*
X006126Y028350D01*
X006126Y028298D01*
X006074Y028195D02*
X005971Y028195D01*
X005919Y028247D01*
X005803Y028195D02*
X005803Y028350D01*
X005752Y028402D01*
X005597Y028402D01*
X005597Y028195D01*
X005485Y028195D02*
X005382Y028195D01*
X005433Y028195D02*
X005433Y028402D01*
X005382Y028402D01*
X005433Y028505D02*
X005433Y028557D01*
X005266Y028350D02*
X005266Y028195D01*
X005111Y028195D01*
X005059Y028247D01*
X005111Y028298D01*
X005266Y028298D01*
X005266Y028350D02*
X005215Y028402D01*
X005111Y028402D01*
X004946Y028402D02*
X004894Y028402D01*
X004791Y028298D01*
X004791Y028195D02*
X004791Y028402D01*
X004675Y028505D02*
X004469Y028505D01*
X004572Y028505D02*
X004572Y028195D01*
X004574Y027980D02*
X004677Y027980D01*
X004729Y027929D01*
X004522Y027722D01*
X004574Y027670D01*
X004677Y027670D01*
X004729Y027722D01*
X004729Y027929D01*
X004845Y027877D02*
X004948Y027980D01*
X004948Y027670D01*
X004845Y027670D02*
X005051Y027670D01*
X005167Y027670D02*
X005167Y027722D01*
X005374Y027929D01*
X005374Y027980D01*
X005167Y027980D01*
X005489Y027825D02*
X005696Y027825D01*
X005811Y027722D02*
X005811Y027929D01*
X005863Y027980D01*
X005967Y027980D01*
X006018Y027929D01*
X005811Y027722D01*
X005863Y027670D01*
X005967Y027670D01*
X006018Y027722D01*
X006018Y027929D01*
X006344Y028402D02*
X006396Y028402D01*
X006832Y028402D02*
X006935Y028195D01*
X007039Y028402D01*
X007154Y028402D02*
X007258Y028505D01*
X007258Y028195D01*
X007361Y028195D02*
X007154Y028195D01*
X007476Y028195D02*
X007528Y028195D01*
X007528Y028247D01*
X007476Y028247D01*
X007476Y028195D01*
X007638Y028247D02*
X007638Y028454D01*
X007689Y028505D01*
X007793Y028505D01*
X007844Y028454D01*
X007638Y028247D01*
X007689Y028195D01*
X007793Y028195D01*
X007844Y028247D01*
X007844Y028454D01*
X008063Y027507D02*
X008063Y027455D01*
X008063Y027352D02*
X008063Y027093D01*
X008012Y027042D01*
X007960Y027042D01*
X007844Y027197D02*
X007844Y027300D01*
X007793Y027352D01*
X007689Y027352D01*
X007638Y027300D01*
X007638Y027197D01*
X007689Y027145D01*
X007793Y027145D01*
X007844Y027197D01*
X007522Y027145D02*
X007419Y027248D01*
X007470Y027248D02*
X007315Y027248D01*
X007315Y027145D02*
X007315Y027455D01*
X007470Y027455D01*
X007522Y027404D01*
X007522Y027300D01*
X007470Y027248D01*
X006882Y027145D02*
X006778Y027145D01*
X006830Y027145D02*
X006830Y027455D01*
X006778Y027455D01*
X006663Y027300D02*
X006663Y027248D01*
X006456Y027248D01*
X006456Y027197D02*
X006456Y027300D01*
X006508Y027352D01*
X006611Y027352D01*
X006663Y027300D01*
X006611Y027145D02*
X006508Y027145D01*
X006456Y027197D01*
X005919Y027145D02*
X005919Y027352D01*
X004841Y027352D02*
X004737Y027455D01*
X004841Y027352D02*
X004841Y027248D01*
X004737Y027145D01*
X004622Y027145D02*
X004467Y027145D01*
X004415Y027197D01*
X004415Y027300D01*
X004467Y027352D01*
X004622Y027352D01*
X004522Y027722D02*
X004522Y027929D01*
X004574Y027980D01*
X004407Y027929D02*
X004355Y027980D01*
X004252Y027980D01*
X004200Y027929D01*
X004407Y027877D02*
X004200Y027670D01*
X004407Y027670D01*
X004407Y027877D02*
X004407Y027929D01*
X004355Y028195D02*
X004200Y028298D01*
X004355Y028402D01*
X004200Y028505D02*
X004200Y028195D01*
X004303Y027455D02*
X004200Y027352D01*
X004200Y027248D01*
X004303Y027145D01*
X005450Y022685D02*
X005833Y022685D01*
X008226Y027145D02*
X008175Y027197D01*
X008226Y027248D01*
X008382Y027248D01*
X008382Y027300D02*
X008382Y027145D01*
X008226Y027145D01*
X008226Y027352D02*
X008330Y027352D01*
X008382Y027300D01*
X008497Y027300D02*
X008549Y027352D01*
X008704Y027352D01*
X008652Y027248D02*
X008549Y027248D01*
X008497Y027300D01*
X008497Y027145D02*
X008652Y027145D01*
X008704Y027197D01*
X008652Y027248D01*
X011467Y027325D02*
X011622Y027325D01*
X011673Y027273D01*
X011673Y027222D01*
X011622Y027170D01*
X011467Y027170D01*
X011467Y027480D01*
X011622Y027480D01*
X011673Y027429D01*
X011673Y027377D01*
X011622Y027325D01*
X011789Y027325D02*
X011996Y027325D01*
X011996Y027377D02*
X011996Y027170D01*
X011996Y027377D02*
X011892Y027480D01*
X011789Y027377D01*
X011789Y027170D01*
X012111Y027480D02*
X012318Y027480D01*
X012215Y027480D02*
X012215Y027170D01*
X011996Y026800D02*
X011789Y026800D01*
X011892Y024179D02*
X011892Y023972D01*
X011789Y024075D02*
X011996Y024075D01*
X011892Y023705D02*
X011996Y023602D01*
X011996Y023395D01*
X011996Y023550D02*
X011789Y023550D01*
X011789Y023602D02*
X011789Y023395D01*
X011673Y023447D02*
X011622Y023395D01*
X011467Y023395D01*
X011467Y023705D01*
X011622Y023705D01*
X011673Y023654D01*
X011673Y023602D01*
X011622Y023550D01*
X011467Y023550D01*
X011622Y023550D02*
X011673Y023498D01*
X011673Y023447D01*
X011789Y023602D02*
X011892Y023705D01*
X012111Y023705D02*
X012318Y023705D01*
X012215Y023705D02*
X012215Y023395D01*
D12*
X013430Y020125D02*
X013432Y020169D01*
X013438Y020213D01*
X013448Y020256D01*
X013461Y020298D01*
X013478Y020339D01*
X013499Y020378D01*
X013523Y020415D01*
X013550Y020450D01*
X013580Y020482D01*
X013613Y020512D01*
X013649Y020538D01*
X013686Y020562D01*
X013726Y020581D01*
X013767Y020598D01*
X013810Y020610D01*
X013853Y020619D01*
X013897Y020624D01*
X013941Y020625D01*
X013985Y020622D01*
X014029Y020615D01*
X014072Y020604D01*
X014114Y020590D01*
X014154Y020572D01*
X014193Y020550D01*
X014229Y020526D01*
X014263Y020498D01*
X014295Y020467D01*
X014324Y020433D01*
X014350Y020397D01*
X014372Y020359D01*
X014391Y020319D01*
X014406Y020277D01*
X014418Y020235D01*
X014426Y020191D01*
X014430Y020147D01*
X014430Y020103D01*
X014426Y020059D01*
X014418Y020015D01*
X014406Y019973D01*
X014391Y019931D01*
X014372Y019891D01*
X014350Y019853D01*
X014324Y019817D01*
X014295Y019783D01*
X014263Y019752D01*
X014229Y019724D01*
X014193Y019700D01*
X014154Y019678D01*
X014114Y019660D01*
X014072Y019646D01*
X014029Y019635D01*
X013985Y019628D01*
X013941Y019625D01*
X013897Y019626D01*
X013853Y019631D01*
X013810Y019640D01*
X013767Y019652D01*
X013726Y019669D01*
X013686Y019688D01*
X013649Y019712D01*
X013613Y019738D01*
X013580Y019768D01*
X013550Y019800D01*
X013523Y019835D01*
X013499Y019872D01*
X013478Y019911D01*
X013461Y019952D01*
X013448Y019994D01*
X013438Y020037D01*
X013432Y020081D01*
X013430Y020125D01*
X015523Y022806D02*
X015525Y022831D01*
X015531Y022855D01*
X015540Y022877D01*
X015553Y022898D01*
X015569Y022917D01*
X015588Y022933D01*
X015609Y022946D01*
X015631Y022955D01*
X015655Y022961D01*
X015680Y022963D01*
X015705Y022961D01*
X015729Y022955D01*
X015751Y022946D01*
X015772Y022933D01*
X015791Y022917D01*
X015807Y022898D01*
X015820Y022877D01*
X015829Y022855D01*
X015835Y022831D01*
X015837Y022806D01*
X015835Y022781D01*
X015829Y022757D01*
X015820Y022735D01*
X015807Y022714D01*
X015791Y022695D01*
X015772Y022679D01*
X015751Y022666D01*
X015729Y022657D01*
X015705Y022651D01*
X015680Y022649D01*
X015655Y022651D01*
X015631Y022657D01*
X015609Y022666D01*
X015588Y022679D01*
X015569Y022695D01*
X015553Y022714D01*
X015540Y022735D01*
X015531Y022757D01*
X015525Y022781D01*
X015523Y022806D01*
X015523Y025444D02*
X015525Y025469D01*
X015531Y025493D01*
X015540Y025515D01*
X015553Y025536D01*
X015569Y025555D01*
X015588Y025571D01*
X015609Y025584D01*
X015631Y025593D01*
X015655Y025599D01*
X015680Y025601D01*
X015705Y025599D01*
X015729Y025593D01*
X015751Y025584D01*
X015772Y025571D01*
X015791Y025555D01*
X015807Y025536D01*
X015820Y025515D01*
X015829Y025493D01*
X015835Y025469D01*
X015837Y025444D01*
X015835Y025419D01*
X015829Y025395D01*
X015820Y025373D01*
X015807Y025352D01*
X015791Y025333D01*
X015772Y025317D01*
X015751Y025304D01*
X015729Y025295D01*
X015705Y025289D01*
X015680Y025287D01*
X015655Y025289D01*
X015631Y025295D01*
X015609Y025304D01*
X015588Y025317D01*
X015569Y025333D01*
X015553Y025352D01*
X015540Y025373D01*
X015531Y025395D01*
X015525Y025419D01*
X015523Y025444D01*
X013430Y029375D02*
X013432Y029419D01*
X013438Y029463D01*
X013448Y029506D01*
X013461Y029548D01*
X013478Y029589D01*
X013499Y029628D01*
X013523Y029665D01*
X013550Y029700D01*
X013580Y029732D01*
X013613Y029762D01*
X013649Y029788D01*
X013686Y029812D01*
X013726Y029831D01*
X013767Y029848D01*
X013810Y029860D01*
X013853Y029869D01*
X013897Y029874D01*
X013941Y029875D01*
X013985Y029872D01*
X014029Y029865D01*
X014072Y029854D01*
X014114Y029840D01*
X014154Y029822D01*
X014193Y029800D01*
X014229Y029776D01*
X014263Y029748D01*
X014295Y029717D01*
X014324Y029683D01*
X014350Y029647D01*
X014372Y029609D01*
X014391Y029569D01*
X014406Y029527D01*
X014418Y029485D01*
X014426Y029441D01*
X014430Y029397D01*
X014430Y029353D01*
X014426Y029309D01*
X014418Y029265D01*
X014406Y029223D01*
X014391Y029181D01*
X014372Y029141D01*
X014350Y029103D01*
X014324Y029067D01*
X014295Y029033D01*
X014263Y029002D01*
X014229Y028974D01*
X014193Y028950D01*
X014154Y028928D01*
X014114Y028910D01*
X014072Y028896D01*
X014029Y028885D01*
X013985Y028878D01*
X013941Y028875D01*
X013897Y028876D01*
X013853Y028881D01*
X013810Y028890D01*
X013767Y028902D01*
X013726Y028919D01*
X013686Y028938D01*
X013649Y028962D01*
X013613Y028988D01*
X013580Y029018D01*
X013550Y029050D01*
X013523Y029085D01*
X013499Y029122D01*
X013478Y029161D01*
X013461Y029202D01*
X013448Y029244D01*
X013438Y029287D01*
X013432Y029331D01*
X013430Y029375D01*
X003930Y029375D02*
X003932Y029419D01*
X003938Y029463D01*
X003948Y029506D01*
X003961Y029548D01*
X003978Y029589D01*
X003999Y029628D01*
X004023Y029665D01*
X004050Y029700D01*
X004080Y029732D01*
X004113Y029762D01*
X004149Y029788D01*
X004186Y029812D01*
X004226Y029831D01*
X004267Y029848D01*
X004310Y029860D01*
X004353Y029869D01*
X004397Y029874D01*
X004441Y029875D01*
X004485Y029872D01*
X004529Y029865D01*
X004572Y029854D01*
X004614Y029840D01*
X004654Y029822D01*
X004693Y029800D01*
X004729Y029776D01*
X004763Y029748D01*
X004795Y029717D01*
X004824Y029683D01*
X004850Y029647D01*
X004872Y029609D01*
X004891Y029569D01*
X004906Y029527D01*
X004918Y029485D01*
X004926Y029441D01*
X004930Y029397D01*
X004930Y029353D01*
X004926Y029309D01*
X004918Y029265D01*
X004906Y029223D01*
X004891Y029181D01*
X004872Y029141D01*
X004850Y029103D01*
X004824Y029067D01*
X004795Y029033D01*
X004763Y029002D01*
X004729Y028974D01*
X004693Y028950D01*
X004654Y028928D01*
X004614Y028910D01*
X004572Y028896D01*
X004529Y028885D01*
X004485Y028878D01*
X004441Y028875D01*
X004397Y028876D01*
X004353Y028881D01*
X004310Y028890D01*
X004267Y028902D01*
X004226Y028919D01*
X004186Y028938D01*
X004149Y028962D01*
X004113Y028988D01*
X004080Y029018D01*
X004050Y029050D01*
X004023Y029085D01*
X003999Y029122D01*
X003978Y029161D01*
X003961Y029202D01*
X003948Y029244D01*
X003938Y029287D01*
X003932Y029331D01*
X003930Y029375D01*
X003930Y020125D02*
X003932Y020169D01*
X003938Y020213D01*
X003948Y020256D01*
X003961Y020298D01*
X003978Y020339D01*
X003999Y020378D01*
X004023Y020415D01*
X004050Y020450D01*
X004080Y020482D01*
X004113Y020512D01*
X004149Y020538D01*
X004186Y020562D01*
X004226Y020581D01*
X004267Y020598D01*
X004310Y020610D01*
X004353Y020619D01*
X004397Y020624D01*
X004441Y020625D01*
X004485Y020622D01*
X004529Y020615D01*
X004572Y020604D01*
X004614Y020590D01*
X004654Y020572D01*
X004693Y020550D01*
X004729Y020526D01*
X004763Y020498D01*
X004795Y020467D01*
X004824Y020433D01*
X004850Y020397D01*
X004872Y020359D01*
X004891Y020319D01*
X004906Y020277D01*
X004918Y020235D01*
X004926Y020191D01*
X004930Y020147D01*
X004930Y020103D01*
X004926Y020059D01*
X004918Y020015D01*
X004906Y019973D01*
X004891Y019931D01*
X004872Y019891D01*
X004850Y019853D01*
X004824Y019817D01*
X004795Y019783D01*
X004763Y019752D01*
X004729Y019724D01*
X004693Y019700D01*
X004654Y019678D01*
X004614Y019660D01*
X004572Y019646D01*
X004529Y019635D01*
X004485Y019628D01*
X004441Y019625D01*
X004397Y019626D01*
X004353Y019631D01*
X004310Y019640D01*
X004267Y019652D01*
X004226Y019669D01*
X004186Y019688D01*
X004149Y019712D01*
X004113Y019738D01*
X004080Y019768D01*
X004050Y019800D01*
X004023Y019835D01*
X003999Y019872D01*
X003978Y019911D01*
X003961Y019952D01*
X003948Y019994D01*
X003938Y020037D01*
X003932Y020081D01*
X003930Y020125D01*
D13*
X000430Y000625D02*
X010430Y000625D01*
X010430Y013125D01*
X010428Y013185D01*
X010423Y013246D01*
X010414Y013305D01*
X010401Y013364D01*
X010385Y013423D01*
X010365Y013480D01*
X010342Y013535D01*
X010315Y013590D01*
X010286Y013642D01*
X010253Y013693D01*
X010217Y013742D01*
X010179Y013788D01*
X010137Y013832D01*
X010093Y013874D01*
X010047Y013912D01*
X009998Y013948D01*
X009947Y013981D01*
X009895Y014010D01*
X009840Y014037D01*
X009785Y014060D01*
X009728Y014080D01*
X009669Y014096D01*
X009610Y014109D01*
X009551Y014118D01*
X009490Y014123D01*
X009430Y014125D01*
X001430Y014125D01*
X001370Y014123D01*
X001309Y014118D01*
X001250Y014109D01*
X001191Y014096D01*
X001132Y014080D01*
X001075Y014060D01*
X001020Y014037D01*
X000965Y014010D01*
X000913Y013981D01*
X000862Y013948D01*
X000813Y013912D01*
X000767Y013874D01*
X000723Y013832D01*
X000681Y013788D01*
X000643Y013742D01*
X000607Y013693D01*
X000574Y013642D01*
X000545Y013590D01*
X000518Y013535D01*
X000495Y013480D01*
X000475Y013423D01*
X000459Y013364D01*
X000446Y013305D01*
X000437Y013246D01*
X000432Y013185D01*
X000430Y013125D01*
X000430Y000625D01*
X002240Y004625D02*
X008530Y004625D01*
X008540Y004625D02*
X008540Y011835D01*
X008530Y011835D01*
X008540Y011832D02*
X002241Y011832D01*
X002241Y014116D01*
X008540Y014116D01*
X008540Y011832D01*
X010930Y011125D02*
X010930Y000625D01*
X017930Y000625D01*
X017930Y011125D01*
X010930Y011125D01*
X011180Y011375D02*
X011180Y015875D01*
X017680Y015875D01*
X017680Y011375D01*
X011180Y011375D01*
X011286Y016444D02*
X012074Y016444D01*
X011089Y017625D02*
X011091Y017673D01*
X011097Y017721D01*
X011107Y017768D01*
X011120Y017814D01*
X011138Y017859D01*
X011158Y017903D01*
X011183Y017945D01*
X011211Y017984D01*
X011241Y018021D01*
X011275Y018055D01*
X011312Y018087D01*
X011350Y018116D01*
X011391Y018141D01*
X011434Y018163D01*
X011479Y018181D01*
X011525Y018195D01*
X011572Y018206D01*
X011620Y018213D01*
X011668Y018216D01*
X011716Y018215D01*
X011764Y018210D01*
X011812Y018201D01*
X011858Y018189D01*
X011903Y018172D01*
X011947Y018152D01*
X011989Y018129D01*
X012029Y018102D01*
X012067Y018072D01*
X012102Y018039D01*
X012134Y018003D01*
X012164Y017965D01*
X012190Y017924D01*
X012212Y017881D01*
X012232Y017837D01*
X012247Y017792D01*
X012259Y017745D01*
X012267Y017697D01*
X012271Y017649D01*
X012271Y017601D01*
X012267Y017553D01*
X012259Y017505D01*
X012247Y017458D01*
X012232Y017413D01*
X012212Y017369D01*
X012190Y017326D01*
X012164Y017285D01*
X012134Y017247D01*
X012102Y017211D01*
X012067Y017178D01*
X012029Y017148D01*
X011989Y017121D01*
X011947Y017098D01*
X011903Y017078D01*
X011858Y017061D01*
X011812Y017049D01*
X011764Y017040D01*
X011716Y017035D01*
X011668Y017034D01*
X011620Y017037D01*
X011572Y017044D01*
X011525Y017055D01*
X011479Y017069D01*
X011434Y017087D01*
X011391Y017109D01*
X011350Y017134D01*
X011312Y017163D01*
X011275Y017195D01*
X011241Y017229D01*
X011211Y017266D01*
X011183Y017305D01*
X011158Y017347D01*
X011138Y017391D01*
X011120Y017436D01*
X011107Y017482D01*
X011097Y017529D01*
X011091Y017577D01*
X011089Y017625D01*
X011286Y018806D02*
X012074Y018806D01*
X012861Y018806D02*
X012861Y016444D01*
X013499Y016444D02*
X013499Y018806D01*
X014286Y018806D02*
X015074Y018806D01*
X014692Y019613D02*
X014692Y030637D01*
X003668Y030637D01*
X003668Y019613D01*
X014692Y019613D01*
X013530Y020125D02*
X013532Y020165D01*
X013538Y020204D01*
X013548Y020243D01*
X013561Y020280D01*
X013579Y020316D01*
X013600Y020350D01*
X013624Y020382D01*
X013651Y020411D01*
X013681Y020438D01*
X013713Y020461D01*
X013748Y020481D01*
X013784Y020497D01*
X013822Y020510D01*
X013861Y020519D01*
X013900Y020524D01*
X013940Y020525D01*
X013980Y020522D01*
X014019Y020515D01*
X014057Y020504D01*
X014095Y020490D01*
X014130Y020471D01*
X014163Y020450D01*
X014195Y020425D01*
X014223Y020397D01*
X014249Y020367D01*
X014271Y020334D01*
X014290Y020299D01*
X014306Y020262D01*
X014318Y020224D01*
X014326Y020185D01*
X014330Y020145D01*
X014330Y020105D01*
X014326Y020065D01*
X014318Y020026D01*
X014306Y019988D01*
X014290Y019951D01*
X014271Y019916D01*
X014249Y019883D01*
X014223Y019853D01*
X014195Y019825D01*
X014163Y019800D01*
X014130Y019779D01*
X014095Y019760D01*
X014057Y019746D01*
X014019Y019735D01*
X013980Y019728D01*
X013940Y019725D01*
X013900Y019726D01*
X013861Y019731D01*
X013822Y019740D01*
X013784Y019753D01*
X013748Y019769D01*
X013713Y019789D01*
X013681Y019812D01*
X013651Y019839D01*
X013624Y019868D01*
X013600Y019900D01*
X013579Y019934D01*
X013561Y019970D01*
X013548Y020007D01*
X013538Y020046D01*
X013532Y020085D01*
X013530Y020125D01*
X014495Y021385D02*
X014495Y028865D01*
X003865Y028865D01*
X003865Y021385D01*
X014495Y021385D01*
X014991Y022353D02*
X014991Y023023D01*
X014164Y023023D01*
X014164Y023259D01*
X014991Y023259D01*
X014991Y024007D01*
X014164Y024007D01*
X014164Y024243D01*
X014991Y024243D01*
X014991Y024991D01*
X014164Y024991D01*
X014164Y025227D01*
X014991Y025227D01*
X014991Y025897D01*
X016369Y025897D01*
X016369Y024814D01*
X017156Y024814D01*
X017156Y024223D01*
X016369Y024223D01*
X016369Y024027D01*
X017156Y024027D01*
X017156Y023436D01*
X016369Y023436D01*
X016369Y022353D01*
X014991Y022353D01*
X014991Y023023D02*
X014991Y023259D01*
X014991Y024007D02*
X014991Y024243D01*
X014991Y024991D02*
X014991Y025227D01*
X016369Y024814D02*
X016369Y024223D01*
X016369Y024027D02*
X016369Y023436D01*
X015861Y018806D02*
X015861Y016444D01*
X015074Y016444D02*
X014286Y016444D01*
X014089Y017625D02*
X014091Y017673D01*
X014097Y017721D01*
X014107Y017768D01*
X014120Y017814D01*
X014138Y017859D01*
X014158Y017903D01*
X014183Y017945D01*
X014211Y017984D01*
X014241Y018021D01*
X014275Y018055D01*
X014312Y018087D01*
X014350Y018116D01*
X014391Y018141D01*
X014434Y018163D01*
X014479Y018181D01*
X014525Y018195D01*
X014572Y018206D01*
X014620Y018213D01*
X014668Y018216D01*
X014716Y018215D01*
X014764Y018210D01*
X014812Y018201D01*
X014858Y018189D01*
X014903Y018172D01*
X014947Y018152D01*
X014989Y018129D01*
X015029Y018102D01*
X015067Y018072D01*
X015102Y018039D01*
X015134Y018003D01*
X015164Y017965D01*
X015190Y017924D01*
X015212Y017881D01*
X015232Y017837D01*
X015247Y017792D01*
X015259Y017745D01*
X015267Y017697D01*
X015271Y017649D01*
X015271Y017601D01*
X015267Y017553D01*
X015259Y017505D01*
X015247Y017458D01*
X015232Y017413D01*
X015212Y017369D01*
X015190Y017326D01*
X015164Y017285D01*
X015134Y017247D01*
X015102Y017211D01*
X015067Y017178D01*
X015029Y017148D01*
X014989Y017121D01*
X014947Y017098D01*
X014903Y017078D01*
X014858Y017061D01*
X014812Y017049D01*
X014764Y017040D01*
X014716Y017035D01*
X014668Y017034D01*
X014620Y017037D01*
X014572Y017044D01*
X014525Y017055D01*
X014479Y017069D01*
X014434Y017087D01*
X014391Y017109D01*
X014350Y017134D01*
X014312Y017163D01*
X014275Y017195D01*
X014241Y017229D01*
X014211Y017266D01*
X014183Y017305D01*
X014158Y017347D01*
X014138Y017391D01*
X014120Y017436D01*
X014107Y017482D01*
X014097Y017529D01*
X014091Y017577D01*
X014089Y017625D01*
X013511Y022172D02*
X013511Y026503D01*
X004652Y026503D01*
X004652Y022172D01*
X013511Y022172D01*
X010499Y018806D02*
X010499Y016444D01*
X010164Y016641D02*
X008589Y016641D01*
X008196Y017034D01*
X008196Y018609D01*
X010164Y018609D01*
X010164Y016641D01*
X008353Y017625D02*
X008355Y017682D01*
X008361Y017739D01*
X008371Y017795D01*
X008384Y017851D01*
X008402Y017905D01*
X008423Y017958D01*
X008448Y018009D01*
X008476Y018059D01*
X008508Y018106D01*
X008542Y018152D01*
X008580Y018194D01*
X008621Y018234D01*
X008664Y018272D01*
X008710Y018306D01*
X008758Y018336D01*
X008808Y018364D01*
X008860Y018388D01*
X008914Y018408D01*
X008968Y018424D01*
X009024Y018437D01*
X009080Y018446D01*
X009137Y018451D01*
X009194Y018452D01*
X009251Y018449D01*
X009308Y018442D01*
X009364Y018431D01*
X009419Y018417D01*
X009473Y018398D01*
X009526Y018376D01*
X009577Y018351D01*
X009626Y018321D01*
X009673Y018289D01*
X009718Y018253D01*
X009760Y018215D01*
X009799Y018173D01*
X009835Y018129D01*
X009869Y018083D01*
X009899Y018034D01*
X009925Y017984D01*
X009948Y017932D01*
X009967Y017878D01*
X009983Y017823D01*
X009995Y017767D01*
X010003Y017710D01*
X010007Y017654D01*
X010007Y017596D01*
X010003Y017540D01*
X009995Y017483D01*
X009983Y017427D01*
X009967Y017372D01*
X009948Y017318D01*
X009925Y017266D01*
X009899Y017216D01*
X009869Y017167D01*
X009835Y017121D01*
X009799Y017077D01*
X009760Y017035D01*
X009718Y016997D01*
X009673Y016961D01*
X009626Y016929D01*
X009577Y016899D01*
X009526Y016874D01*
X009473Y016852D01*
X009419Y016833D01*
X009364Y016819D01*
X009308Y016808D01*
X009251Y016801D01*
X009194Y016798D01*
X009137Y016799D01*
X009080Y016804D01*
X009024Y016813D01*
X008968Y016826D01*
X008914Y016842D01*
X008860Y016862D01*
X008808Y016886D01*
X008758Y016914D01*
X008710Y016944D01*
X008664Y016978D01*
X008621Y017016D01*
X008580Y017056D01*
X008542Y017098D01*
X008508Y017144D01*
X008476Y017191D01*
X008448Y017241D01*
X008423Y017292D01*
X008402Y017345D01*
X008384Y017399D01*
X008371Y017455D01*
X008361Y017511D01*
X008355Y017568D01*
X008353Y017625D01*
X008196Y017034D02*
X008196Y016641D01*
X008589Y016641D01*
X008066Y016470D02*
X008068Y016484D01*
X008074Y016498D01*
X008082Y016510D01*
X008094Y016518D01*
X008108Y016524D01*
X008122Y016526D01*
X008136Y016524D01*
X008150Y016518D01*
X008162Y016510D01*
X008170Y016498D01*
X008176Y016484D01*
X008178Y016470D01*
X008176Y016456D01*
X008170Y016442D01*
X008162Y016430D01*
X008150Y016422D01*
X008136Y016416D01*
X008122Y016414D01*
X008108Y016416D01*
X008094Y016422D01*
X008082Y016430D01*
X008074Y016442D01*
X008068Y016456D01*
X008066Y016470D01*
X007861Y016444D02*
X007861Y018806D01*
X007074Y018806D02*
X006286Y018806D01*
X006089Y017625D02*
X006091Y017673D01*
X006097Y017721D01*
X006107Y017768D01*
X006120Y017814D01*
X006138Y017859D01*
X006158Y017903D01*
X006183Y017945D01*
X006211Y017984D01*
X006241Y018021D01*
X006275Y018055D01*
X006312Y018087D01*
X006350Y018116D01*
X006391Y018141D01*
X006434Y018163D01*
X006479Y018181D01*
X006525Y018195D01*
X006572Y018206D01*
X006620Y018213D01*
X006668Y018216D01*
X006716Y018215D01*
X006764Y018210D01*
X006812Y018201D01*
X006858Y018189D01*
X006903Y018172D01*
X006947Y018152D01*
X006989Y018129D01*
X007029Y018102D01*
X007067Y018072D01*
X007102Y018039D01*
X007134Y018003D01*
X007164Y017965D01*
X007190Y017924D01*
X007212Y017881D01*
X007232Y017837D01*
X007247Y017792D01*
X007259Y017745D01*
X007267Y017697D01*
X007271Y017649D01*
X007271Y017601D01*
X007267Y017553D01*
X007259Y017505D01*
X007247Y017458D01*
X007232Y017413D01*
X007212Y017369D01*
X007190Y017326D01*
X007164Y017285D01*
X007134Y017247D01*
X007102Y017211D01*
X007067Y017178D01*
X007029Y017148D01*
X006989Y017121D01*
X006947Y017098D01*
X006903Y017078D01*
X006858Y017061D01*
X006812Y017049D01*
X006764Y017040D01*
X006716Y017035D01*
X006668Y017034D01*
X006620Y017037D01*
X006572Y017044D01*
X006525Y017055D01*
X006479Y017069D01*
X006434Y017087D01*
X006391Y017109D01*
X006350Y017134D01*
X006312Y017163D01*
X006275Y017195D01*
X006241Y017229D01*
X006211Y017266D01*
X006183Y017305D01*
X006158Y017347D01*
X006138Y017391D01*
X006120Y017436D01*
X006107Y017482D01*
X006097Y017529D01*
X006091Y017577D01*
X006089Y017625D01*
X006286Y016444D02*
X007074Y016444D01*
X005499Y016444D02*
X005499Y018806D01*
X004861Y018806D02*
X004861Y016444D01*
X004074Y016444D02*
X003286Y016444D01*
X002499Y016444D02*
X002499Y018806D01*
X003286Y018806D02*
X004074Y018806D01*
X003089Y017625D02*
X003091Y017673D01*
X003097Y017721D01*
X003107Y017768D01*
X003120Y017814D01*
X003138Y017859D01*
X003158Y017903D01*
X003183Y017945D01*
X003211Y017984D01*
X003241Y018021D01*
X003275Y018055D01*
X003312Y018087D01*
X003350Y018116D01*
X003391Y018141D01*
X003434Y018163D01*
X003479Y018181D01*
X003525Y018195D01*
X003572Y018206D01*
X003620Y018213D01*
X003668Y018216D01*
X003716Y018215D01*
X003764Y018210D01*
X003812Y018201D01*
X003858Y018189D01*
X003903Y018172D01*
X003947Y018152D01*
X003989Y018129D01*
X004029Y018102D01*
X004067Y018072D01*
X004102Y018039D01*
X004134Y018003D01*
X004164Y017965D01*
X004190Y017924D01*
X004212Y017881D01*
X004232Y017837D01*
X004247Y017792D01*
X004259Y017745D01*
X004267Y017697D01*
X004271Y017649D01*
X004271Y017601D01*
X004267Y017553D01*
X004259Y017505D01*
X004247Y017458D01*
X004232Y017413D01*
X004212Y017369D01*
X004190Y017326D01*
X004164Y017285D01*
X004134Y017247D01*
X004102Y017211D01*
X004067Y017178D01*
X004029Y017148D01*
X003989Y017121D01*
X003947Y017098D01*
X003903Y017078D01*
X003858Y017061D01*
X003812Y017049D01*
X003764Y017040D01*
X003716Y017035D01*
X003668Y017034D01*
X003620Y017037D01*
X003572Y017044D01*
X003525Y017055D01*
X003479Y017069D01*
X003434Y017087D01*
X003391Y017109D01*
X003350Y017134D01*
X003312Y017163D01*
X003275Y017195D01*
X003241Y017229D01*
X003211Y017266D01*
X003183Y017305D01*
X003158Y017347D01*
X003138Y017391D01*
X003120Y017436D01*
X003107Y017482D01*
X003097Y017529D01*
X003091Y017577D01*
X003089Y017625D01*
X004030Y020125D02*
X004032Y020165D01*
X004038Y020204D01*
X004048Y020243D01*
X004061Y020280D01*
X004079Y020316D01*
X004100Y020350D01*
X004124Y020382D01*
X004151Y020411D01*
X004181Y020438D01*
X004213Y020461D01*
X004248Y020481D01*
X004284Y020497D01*
X004322Y020510D01*
X004361Y020519D01*
X004400Y020524D01*
X004440Y020525D01*
X004480Y020522D01*
X004519Y020515D01*
X004557Y020504D01*
X004595Y020490D01*
X004630Y020471D01*
X004663Y020450D01*
X004695Y020425D01*
X004723Y020397D01*
X004749Y020367D01*
X004771Y020334D01*
X004790Y020299D01*
X004806Y020262D01*
X004818Y020224D01*
X004826Y020185D01*
X004830Y020145D01*
X004830Y020105D01*
X004826Y020065D01*
X004818Y020026D01*
X004806Y019988D01*
X004790Y019951D01*
X004771Y019916D01*
X004749Y019883D01*
X004723Y019853D01*
X004695Y019825D01*
X004663Y019800D01*
X004630Y019779D01*
X004595Y019760D01*
X004557Y019746D01*
X004519Y019735D01*
X004480Y019728D01*
X004440Y019725D01*
X004400Y019726D01*
X004361Y019731D01*
X004322Y019740D01*
X004284Y019753D01*
X004248Y019769D01*
X004213Y019789D01*
X004181Y019812D01*
X004151Y019839D01*
X004124Y019868D01*
X004100Y019900D01*
X004079Y019934D01*
X004061Y019970D01*
X004048Y020007D01*
X004038Y020046D01*
X004032Y020085D01*
X004030Y020125D01*
X002240Y011835D02*
X002240Y004625D01*
X012930Y002625D02*
X012930Y000125D01*
X015930Y000125D01*
X015930Y002625D01*
X012930Y002625D01*
X013530Y029375D02*
X013532Y029415D01*
X013538Y029454D01*
X013548Y029493D01*
X013561Y029530D01*
X013579Y029566D01*
X013600Y029600D01*
X013624Y029632D01*
X013651Y029661D01*
X013681Y029688D01*
X013713Y029711D01*
X013748Y029731D01*
X013784Y029747D01*
X013822Y029760D01*
X013861Y029769D01*
X013900Y029774D01*
X013940Y029775D01*
X013980Y029772D01*
X014019Y029765D01*
X014057Y029754D01*
X014095Y029740D01*
X014130Y029721D01*
X014163Y029700D01*
X014195Y029675D01*
X014223Y029647D01*
X014249Y029617D01*
X014271Y029584D01*
X014290Y029549D01*
X014306Y029512D01*
X014318Y029474D01*
X014326Y029435D01*
X014330Y029395D01*
X014330Y029355D01*
X014326Y029315D01*
X014318Y029276D01*
X014306Y029238D01*
X014290Y029201D01*
X014271Y029166D01*
X014249Y029133D01*
X014223Y029103D01*
X014195Y029075D01*
X014163Y029050D01*
X014130Y029029D01*
X014095Y029010D01*
X014057Y028996D01*
X014019Y028985D01*
X013980Y028978D01*
X013940Y028975D01*
X013900Y028976D01*
X013861Y028981D01*
X013822Y028990D01*
X013784Y029003D01*
X013748Y029019D01*
X013713Y029039D01*
X013681Y029062D01*
X013651Y029089D01*
X013624Y029118D01*
X013600Y029150D01*
X013579Y029184D01*
X013561Y029220D01*
X013548Y029257D01*
X013538Y029296D01*
X013532Y029335D01*
X013530Y029375D01*
X004030Y029375D02*
X004032Y029415D01*
X004038Y029454D01*
X004048Y029493D01*
X004061Y029530D01*
X004079Y029566D01*
X004100Y029600D01*
X004124Y029632D01*
X004151Y029661D01*
X004181Y029688D01*
X004213Y029711D01*
X004248Y029731D01*
X004284Y029747D01*
X004322Y029760D01*
X004361Y029769D01*
X004400Y029774D01*
X004440Y029775D01*
X004480Y029772D01*
X004519Y029765D01*
X004557Y029754D01*
X004595Y029740D01*
X004630Y029721D01*
X004663Y029700D01*
X004695Y029675D01*
X004723Y029647D01*
X004749Y029617D01*
X004771Y029584D01*
X004790Y029549D01*
X004806Y029512D01*
X004818Y029474D01*
X004826Y029435D01*
X004830Y029395D01*
X004830Y029355D01*
X004826Y029315D01*
X004818Y029276D01*
X004806Y029238D01*
X004790Y029201D01*
X004771Y029166D01*
X004749Y029133D01*
X004723Y029103D01*
X004695Y029075D01*
X004663Y029050D01*
X004630Y029029D01*
X004595Y029010D01*
X004557Y028996D01*
X004519Y028985D01*
X004480Y028978D01*
X004440Y028975D01*
X004400Y028976D01*
X004361Y028981D01*
X004322Y028990D01*
X004284Y029003D01*
X004248Y029019D01*
X004213Y029039D01*
X004181Y029062D01*
X004151Y029089D01*
X004124Y029118D01*
X004100Y029150D01*
X004079Y029184D01*
X004061Y029220D01*
X004048Y029257D01*
X004038Y029296D01*
X004032Y029335D01*
X004030Y029375D01*
D14*
X013680Y010608D02*
X013680Y009994D01*
X013833Y009687D02*
X013680Y009534D01*
X013680Y009073D01*
X013680Y009534D02*
X013526Y009687D01*
X013373Y009687D01*
X013219Y009534D01*
X013219Y009073D01*
X014140Y009073D01*
X014140Y009534D01*
X013987Y009687D01*
X013833Y009687D01*
X013987Y010301D02*
X013373Y010301D01*
X012140Y008130D02*
X011219Y008130D01*
X011219Y007823D02*
X011219Y008437D01*
X011680Y008744D02*
X011680Y009358D01*
X011373Y009051D02*
X011987Y009051D01*
X011987Y007516D02*
X011219Y007516D01*
X011219Y006903D02*
X011987Y006903D01*
X012140Y007056D01*
X012140Y007363D01*
X011987Y007516D01*
X011987Y006596D02*
X011373Y006596D01*
X011219Y006442D01*
X011219Y006135D01*
X011373Y005982D01*
X011987Y005982D01*
X012140Y006135D01*
X012140Y006442D01*
X011987Y006596D01*
X011567Y002932D02*
X011567Y002318D01*
X011873Y002625D02*
X011260Y002625D01*
X014719Y009073D02*
X014719Y009534D01*
X014873Y009687D01*
X015026Y009687D01*
X015180Y009534D01*
X015180Y009073D01*
X015180Y009534D02*
X015333Y009687D01*
X015487Y009687D01*
X015640Y009534D01*
X015640Y009073D01*
X014719Y009073D01*
X015180Y009994D02*
X015180Y010608D01*
X016719Y008437D02*
X016719Y007823D01*
X016719Y007516D02*
X017487Y007516D01*
X017640Y007363D01*
X017640Y007056D01*
X017487Y006903D01*
X016719Y006903D01*
X016873Y006596D02*
X016719Y006442D01*
X016719Y006135D01*
X016873Y005982D01*
X017487Y005982D01*
X017640Y006135D01*
X017640Y006442D01*
X017487Y006596D01*
X016873Y006596D01*
X016719Y008130D02*
X017640Y008130D01*
X017180Y008744D02*
X017180Y009358D01*
X017373Y002625D02*
X016760Y002625D01*
X006930Y002625D02*
X006930Y000625D01*
X003930Y000625D01*
X003930Y002625D01*
X006930Y002625D01*
X002430Y003125D02*
X002430Y001125D01*
X000930Y001125D01*
X000930Y003125D01*
X002430Y003125D01*
D15*
X002189Y002428D02*
X002035Y002428D01*
X001959Y002428D02*
X001805Y002428D01*
X001805Y002198D01*
X001959Y002198D01*
X001882Y002313D02*
X001805Y002313D01*
X001728Y002274D02*
X001728Y002236D01*
X001690Y002198D01*
X001613Y002198D01*
X001575Y002236D01*
X001613Y002313D02*
X001690Y002313D01*
X001728Y002274D01*
X001728Y002389D02*
X001690Y002428D01*
X001613Y002428D01*
X001575Y002389D01*
X001575Y002351D01*
X001613Y002313D01*
X001498Y002428D02*
X001345Y002428D01*
X001345Y002198D01*
X001498Y002198D01*
X001421Y002313D02*
X001345Y002313D01*
X001268Y002313D02*
X001230Y002274D01*
X001115Y002274D01*
X001191Y002274D02*
X001268Y002198D01*
X001268Y002313D02*
X001268Y002389D01*
X001230Y002428D01*
X001115Y002428D01*
X001115Y002198D01*
X001153Y002053D02*
X001076Y002053D01*
X001038Y002014D01*
X001038Y001976D01*
X001076Y001938D01*
X001153Y001938D01*
X001191Y001899D01*
X001191Y001861D01*
X001153Y001823D01*
X001076Y001823D01*
X001038Y001861D01*
X001191Y002014D02*
X001153Y002053D01*
X001268Y002053D02*
X001268Y001823D01*
X001345Y001899D01*
X001421Y001823D01*
X001421Y002053D01*
X001498Y002053D02*
X001575Y002053D01*
X001537Y002053D02*
X001537Y001823D01*
X001575Y001823D02*
X001498Y001823D01*
X001728Y001823D02*
X001728Y002053D01*
X001652Y002053D02*
X001805Y002053D01*
X001882Y002014D02*
X001882Y001861D01*
X001920Y001823D01*
X001997Y001823D01*
X002035Y001861D01*
X002112Y001823D02*
X002112Y002053D01*
X002035Y002014D02*
X001997Y002053D01*
X001920Y002053D01*
X001882Y002014D01*
X002112Y001938D02*
X002265Y001938D01*
X002265Y002053D02*
X002265Y001823D01*
X002112Y002198D02*
X002112Y002428D01*
X002133Y003985D02*
X002039Y003985D01*
X001992Y004032D01*
X001903Y004078D02*
X001903Y004265D01*
X001992Y004219D02*
X002039Y004265D01*
X002133Y004265D01*
X002179Y004219D01*
X002179Y004172D01*
X002133Y004125D01*
X002179Y004078D01*
X002179Y004032D01*
X002133Y003985D01*
X002133Y004125D02*
X002086Y004125D01*
X001903Y004078D02*
X001810Y003985D01*
X001716Y004078D01*
X001716Y004265D01*
X001627Y004219D02*
X001627Y004172D01*
X001580Y004125D01*
X001627Y004078D01*
X001627Y004032D01*
X001580Y003985D01*
X001487Y003985D01*
X001440Y004032D01*
X001533Y004125D02*
X001580Y004125D01*
X001627Y004219D02*
X001580Y004265D01*
X001487Y004265D01*
X001440Y004219D01*
X001440Y004985D02*
X001580Y004985D01*
X001627Y005032D01*
X001627Y005219D01*
X001580Y005265D01*
X001440Y005265D01*
X001440Y004985D01*
X001716Y005032D02*
X001716Y005078D01*
X001763Y005125D01*
X001856Y005125D01*
X001903Y005078D01*
X001903Y005032D01*
X001856Y004985D01*
X001763Y004985D01*
X001716Y005032D01*
X001763Y005125D02*
X001716Y005172D01*
X001716Y005219D01*
X001763Y005265D01*
X001856Y005265D01*
X001903Y005219D01*
X001903Y005172D01*
X001856Y005125D01*
X001716Y005985D02*
X001716Y006032D01*
X001903Y006219D01*
X001903Y006265D01*
X001716Y006265D01*
X001627Y006219D02*
X001627Y006032D01*
X001580Y005985D01*
X001440Y005985D01*
X001440Y006265D01*
X001580Y006265D01*
X001627Y006219D01*
X001580Y006985D02*
X001440Y006985D01*
X001440Y007265D01*
X001580Y007265D01*
X001627Y007219D01*
X001627Y007032D01*
X001580Y006985D01*
X001716Y007032D02*
X001716Y007125D01*
X001856Y007125D01*
X001903Y007078D01*
X001903Y007032D01*
X001856Y006985D01*
X001763Y006985D01*
X001716Y007032D01*
X001716Y007125D02*
X001810Y007219D01*
X001903Y007265D01*
X001856Y007985D02*
X001763Y007985D01*
X001716Y008032D01*
X001627Y008032D02*
X001627Y008219D01*
X001580Y008265D01*
X001440Y008265D01*
X001440Y007985D01*
X001580Y007985D01*
X001627Y008032D01*
X001716Y008125D02*
X001810Y008172D01*
X001856Y008172D01*
X001903Y008125D01*
X001903Y008032D01*
X001856Y007985D01*
X001716Y008125D02*
X001716Y008265D01*
X001903Y008265D01*
X001856Y008985D02*
X001763Y008985D01*
X001716Y009032D01*
X001903Y009219D01*
X001903Y009032D01*
X001856Y008985D01*
X001716Y009032D02*
X001716Y009219D01*
X001763Y009265D01*
X001856Y009265D01*
X001903Y009219D01*
X001627Y009219D02*
X001627Y009032D01*
X001580Y008985D01*
X001440Y008985D01*
X001440Y009265D01*
X001580Y009265D01*
X001627Y009219D01*
X001627Y009985D02*
X001627Y010172D01*
X001533Y010265D01*
X001440Y010172D01*
X001440Y009985D01*
X001440Y010125D02*
X001627Y010125D01*
X001716Y010032D02*
X001763Y009985D01*
X001856Y009985D01*
X001903Y010032D01*
X001903Y010219D01*
X001716Y010032D01*
X001716Y010219D01*
X001763Y010265D01*
X001856Y010265D01*
X001903Y010219D01*
X001856Y010985D02*
X001763Y010985D01*
X001716Y011032D01*
X001627Y010985D02*
X001533Y011078D01*
X001580Y011078D02*
X001440Y011078D01*
X001440Y010985D02*
X001440Y011265D01*
X001580Y011265D01*
X001627Y011219D01*
X001627Y011125D01*
X001580Y011078D01*
X001716Y011172D02*
X001763Y011125D01*
X001856Y011125D01*
X001903Y011078D01*
X001903Y011032D01*
X001856Y010985D01*
X002086Y010985D02*
X002086Y011265D01*
X002179Y011265D02*
X001992Y011265D01*
X001903Y011219D02*
X001856Y011265D01*
X001763Y011265D01*
X001716Y011219D01*
X001716Y011172D01*
X008611Y005219D02*
X008611Y005032D01*
X008658Y004985D01*
X008751Y004985D01*
X008798Y005032D01*
X008798Y005125D01*
X008705Y005125D01*
X008798Y005219D02*
X008751Y005265D01*
X008658Y005265D01*
X008611Y005219D01*
X008888Y005265D02*
X008888Y004985D01*
X009074Y004985D02*
X008888Y005265D01*
X009074Y005265D02*
X009074Y004985D01*
X009164Y004985D02*
X009304Y004985D01*
X009351Y005032D01*
X009351Y005219D01*
X009304Y005265D01*
X009164Y005265D01*
X009164Y004985D01*
X009164Y004265D02*
X009164Y004078D01*
X009257Y003985D01*
X009351Y004078D01*
X009351Y004265D01*
X009074Y004265D02*
X008888Y004265D01*
X008888Y004125D01*
X008981Y004172D01*
X009028Y004172D01*
X009074Y004125D01*
X009074Y004032D01*
X009028Y003985D01*
X008934Y003985D01*
X008888Y004032D01*
X008888Y005985D02*
X009028Y005985D01*
X009074Y006032D01*
X009074Y006219D01*
X009028Y006265D01*
X008888Y006265D01*
X008888Y005985D01*
X009164Y006125D02*
X009351Y006125D01*
X009304Y005985D02*
X009304Y006265D01*
X009164Y006125D01*
X009210Y006985D02*
X009164Y007032D01*
X009210Y006985D02*
X009304Y006985D01*
X009351Y007032D01*
X009351Y007078D01*
X009304Y007125D01*
X009257Y007125D01*
X009304Y007125D02*
X009351Y007172D01*
X009351Y007219D01*
X009304Y007265D01*
X009210Y007265D01*
X009164Y007219D01*
X009074Y007219D02*
X009028Y007265D01*
X008888Y007265D01*
X008888Y006985D01*
X009028Y006985D01*
X009074Y007032D01*
X009074Y007219D01*
X009028Y007985D02*
X008888Y007985D01*
X008888Y008265D01*
X009028Y008265D01*
X009074Y008219D01*
X009074Y008032D01*
X009028Y007985D01*
X009164Y007985D02*
X009351Y008172D01*
X009351Y008219D01*
X009304Y008265D01*
X009210Y008265D01*
X009164Y008219D01*
X009164Y007985D02*
X009351Y007985D01*
X009351Y008985D02*
X009164Y008985D01*
X009257Y008985D02*
X009257Y009265D01*
X009164Y009172D01*
X009074Y009219D02*
X009028Y009265D01*
X008888Y009265D01*
X008888Y008985D01*
X009028Y008985D01*
X009074Y009032D01*
X009074Y009219D01*
X009074Y009985D02*
X008981Y010078D01*
X009028Y010078D02*
X008888Y010078D01*
X008888Y009985D02*
X008888Y010265D01*
X009028Y010265D01*
X009074Y010219D01*
X009074Y010125D01*
X009028Y010078D01*
X009164Y009985D02*
X009351Y010265D01*
X009164Y010265D02*
X009351Y009985D01*
X009351Y010985D02*
X009164Y011265D01*
X009074Y011265D02*
X008888Y011265D01*
X008981Y011265D02*
X008981Y010985D01*
X009164Y010985D02*
X009351Y011265D01*
D16*
X005814Y002110D02*
X005629Y002110D01*
X005629Y001740D01*
X005814Y001740D01*
X005876Y001802D01*
X005876Y001863D01*
X005814Y001925D01*
X005629Y001925D01*
X005508Y001863D02*
X005508Y001802D01*
X005446Y001740D01*
X005323Y001740D01*
X005261Y001802D01*
X005139Y001802D02*
X005139Y002110D01*
X005261Y002049D02*
X005261Y001987D01*
X005323Y001925D01*
X005446Y001925D01*
X005508Y001863D01*
X005508Y002049D02*
X005446Y002110D01*
X005323Y002110D01*
X005261Y002049D01*
X005139Y001802D02*
X005078Y001740D01*
X004954Y001740D01*
X004893Y001802D01*
X004893Y002110D01*
X004832Y001510D02*
X004709Y001387D01*
X004586Y001510D01*
X004586Y001140D01*
X004832Y001140D02*
X004832Y001510D01*
X004954Y001510D02*
X005077Y001510D01*
X005016Y001510D02*
X005016Y001140D01*
X005077Y001140D02*
X004954Y001140D01*
X005199Y001202D02*
X005261Y001140D01*
X005385Y001140D01*
X005446Y001202D01*
X005568Y001263D02*
X005753Y001263D01*
X005815Y001325D01*
X005815Y001449D01*
X005753Y001510D01*
X005568Y001510D01*
X005568Y001140D01*
X005691Y001263D02*
X005815Y001140D01*
X005936Y001202D02*
X005936Y001449D01*
X005998Y001510D01*
X006121Y001510D01*
X006183Y001449D01*
X006183Y001202D01*
X006121Y001140D01*
X005998Y001140D01*
X005936Y001202D01*
X005814Y001925D02*
X005876Y001987D01*
X005876Y002049D01*
X005814Y002110D01*
X005385Y001510D02*
X005261Y001510D01*
X005199Y001449D01*
X005199Y001202D01*
X005446Y001449D02*
X005385Y001510D01*
D17*
X011680Y024375D02*
X011430Y024625D01*
X011430Y025125D01*
X011680Y025375D01*
X011430Y025625D01*
X011430Y026125D01*
X011680Y026375D01*
X012180Y026375D01*
X012430Y026125D01*
X012430Y025625D01*
X012180Y025375D01*
X012430Y025125D01*
X012430Y024625D01*
X012180Y024375D01*
X011680Y024375D01*
X011680Y025375D02*
X012180Y025375D01*
X013530Y025775D02*
X013530Y027475D01*
X013532Y027492D01*
X013536Y027509D01*
X013543Y027525D01*
X013553Y027539D01*
X013566Y027552D01*
X013580Y027562D01*
X013596Y027569D01*
X013613Y027573D01*
X013630Y027575D01*
X014230Y027575D01*
X014247Y027573D01*
X014264Y027569D01*
X014280Y027562D01*
X014294Y027552D01*
X014307Y027539D01*
X014317Y027525D01*
X014324Y027509D01*
X014328Y027492D01*
X014330Y027475D01*
X014330Y025775D01*
X014328Y025758D01*
X014324Y025741D01*
X014317Y025725D01*
X014307Y025711D01*
X014294Y025698D01*
X014280Y025688D01*
X014264Y025681D01*
X014247Y025677D01*
X014230Y025675D01*
X013630Y025675D01*
X013613Y025677D01*
X013596Y025681D01*
X013580Y025688D01*
X013566Y025698D01*
X013553Y025711D01*
X013543Y025725D01*
X013536Y025741D01*
X013532Y025758D01*
X013530Y025775D01*
M02*
