%
M48
M72
T01C0.0236
T02C0.0315
T03C0.0400
T04C0.1000
%
T01
X11680Y17625
X2930Y17625
X15430Y17625
X9930Y1375
X930Y1375
X9180Y17625
X16680Y11125
X16180Y13125
X16430Y2125
X10930Y5125
X9680Y21125
X5680Y25375
X2180Y8375
X8680Y21125
X9930Y27375
X1680Y8875
X7680Y20875
X9430Y27625
X1680Y4125
X10680Y21125
X10430Y25375
X8680Y4125
X11680Y2375
X13680Y24125
X930Y18875
X13680Y10375
X15180Y10375
X9930Y28875
X5680Y22875
T02
X15680Y25444
X15680Y22806
T03
X11930Y24875
X11930Y25875
T04
X4430Y29375
X13930Y29375
X13930Y20125
X4430Y20125
M30
