G75*
%MOIN*%
%OFA0B0*%
%FSLAX24Y24*%
%IPPOS*%
%LPD*%
%AMOC8*
5,1,8,0,0,1.08239X$1,22.5*
%
%ADD10C,0.0160*%
%ADD11C,0.0000*%
%ADD12R,0.0236X0.0866*%
%ADD13C,0.0600*%
%ADD14R,0.0591X0.0512*%
%ADD15R,0.1000X0.0500*%
%ADD16C,0.0356*%
%ADD17C,0.0320*%
%ADD18C,0.0240*%
D10*
X000180Y001125D02*
X000680Y000625D01*
X017680Y000625D01*
X018180Y001125D01*
X018180Y019625D01*
X017680Y020125D01*
X016680Y020125D01*
X016680Y026125D01*
X016180Y026625D01*
X014680Y026625D01*
X014680Y030625D01*
X014180Y031125D01*
X004180Y031125D01*
X003680Y030625D01*
X003680Y021125D01*
X000680Y021125D01*
X000180Y020625D01*
X000180Y001125D01*
X000460Y001241D02*
X000460Y011625D01*
X001400Y011625D01*
X001400Y009130D01*
X001359Y009089D01*
X001302Y008950D01*
X001302Y008800D01*
X001359Y008661D01*
X001466Y008554D01*
X001605Y008497D01*
X001755Y008497D01*
X001835Y008530D01*
X001802Y008450D01*
X001802Y008300D01*
X001859Y008161D01*
X001966Y008054D01*
X002105Y007997D01*
X002255Y007997D01*
X002394Y008054D01*
X002501Y008161D01*
X002558Y008300D01*
X002558Y008450D01*
X002501Y008589D01*
X002460Y008630D01*
X002460Y011625D01*
X010171Y011625D01*
X003031Y004485D01*
X001799Y004485D01*
X001755Y004503D01*
X001605Y004503D01*
X001466Y004446D01*
X001359Y004339D01*
X001302Y004200D01*
X001302Y004050D01*
X001359Y003911D01*
X001466Y003804D01*
X001605Y003747D01*
X001755Y003747D01*
X001799Y003765D01*
X003252Y003765D01*
X003384Y003820D01*
X003485Y003921D01*
X010884Y011320D01*
X010985Y011421D01*
X011040Y011553D01*
X011040Y021006D01*
X011058Y021050D01*
X011058Y021200D01*
X011001Y021339D01*
X010894Y021446D01*
X010755Y021503D01*
X010605Y021503D01*
X010466Y021446D01*
X010359Y021339D01*
X010302Y021200D01*
X010302Y021050D01*
X010320Y021006D01*
X010320Y014625D01*
X002576Y014625D01*
X002796Y014845D01*
X005736Y014845D01*
X005839Y014888D01*
X008839Y017888D01*
X008917Y017966D01*
X008960Y018069D01*
X008960Y020870D01*
X009001Y020911D01*
X009058Y021050D01*
X009058Y021200D01*
X009001Y021339D01*
X008894Y021446D01*
X008755Y021503D01*
X008605Y021503D01*
X008466Y021446D01*
X008359Y021339D01*
X008302Y021200D01*
X008302Y021050D01*
X008359Y020911D01*
X008400Y020870D01*
X008400Y018241D01*
X007960Y017801D01*
X007960Y020620D01*
X008001Y020661D01*
X008058Y020800D01*
X008058Y020950D01*
X008001Y021089D01*
X007894Y021196D01*
X007755Y021253D01*
X007704Y021253D01*
X011046Y024595D01*
X011205Y024595D01*
X011206Y024592D01*
X011347Y024451D01*
X011531Y024375D01*
X012329Y024375D01*
X012513Y024451D01*
X012577Y024515D01*
X013031Y024515D01*
X013315Y024231D01*
X013302Y024200D01*
X013302Y024050D01*
X013320Y024006D01*
X013320Y023053D01*
X013375Y022921D01*
X015070Y021226D01*
X015070Y020024D01*
X013476Y018430D01*
X013375Y018329D01*
X013320Y018197D01*
X013320Y010494D01*
X013302Y010450D01*
X013302Y010300D01*
X013359Y010161D01*
X013466Y010054D01*
X013605Y009997D01*
X013755Y009997D01*
X013894Y010054D01*
X014001Y010161D01*
X014058Y010300D01*
X014058Y010450D01*
X014040Y010494D01*
X014040Y011006D01*
X014841Y010205D01*
X014859Y010161D01*
X014966Y010054D01*
X015105Y009997D01*
X015255Y009997D01*
X015394Y010054D01*
X015501Y010161D01*
X015558Y010300D01*
X015558Y010450D01*
X015501Y010589D01*
X015394Y010696D01*
X015350Y010714D01*
X014540Y011524D01*
X014540Y017726D01*
X016235Y019421D01*
X016290Y019553D01*
X016290Y021697D01*
X016235Y021829D01*
X016134Y021930D01*
X015615Y022449D01*
X015751Y022449D01*
X015882Y022503D01*
X015983Y022604D01*
X016037Y022735D01*
X016037Y022877D01*
X015983Y023009D01*
X015882Y023109D01*
X015751Y023164D01*
X015609Y023164D01*
X015478Y023109D01*
X015377Y023009D01*
X015323Y022877D01*
X015323Y022742D01*
X014540Y023524D01*
X014540Y024697D01*
X014485Y024829D01*
X013235Y026079D01*
X013134Y026180D01*
X013002Y026235D01*
X012577Y026235D01*
X012513Y026299D01*
X012329Y026375D01*
X011531Y026375D01*
X011347Y026299D01*
X011248Y026200D01*
X011248Y026830D01*
X011131Y026947D01*
X010729Y026947D01*
X010710Y026928D01*
X010710Y027009D01*
X012041Y028340D01*
X012084Y028443D01*
X012084Y028764D01*
X012182Y028764D01*
X012299Y028881D01*
X012299Y029558D01*
X012248Y029609D01*
X012267Y029642D01*
X012279Y029688D01*
X012279Y029920D01*
X011852Y029920D01*
X011852Y030015D01*
X012279Y030015D01*
X012279Y030247D01*
X012267Y030293D01*
X012243Y030334D01*
X012210Y030367D01*
X012169Y030391D01*
X012123Y030403D01*
X011852Y030403D01*
X011852Y030015D01*
X011756Y030015D01*
X011756Y029920D01*
X011329Y029920D01*
X011329Y029688D01*
X011341Y029642D01*
X011360Y029609D01*
X011309Y029558D01*
X011309Y028881D01*
X011426Y028764D01*
X011524Y028764D01*
X011524Y028615D01*
X011197Y028288D01*
X011210Y028319D01*
X011210Y029382D01*
X011248Y029420D01*
X011248Y030452D01*
X011131Y030569D01*
X010729Y030569D01*
X010680Y030520D01*
X010631Y030569D01*
X010229Y030569D01*
X010180Y030520D01*
X010131Y030569D01*
X009729Y030569D01*
X009666Y030506D01*
X009659Y030513D01*
X009618Y030537D01*
X009572Y030549D01*
X009430Y030549D01*
X009288Y030549D01*
X009242Y030537D01*
X009201Y030513D01*
X009180Y030492D01*
X009159Y030513D01*
X009118Y030537D01*
X009072Y030549D01*
X008930Y030549D01*
X008788Y030549D01*
X008742Y030537D01*
X008701Y030513D01*
X008680Y030492D01*
X008659Y030513D01*
X008618Y030537D01*
X008572Y030549D01*
X008430Y030549D01*
X008288Y030549D01*
X008242Y030537D01*
X008201Y030513D01*
X008180Y030492D01*
X008159Y030513D01*
X008118Y030537D01*
X008072Y030549D01*
X007930Y030549D01*
X007788Y030549D01*
X007742Y030537D01*
X007701Y030513D01*
X007680Y030492D01*
X007659Y030513D01*
X007618Y030537D01*
X007572Y030549D01*
X007430Y030549D01*
X007288Y030549D01*
X007242Y030537D01*
X007201Y030513D01*
X007168Y030480D01*
X007144Y030439D01*
X007132Y030393D01*
X007132Y029936D01*
X007132Y029499D01*
X007018Y029499D01*
X007018Y029558D01*
X006967Y029609D01*
X006986Y029642D01*
X006998Y029688D01*
X006998Y029920D01*
X006570Y029920D01*
X006570Y030015D01*
X006475Y030015D01*
X006475Y029920D01*
X006047Y029920D01*
X006047Y029688D01*
X006060Y029642D01*
X006078Y029609D01*
X006027Y029558D01*
X006027Y028881D01*
X006144Y028764D01*
X006901Y028764D01*
X007018Y028881D01*
X007018Y028939D01*
X009552Y028939D01*
X009552Y028800D01*
X009609Y028661D01*
X009716Y028554D01*
X009855Y028497D01*
X009906Y028497D01*
X009412Y028003D01*
X009355Y028003D01*
X009216Y027946D01*
X009109Y027839D01*
X009052Y027700D01*
X009052Y027550D01*
X009109Y027411D01*
X009216Y027304D01*
X009355Y027247D01*
X009505Y027247D01*
X009564Y027271D01*
X009609Y027161D01*
X009716Y027054D01*
X009855Y026997D01*
X010005Y026997D01*
X010144Y027054D01*
X010150Y027060D01*
X010150Y026928D01*
X010131Y026947D01*
X009729Y026947D01*
X009680Y026898D01*
X009631Y026947D01*
X009229Y026947D01*
X009166Y026884D01*
X009159Y026891D01*
X009118Y026915D01*
X009072Y026927D01*
X008930Y026927D01*
X008788Y026927D01*
X008742Y026915D01*
X008701Y026891D01*
X008680Y026870D01*
X008659Y026891D01*
X008618Y026915D01*
X008572Y026927D01*
X008430Y026927D01*
X008288Y026927D01*
X008242Y026915D01*
X008201Y026891D01*
X008180Y026870D01*
X008159Y026891D01*
X008118Y026915D01*
X008072Y026927D01*
X007930Y026927D01*
X007788Y026927D01*
X007742Y026915D01*
X007701Y026891D01*
X007680Y026870D01*
X007659Y026891D01*
X007618Y026915D01*
X007572Y026927D01*
X007430Y026927D01*
X007288Y026927D01*
X007242Y026915D01*
X007201Y026891D01*
X007168Y026858D01*
X007144Y026817D01*
X007132Y026771D01*
X007132Y026314D01*
X007430Y026314D01*
X007430Y026314D01*
X007430Y026927D01*
X007430Y026314D01*
X007430Y026314D01*
X007728Y026314D01*
X007930Y026314D01*
X007930Y026314D01*
X007930Y026927D01*
X007930Y026314D01*
X007930Y026314D01*
X008228Y026314D01*
X008430Y026314D01*
X008430Y026314D01*
X008430Y026927D01*
X008430Y026314D01*
X008430Y026314D01*
X008930Y026314D01*
X008930Y026314D01*
X008930Y026927D01*
X008930Y026314D01*
X008930Y026314D01*
X008632Y026314D01*
X008430Y026314D01*
X008430Y026314D01*
X007930Y026314D01*
X007930Y026314D01*
X007430Y026314D01*
X007430Y026314D01*
X007132Y026314D01*
X007132Y025857D01*
X007144Y025811D01*
X007168Y025770D01*
X007201Y025737D01*
X007242Y025713D01*
X007288Y025701D01*
X007430Y025701D01*
X007572Y025701D01*
X007618Y025713D01*
X007659Y025737D01*
X007680Y025758D01*
X007701Y025737D01*
X007742Y025713D01*
X007788Y025701D01*
X007930Y025701D01*
X008072Y025701D01*
X008118Y025713D01*
X008159Y025737D01*
X008180Y025758D01*
X008201Y025737D01*
X008242Y025713D01*
X008288Y025701D01*
X008430Y025701D01*
X008572Y025701D01*
X008618Y025713D01*
X008659Y025737D01*
X008680Y025758D01*
X008701Y025737D01*
X008742Y025713D01*
X008788Y025701D01*
X008930Y025701D01*
X009072Y025701D01*
X009118Y025713D01*
X009159Y025737D01*
X009166Y025744D01*
X009229Y025681D01*
X009631Y025681D01*
X009680Y025730D01*
X009729Y025681D01*
X010070Y025681D01*
X010070Y025494D01*
X010052Y025450D01*
X010052Y025300D01*
X010109Y025161D01*
X010216Y025054D01*
X010355Y024997D01*
X010505Y024997D01*
X010644Y025054D01*
X010751Y025161D01*
X010808Y025300D01*
X010808Y025450D01*
X010790Y025494D01*
X010790Y025681D01*
X011131Y025681D01*
X011158Y025708D01*
X011206Y025592D01*
X011347Y025451D01*
X011531Y025375D01*
X011347Y025299D01*
X011206Y025158D01*
X011205Y025155D01*
X010874Y025155D01*
X010771Y025112D01*
X010693Y025034D01*
X010595Y025034D01*
X010693Y025034D02*
X006521Y020862D01*
X006443Y020784D01*
X006400Y020681D01*
X006400Y020241D01*
X005314Y019155D01*
X001185Y019155D01*
X001144Y019196D01*
X001005Y019253D01*
X000855Y019253D01*
X000716Y019196D01*
X000609Y019089D01*
X000552Y018950D01*
X000552Y018800D01*
X000609Y018661D01*
X000716Y018554D01*
X000855Y018497D01*
X001005Y018497D01*
X001144Y018554D01*
X001185Y018595D01*
X005486Y018595D01*
X005589Y018638D01*
X005667Y018716D01*
X006917Y019966D01*
X006960Y020069D01*
X006960Y020509D01*
X007302Y020851D01*
X007302Y020800D01*
X007359Y020661D01*
X007400Y020620D01*
X007400Y017741D01*
X005564Y015905D01*
X002624Y015905D01*
X002521Y015862D01*
X001443Y014784D01*
X001400Y014681D01*
X001400Y014625D01*
X000460Y014625D01*
X000460Y020509D01*
X000796Y020845D01*
X003736Y020845D01*
X003839Y020888D01*
X003917Y020966D01*
X003960Y021069D01*
X003960Y028855D01*
X004033Y028782D01*
X004291Y028675D01*
X004569Y028675D01*
X004827Y028782D01*
X005023Y028978D01*
X005130Y029236D01*
X005130Y029514D01*
X005023Y029772D01*
X004827Y029968D01*
X004569Y030075D01*
X004291Y030075D01*
X004033Y029968D01*
X003960Y029895D01*
X003960Y030509D01*
X004296Y030845D01*
X014064Y030845D01*
X014400Y030509D01*
X014400Y029895D01*
X014327Y029968D01*
X014069Y030075D01*
X013791Y030075D01*
X013533Y029968D01*
X013337Y029772D01*
X013230Y029514D01*
X013230Y029236D01*
X013337Y028978D01*
X013533Y028782D01*
X013791Y028675D01*
X014069Y028675D01*
X014327Y028782D01*
X014400Y028855D01*
X014400Y026569D01*
X014443Y026466D01*
X014521Y026388D01*
X014624Y026345D01*
X016064Y026345D01*
X016400Y026009D01*
X016400Y020069D01*
X016443Y019966D01*
X016521Y019888D01*
X016624Y019845D01*
X017564Y019845D01*
X017900Y019509D01*
X017900Y001241D01*
X017564Y000905D01*
X000796Y000905D01*
X000460Y001241D01*
X000460Y001259D02*
X017900Y001259D01*
X017900Y001418D02*
X000460Y001418D01*
X000460Y001576D02*
X017900Y001576D01*
X017900Y001735D02*
X000460Y001735D01*
X000460Y001893D02*
X017900Y001893D01*
X017900Y002052D02*
X011887Y002052D01*
X011894Y002054D02*
X012001Y002161D01*
X012058Y002300D01*
X012058Y002450D01*
X012001Y002589D01*
X011894Y002696D01*
X011850Y002714D01*
X010235Y004329D01*
X010134Y004430D01*
X010002Y004485D01*
X008799Y004485D01*
X008755Y004503D01*
X008605Y004503D01*
X008466Y004446D01*
X008359Y004339D01*
X008302Y004200D01*
X008302Y004050D01*
X008359Y003911D01*
X008466Y003804D01*
X008605Y003747D01*
X008755Y003747D01*
X008799Y003765D01*
X009781Y003765D01*
X011341Y002205D01*
X011359Y002161D01*
X011466Y002054D01*
X011605Y001997D01*
X011755Y001997D01*
X011894Y002054D01*
X012021Y002210D02*
X017900Y002210D01*
X017900Y002369D02*
X012058Y002369D01*
X012026Y002527D02*
X017900Y002527D01*
X017900Y002686D02*
X011904Y002686D01*
X011720Y002844D02*
X017900Y002844D01*
X017900Y003003D02*
X011562Y003003D01*
X011403Y003161D02*
X017900Y003161D01*
X017900Y003320D02*
X011245Y003320D01*
X011086Y003478D02*
X017900Y003478D01*
X017900Y003637D02*
X010928Y003637D01*
X010769Y003795D02*
X017900Y003795D01*
X017900Y003954D02*
X010611Y003954D01*
X010452Y004112D02*
X017900Y004112D01*
X017900Y004271D02*
X010294Y004271D01*
X010135Y004429D02*
X017900Y004429D01*
X017900Y004588D02*
X004152Y004588D01*
X004310Y004746D02*
X017900Y004746D01*
X017900Y004905D02*
X004469Y004905D01*
X004627Y005063D02*
X017900Y005063D01*
X017900Y005222D02*
X004786Y005222D01*
X004944Y005380D02*
X017900Y005380D01*
X017900Y005539D02*
X005103Y005539D01*
X005261Y005697D02*
X017900Y005697D01*
X017900Y005856D02*
X005420Y005856D01*
X005578Y006014D02*
X017900Y006014D01*
X017900Y006173D02*
X005737Y006173D01*
X005895Y006331D02*
X017900Y006331D01*
X017900Y006490D02*
X006054Y006490D01*
X006212Y006648D02*
X017900Y006648D01*
X017900Y006807D02*
X006371Y006807D01*
X006529Y006965D02*
X017900Y006965D01*
X017900Y007124D02*
X006688Y007124D01*
X006846Y007282D02*
X017900Y007282D01*
X017900Y007441D02*
X007005Y007441D01*
X007163Y007599D02*
X017900Y007599D01*
X017900Y007758D02*
X007322Y007758D01*
X007480Y007916D02*
X017900Y007916D01*
X017900Y008075D02*
X007639Y008075D01*
X007797Y008233D02*
X017900Y008233D01*
X017900Y008392D02*
X007956Y008392D01*
X008114Y008550D02*
X017900Y008550D01*
X017900Y008709D02*
X008273Y008709D01*
X008431Y008867D02*
X017900Y008867D01*
X017900Y009026D02*
X008590Y009026D01*
X008748Y009184D02*
X017900Y009184D01*
X017900Y009343D02*
X008907Y009343D01*
X009065Y009501D02*
X017900Y009501D01*
X017900Y009660D02*
X009224Y009660D01*
X009382Y009818D02*
X017900Y009818D01*
X017900Y009977D02*
X009541Y009977D01*
X009699Y010135D02*
X013385Y010135D01*
X013304Y010294D02*
X009858Y010294D01*
X010016Y010452D02*
X013303Y010452D01*
X013320Y010611D02*
X010175Y010611D01*
X010333Y010769D02*
X013320Y010769D01*
X013320Y010928D02*
X010492Y010928D01*
X010650Y011086D02*
X013320Y011086D01*
X013320Y011245D02*
X010809Y011245D01*
X010884Y011320D02*
X010884Y011320D01*
X010967Y011403D02*
X013320Y011403D01*
X013320Y011562D02*
X011040Y011562D01*
X011040Y011720D02*
X013320Y011720D01*
X013320Y011879D02*
X011040Y011879D01*
X011040Y012037D02*
X013320Y012037D01*
X013320Y012196D02*
X011040Y012196D01*
X011040Y012354D02*
X013320Y012354D01*
X013320Y012513D02*
X011040Y012513D01*
X011040Y012671D02*
X013320Y012671D01*
X013320Y012830D02*
X011040Y012830D01*
X011040Y012988D02*
X013320Y012988D01*
X013320Y013147D02*
X011040Y013147D01*
X011040Y013305D02*
X013320Y013305D01*
X013320Y013464D02*
X011040Y013464D01*
X011040Y013622D02*
X013320Y013622D01*
X013320Y013781D02*
X011040Y013781D01*
X011040Y013939D02*
X013320Y013939D01*
X013320Y014098D02*
X011040Y014098D01*
X011040Y014256D02*
X013320Y014256D01*
X013320Y014415D02*
X011040Y014415D01*
X011040Y014573D02*
X013320Y014573D01*
X013320Y014732D02*
X011040Y014732D01*
X011040Y014890D02*
X013320Y014890D01*
X013320Y015049D02*
X011040Y015049D01*
X011040Y015207D02*
X013320Y015207D01*
X013320Y015366D02*
X011040Y015366D01*
X011040Y015524D02*
X013320Y015524D01*
X013320Y015683D02*
X011040Y015683D01*
X011040Y015841D02*
X013320Y015841D01*
X013320Y016000D02*
X011040Y016000D01*
X011040Y016158D02*
X013320Y016158D01*
X013320Y016317D02*
X011040Y016317D01*
X011040Y016475D02*
X013320Y016475D01*
X013320Y016634D02*
X011040Y016634D01*
X011040Y016792D02*
X013320Y016792D01*
X013320Y016951D02*
X011040Y016951D01*
X011040Y017109D02*
X013320Y017109D01*
X013320Y017268D02*
X011040Y017268D01*
X011040Y017426D02*
X013320Y017426D01*
X013320Y017585D02*
X011040Y017585D01*
X011040Y017743D02*
X013320Y017743D01*
X013320Y017902D02*
X011040Y017902D01*
X011040Y018060D02*
X013320Y018060D01*
X013329Y018219D02*
X011040Y018219D01*
X011040Y018377D02*
X013423Y018377D01*
X013581Y018536D02*
X011040Y018536D01*
X011040Y018694D02*
X013740Y018694D01*
X013898Y018853D02*
X011040Y018853D01*
X011040Y019011D02*
X014057Y019011D01*
X014215Y019170D02*
X011040Y019170D01*
X011040Y019328D02*
X014374Y019328D01*
X014327Y019532D02*
X014523Y019728D01*
X014630Y019986D01*
X014630Y020264D01*
X014523Y020522D01*
X014327Y020718D01*
X014069Y020825D01*
X013791Y020825D01*
X013533Y020718D01*
X013337Y020522D01*
X013230Y020264D01*
X013230Y019986D01*
X013337Y019728D01*
X013533Y019532D01*
X013791Y019425D01*
X014069Y019425D01*
X014327Y019532D01*
X014218Y019487D02*
X014532Y019487D01*
X014440Y019645D02*
X014691Y019645D01*
X014555Y019804D02*
X014849Y019804D01*
X015008Y019962D02*
X014620Y019962D01*
X014630Y020121D02*
X015070Y020121D01*
X015070Y020279D02*
X014624Y020279D01*
X014558Y020438D02*
X015070Y020438D01*
X015070Y020596D02*
X014449Y020596D01*
X014239Y020755D02*
X015070Y020755D01*
X015070Y020913D02*
X011040Y020913D01*
X011040Y020755D02*
X013621Y020755D01*
X013411Y020596D02*
X011040Y020596D01*
X011040Y020438D02*
X013302Y020438D01*
X013236Y020279D02*
X011040Y020279D01*
X011040Y020121D02*
X013230Y020121D01*
X013240Y019962D02*
X011040Y019962D01*
X011040Y019804D02*
X013305Y019804D01*
X013420Y019645D02*
X011040Y019645D01*
X011040Y019487D02*
X013642Y019487D01*
X014716Y017902D02*
X017900Y017902D01*
X017900Y018060D02*
X014874Y018060D01*
X015033Y018219D02*
X017900Y018219D01*
X017900Y018377D02*
X015191Y018377D01*
X015350Y018536D02*
X017900Y018536D01*
X017900Y018694D02*
X015508Y018694D01*
X015667Y018853D02*
X017900Y018853D01*
X017900Y019011D02*
X015825Y019011D01*
X015984Y019170D02*
X017900Y019170D01*
X017900Y019328D02*
X016142Y019328D01*
X016262Y019487D02*
X017900Y019487D01*
X017764Y019645D02*
X016290Y019645D01*
X016290Y019804D02*
X017605Y019804D01*
X016447Y019962D02*
X016290Y019962D01*
X016290Y020121D02*
X016400Y020121D01*
X016400Y020279D02*
X016290Y020279D01*
X016290Y020438D02*
X016400Y020438D01*
X016400Y020596D02*
X016290Y020596D01*
X016290Y020755D02*
X016400Y020755D01*
X016400Y020913D02*
X016290Y020913D01*
X016290Y021072D02*
X016400Y021072D01*
X016400Y021230D02*
X016290Y021230D01*
X016290Y021389D02*
X016400Y021389D01*
X016400Y021547D02*
X016290Y021547D01*
X016286Y021706D02*
X016400Y021706D01*
X016400Y021864D02*
X016200Y021864D01*
X016042Y022023D02*
X016400Y022023D01*
X016400Y022181D02*
X015883Y022181D01*
X015725Y022340D02*
X016400Y022340D01*
X016400Y022498D02*
X015870Y022498D01*
X016005Y022657D02*
X016400Y022657D01*
X016400Y022815D02*
X016037Y022815D01*
X015998Y022974D02*
X016400Y022974D01*
X016400Y023132D02*
X015827Y023132D01*
X015533Y023132D02*
X014932Y023132D01*
X014774Y023291D02*
X016400Y023291D01*
X016400Y023449D02*
X014615Y023449D01*
X014540Y023608D02*
X016400Y023608D01*
X016400Y023766D02*
X014540Y023766D01*
X014540Y023925D02*
X016400Y023925D01*
X016400Y024083D02*
X014540Y024083D01*
X014540Y024242D02*
X016400Y024242D01*
X016400Y024400D02*
X014540Y024400D01*
X014540Y024559D02*
X016400Y024559D01*
X016400Y024717D02*
X014532Y024717D01*
X014439Y024876D02*
X016400Y024876D01*
X016400Y025034D02*
X014280Y025034D01*
X014122Y025193D02*
X015426Y025193D01*
X015377Y025241D02*
X015478Y025141D01*
X015609Y025086D01*
X015751Y025086D01*
X015882Y025141D01*
X015983Y025241D01*
X016037Y025373D01*
X016037Y025515D01*
X015983Y025646D01*
X015882Y025747D01*
X015751Y025801D01*
X015609Y025801D01*
X015478Y025747D01*
X015377Y025646D01*
X015323Y025515D01*
X015323Y025373D01*
X015377Y025241D01*
X015332Y025351D02*
X013963Y025351D01*
X013805Y025510D02*
X015323Y025510D01*
X015399Y025668D02*
X013646Y025668D01*
X013488Y025827D02*
X016400Y025827D01*
X016400Y025985D02*
X013329Y025985D01*
X013171Y026144D02*
X016265Y026144D01*
X016107Y026302D02*
X012506Y026302D01*
X012577Y025515D02*
X012781Y025515D01*
X013061Y025235D01*
X012577Y025235D01*
X012513Y025299D01*
X012329Y025375D01*
X011531Y025375D01*
X012329Y025375D01*
X012513Y025451D01*
X012577Y025515D01*
X012572Y025510D02*
X012786Y025510D01*
X012945Y025351D02*
X012387Y025351D01*
X012180Y024875D02*
X010930Y024875D01*
X006680Y020625D01*
X006680Y020125D01*
X005430Y018875D01*
X000930Y018875D01*
X001098Y018536D02*
X007400Y018536D01*
X007400Y018694D02*
X005645Y018694D01*
X005804Y018853D02*
X007400Y018853D01*
X007400Y019011D02*
X005962Y019011D01*
X006121Y019170D02*
X007400Y019170D01*
X007400Y019328D02*
X006279Y019328D01*
X006438Y019487D02*
X007400Y019487D01*
X007400Y019645D02*
X006596Y019645D01*
X006755Y019804D02*
X007400Y019804D01*
X007400Y019962D02*
X006913Y019962D01*
X006960Y020121D02*
X007400Y020121D01*
X007400Y020279D02*
X006960Y020279D01*
X006960Y020438D02*
X007400Y020438D01*
X007400Y020596D02*
X007047Y020596D01*
X007206Y020755D02*
X007321Y020755D01*
X007680Y020875D02*
X007680Y017625D01*
X005680Y015625D01*
X002680Y015625D01*
X001680Y014625D01*
X001680Y008875D01*
X001477Y008550D02*
X000460Y008550D01*
X000460Y008392D02*
X001802Y008392D01*
X001830Y008233D02*
X000460Y008233D01*
X000460Y008075D02*
X001946Y008075D01*
X002180Y008375D02*
X002180Y014625D01*
X002680Y015125D01*
X005680Y015125D01*
X008680Y018125D01*
X008680Y021125D01*
X008951Y021389D02*
X010409Y021389D01*
X010314Y021230D02*
X009046Y021230D01*
X009058Y021072D02*
X010302Y021072D01*
X010320Y020913D02*
X009001Y020913D01*
X008960Y020755D02*
X010320Y020755D01*
X010320Y020596D02*
X008960Y020596D01*
X008960Y020438D02*
X010320Y020438D01*
X010320Y020279D02*
X008960Y020279D01*
X008960Y020121D02*
X010320Y020121D01*
X010320Y019962D02*
X008960Y019962D01*
X008960Y019804D02*
X010320Y019804D01*
X010320Y019645D02*
X008960Y019645D01*
X008960Y019487D02*
X010320Y019487D01*
X010320Y019328D02*
X008960Y019328D01*
X008960Y019170D02*
X010320Y019170D01*
X010320Y019011D02*
X008960Y019011D01*
X008960Y018853D02*
X010320Y018853D01*
X010320Y018694D02*
X008960Y018694D01*
X008960Y018536D02*
X010320Y018536D01*
X010320Y018377D02*
X008960Y018377D01*
X008960Y018219D02*
X010320Y018219D01*
X010320Y018060D02*
X008956Y018060D01*
X008853Y017902D02*
X010320Y017902D01*
X010320Y017743D02*
X008694Y017743D01*
X008536Y017585D02*
X010320Y017585D01*
X010320Y017426D02*
X008377Y017426D01*
X008219Y017268D02*
X010320Y017268D01*
X010320Y017109D02*
X008060Y017109D01*
X007902Y016951D02*
X010320Y016951D01*
X010320Y016792D02*
X007743Y016792D01*
X007585Y016634D02*
X010320Y016634D01*
X010320Y016475D02*
X007426Y016475D01*
X007268Y016317D02*
X010320Y016317D01*
X010320Y016158D02*
X007109Y016158D01*
X006951Y016000D02*
X010320Y016000D01*
X010320Y015841D02*
X006792Y015841D01*
X006634Y015683D02*
X010320Y015683D01*
X010320Y015524D02*
X006475Y015524D01*
X006317Y015366D02*
X010320Y015366D01*
X010320Y015207D02*
X006158Y015207D01*
X006000Y015049D02*
X010320Y015049D01*
X010320Y014890D02*
X005841Y014890D01*
X005659Y016000D02*
X000460Y016000D01*
X000460Y016158D02*
X005817Y016158D01*
X005976Y016317D02*
X000460Y016317D01*
X000460Y016475D02*
X006134Y016475D01*
X006293Y016634D02*
X000460Y016634D01*
X000460Y016792D02*
X006451Y016792D01*
X006610Y016951D02*
X000460Y016951D01*
X000460Y017109D02*
X006768Y017109D01*
X006927Y017268D02*
X000460Y017268D01*
X000460Y017426D02*
X007085Y017426D01*
X007244Y017585D02*
X000460Y017585D01*
X000460Y017743D02*
X007400Y017743D01*
X007400Y017902D02*
X000460Y017902D01*
X000460Y018060D02*
X007400Y018060D01*
X007400Y018219D02*
X000460Y018219D01*
X000460Y018377D02*
X007400Y018377D01*
X007960Y018377D02*
X008400Y018377D01*
X008400Y018536D02*
X007960Y018536D01*
X007960Y018694D02*
X008400Y018694D01*
X008400Y018853D02*
X007960Y018853D01*
X007960Y019011D02*
X008400Y019011D01*
X008400Y019170D02*
X007960Y019170D01*
X007960Y019328D02*
X008400Y019328D01*
X008400Y019487D02*
X007960Y019487D01*
X007960Y019645D02*
X008400Y019645D01*
X008400Y019804D02*
X007960Y019804D01*
X007960Y019962D02*
X008400Y019962D01*
X008400Y020121D02*
X007960Y020121D01*
X007960Y020279D02*
X008400Y020279D01*
X008400Y020438D02*
X007960Y020438D01*
X007960Y020596D02*
X008400Y020596D01*
X008400Y020755D02*
X008039Y020755D01*
X008058Y020913D02*
X008359Y020913D01*
X008302Y021072D02*
X008008Y021072D01*
X007811Y021230D02*
X008314Y021230D01*
X008409Y021389D02*
X007840Y021389D01*
X007998Y021547D02*
X014749Y021547D01*
X014907Y021389D02*
X010951Y021389D01*
X011046Y021230D02*
X015066Y021230D01*
X015070Y021072D02*
X011058Y021072D01*
X009742Y023291D02*
X013320Y023291D01*
X013320Y023449D02*
X009900Y023449D01*
X010059Y023608D02*
X013320Y023608D01*
X013320Y023766D02*
X010217Y023766D01*
X010376Y023925D02*
X013320Y023925D01*
X013302Y024083D02*
X010534Y024083D01*
X010693Y024242D02*
X013304Y024242D01*
X013146Y024400D02*
X012390Y024400D01*
X011930Y024875D02*
X011899Y024844D01*
X011470Y024400D02*
X010851Y024400D01*
X011010Y024559D02*
X011239Y024559D01*
X011240Y025193D02*
X010764Y025193D01*
X010808Y025351D02*
X011473Y025351D01*
X011288Y025510D02*
X010790Y025510D01*
X010790Y025668D02*
X011175Y025668D01*
X011248Y026302D02*
X011354Y026302D01*
X011248Y026461D02*
X014448Y026461D01*
X014400Y026619D02*
X011248Y026619D01*
X011248Y026778D02*
X014400Y026778D01*
X014400Y026936D02*
X011142Y026936D01*
X010954Y027253D02*
X014400Y027253D01*
X014400Y027095D02*
X010796Y027095D01*
X010718Y026936D02*
X010710Y026936D01*
X010430Y027125D02*
X010430Y026625D01*
X010430Y026314D01*
X010430Y026125D01*
X010070Y025668D02*
X005355Y025668D01*
X005360Y025649D02*
X005348Y025694D01*
X005324Y025736D01*
X005291Y025769D01*
X005249Y025793D01*
X005204Y025805D01*
X004725Y025805D01*
X004725Y025420D01*
X004635Y025420D01*
X004635Y025805D01*
X004156Y025805D01*
X004111Y025793D01*
X004069Y025769D01*
X004036Y025736D01*
X004012Y025694D01*
X004000Y025649D01*
X004000Y025420D01*
X004635Y025420D01*
X004635Y025330D01*
X004725Y025330D01*
X004725Y025420D01*
X005360Y025420D01*
X005360Y025649D01*
X005360Y025510D02*
X010070Y025510D01*
X010052Y025351D02*
X004725Y025351D01*
X004725Y025330D02*
X005360Y025330D01*
X005360Y025101D01*
X005348Y025056D01*
X005324Y025014D01*
X005291Y024981D01*
X005249Y024957D01*
X005204Y024945D01*
X004725Y024945D01*
X004725Y025330D01*
X004635Y025330D02*
X004635Y024945D01*
X004156Y024945D01*
X004111Y024957D01*
X004069Y024981D01*
X004036Y025014D01*
X004012Y025056D01*
X004000Y025101D01*
X004000Y025330D01*
X004635Y025330D01*
X004635Y025351D02*
X003960Y025351D01*
X003960Y025193D02*
X004000Y025193D01*
X004025Y025034D02*
X003960Y025034D01*
X003960Y024876D02*
X010535Y024876D01*
X010693Y025034D02*
X010693Y025034D01*
X010376Y024717D02*
X003960Y024717D01*
X003960Y024559D02*
X010218Y024559D01*
X010059Y024400D02*
X003960Y024400D01*
X003960Y024242D02*
X009901Y024242D01*
X009742Y024083D02*
X003960Y024083D01*
X003960Y023925D02*
X009584Y023925D01*
X009425Y023766D02*
X003960Y023766D01*
X003960Y023608D02*
X009267Y023608D01*
X009108Y023449D02*
X003960Y023449D01*
X003960Y023291D02*
X004063Y023291D01*
X004097Y023325D02*
X003980Y023208D01*
X003980Y022542D01*
X004097Y022425D01*
X005263Y022425D01*
X005380Y022542D01*
X005380Y022595D01*
X005425Y022595D01*
X005466Y022554D01*
X005605Y022497D01*
X005755Y022497D01*
X005894Y022554D01*
X006001Y022661D01*
X006058Y022800D01*
X006058Y022950D01*
X006001Y023089D01*
X005894Y023196D01*
X005755Y023253D01*
X005605Y023253D01*
X005466Y023196D01*
X005425Y023155D01*
X005380Y023155D01*
X005380Y023208D01*
X005263Y023325D01*
X004097Y023325D01*
X003980Y023132D02*
X003960Y023132D01*
X003960Y022974D02*
X003980Y022974D01*
X003980Y022815D02*
X003960Y022815D01*
X003960Y022657D02*
X003980Y022657D01*
X003960Y022498D02*
X004024Y022498D01*
X003960Y022340D02*
X007999Y022340D01*
X008157Y022498D02*
X005758Y022498D01*
X005602Y022498D02*
X005336Y022498D01*
X005680Y022875D02*
X004680Y022875D01*
X005297Y023291D02*
X008950Y023291D01*
X008791Y023132D02*
X005958Y023132D01*
X006048Y022974D02*
X008633Y022974D01*
X008474Y022815D02*
X006058Y022815D01*
X005996Y022657D02*
X008316Y022657D01*
X008791Y022340D02*
X013956Y022340D01*
X013798Y022498D02*
X008949Y022498D01*
X009108Y022657D02*
X013639Y022657D01*
X013481Y022815D02*
X009266Y022815D01*
X009425Y022974D02*
X013353Y022974D01*
X013320Y023132D02*
X009583Y023132D01*
X008632Y022181D02*
X014115Y022181D01*
X014273Y022023D02*
X008474Y022023D01*
X008315Y021864D02*
X014432Y021864D01*
X014590Y021706D02*
X008157Y021706D01*
X007840Y022181D02*
X003960Y022181D01*
X003960Y022023D02*
X007682Y022023D01*
X007523Y021864D02*
X003960Y021864D01*
X003960Y021706D02*
X007365Y021706D01*
X007206Y021547D02*
X003960Y021547D01*
X003960Y021389D02*
X007048Y021389D01*
X006889Y021230D02*
X003960Y021230D01*
X003960Y021072D02*
X006731Y021072D01*
X006572Y020913D02*
X003864Y020913D01*
X004033Y020718D02*
X003837Y020522D01*
X003730Y020264D01*
X003730Y019986D01*
X003837Y019728D01*
X004033Y019532D01*
X004291Y019425D01*
X004569Y019425D01*
X004827Y019532D01*
X005023Y019728D01*
X005130Y019986D01*
X005130Y020264D01*
X005023Y020522D01*
X004827Y020718D01*
X004569Y020825D01*
X004291Y020825D01*
X004033Y020718D01*
X004121Y020755D02*
X000706Y020755D01*
X000547Y020596D02*
X003911Y020596D01*
X003802Y020438D02*
X000460Y020438D01*
X000460Y020279D02*
X003736Y020279D01*
X003730Y020121D02*
X000460Y020121D01*
X000460Y019962D02*
X003740Y019962D01*
X003805Y019804D02*
X000460Y019804D01*
X000460Y019645D02*
X003920Y019645D01*
X004142Y019487D02*
X000460Y019487D01*
X000460Y019328D02*
X005487Y019328D01*
X005329Y019170D02*
X001170Y019170D01*
X000762Y018536D02*
X000460Y018536D01*
X000460Y018694D02*
X000596Y018694D01*
X000552Y018853D02*
X000460Y018853D01*
X000460Y019011D02*
X000577Y019011D01*
X000690Y019170D02*
X000460Y019170D01*
X000460Y015841D02*
X002500Y015841D01*
X002342Y015683D02*
X000460Y015683D01*
X000460Y015524D02*
X002183Y015524D01*
X002025Y015366D02*
X000460Y015366D01*
X000460Y015207D02*
X001866Y015207D01*
X001708Y015049D02*
X000460Y015049D01*
X000460Y014890D02*
X001549Y014890D01*
X001421Y014732D02*
X000460Y014732D01*
X000460Y011562D02*
X001400Y011562D01*
X001400Y011403D02*
X000460Y011403D01*
X000460Y011245D02*
X001400Y011245D01*
X001400Y011086D02*
X000460Y011086D01*
X000460Y010928D02*
X001400Y010928D01*
X001400Y010769D02*
X000460Y010769D01*
X000460Y010611D02*
X001400Y010611D01*
X001400Y010452D02*
X000460Y010452D01*
X000460Y010294D02*
X001400Y010294D01*
X001400Y010135D02*
X000460Y010135D01*
X000460Y009977D02*
X001400Y009977D01*
X001400Y009818D02*
X000460Y009818D01*
X000460Y009660D02*
X001400Y009660D01*
X001400Y009501D02*
X000460Y009501D01*
X000460Y009343D02*
X001400Y009343D01*
X001400Y009184D02*
X000460Y009184D01*
X000460Y009026D02*
X001333Y009026D01*
X001302Y008867D02*
X000460Y008867D01*
X000460Y008709D02*
X001340Y008709D01*
X000460Y007916D02*
X006462Y007916D01*
X006620Y008075D02*
X002414Y008075D01*
X002530Y008233D02*
X006779Y008233D01*
X006937Y008392D02*
X002558Y008392D01*
X002517Y008550D02*
X007096Y008550D01*
X007254Y008709D02*
X002460Y008709D01*
X002460Y008867D02*
X007413Y008867D01*
X007571Y009026D02*
X002460Y009026D01*
X002460Y009184D02*
X007730Y009184D01*
X007888Y009343D02*
X002460Y009343D01*
X002460Y009501D02*
X008047Y009501D01*
X008205Y009660D02*
X002460Y009660D01*
X002460Y009818D02*
X008364Y009818D01*
X008522Y009977D02*
X002460Y009977D01*
X002460Y010135D02*
X008681Y010135D01*
X008839Y010294D02*
X002460Y010294D01*
X002460Y010452D02*
X008998Y010452D01*
X009156Y010611D02*
X002460Y010611D01*
X002460Y010769D02*
X009315Y010769D01*
X009473Y010928D02*
X002460Y010928D01*
X002460Y011086D02*
X009632Y011086D01*
X009790Y011245D02*
X002460Y011245D01*
X002460Y011403D02*
X009949Y011403D01*
X010107Y011562D02*
X002460Y011562D01*
X002683Y014732D02*
X010320Y014732D01*
X008378Y018219D02*
X007960Y018219D01*
X007960Y018060D02*
X008219Y018060D01*
X008061Y017902D02*
X007960Y017902D01*
X006280Y020121D02*
X005130Y020121D01*
X005124Y020279D02*
X006400Y020279D01*
X006400Y020438D02*
X005058Y020438D01*
X004949Y020596D02*
X006400Y020596D01*
X006431Y020755D02*
X004739Y020755D01*
X005120Y019962D02*
X006121Y019962D01*
X005963Y019804D02*
X005055Y019804D01*
X004940Y019645D02*
X005804Y019645D01*
X005646Y019487D02*
X004718Y019487D01*
X006521Y020862D02*
X006521Y020862D01*
X005335Y025034D02*
X010265Y025034D01*
X010096Y025193D02*
X005360Y025193D01*
X004725Y025193D02*
X004635Y025193D01*
X004635Y025034D02*
X004725Y025034D01*
X004725Y025510D02*
X004635Y025510D01*
X004635Y025668D02*
X004725Y025668D01*
X004005Y025668D02*
X003960Y025668D01*
X003960Y025510D02*
X004000Y025510D01*
X003960Y025827D02*
X007140Y025827D01*
X007132Y025985D02*
X003960Y025985D01*
X003960Y026144D02*
X007132Y026144D01*
X007132Y026302D02*
X003960Y026302D01*
X003960Y026461D02*
X007132Y026461D01*
X007132Y026619D02*
X003960Y026619D01*
X003960Y026778D02*
X007134Y026778D01*
X007430Y026778D02*
X007430Y026778D01*
X007430Y026619D02*
X007430Y026619D01*
X007430Y026461D02*
X007430Y026461D01*
X007430Y026314D02*
X007430Y025701D01*
X007430Y026314D01*
X007430Y026314D01*
X007430Y026302D02*
X007430Y026302D01*
X007430Y026144D02*
X007430Y026144D01*
X007430Y025985D02*
X007430Y025985D01*
X007430Y025827D02*
X007430Y025827D01*
X007930Y025827D02*
X007930Y025827D01*
X007930Y025701D02*
X007930Y026314D01*
X007930Y026314D01*
X007930Y025701D01*
X007930Y025985D02*
X007930Y025985D01*
X007930Y026144D02*
X007930Y026144D01*
X007930Y026302D02*
X007930Y026302D01*
X007930Y026461D02*
X007930Y026461D01*
X007930Y026619D02*
X007930Y026619D01*
X007930Y026778D02*
X007930Y026778D01*
X008430Y026778D02*
X008430Y026778D01*
X008430Y026619D02*
X008430Y026619D01*
X008430Y026461D02*
X008430Y026461D01*
X008430Y026314D02*
X008430Y025701D01*
X008430Y026314D01*
X008430Y026314D01*
X008430Y026302D02*
X008430Y026302D01*
X008430Y026144D02*
X008430Y026144D01*
X008430Y025985D02*
X008430Y025985D01*
X008430Y025827D02*
X008430Y025827D01*
X008930Y025827D02*
X008930Y025827D01*
X008930Y025701D02*
X008930Y026314D01*
X008930Y026314D01*
X008930Y025701D01*
X008930Y025985D02*
X008930Y025985D01*
X008930Y026144D02*
X008930Y026144D01*
X008930Y026302D02*
X008930Y026302D01*
X008930Y026461D02*
X008930Y026461D01*
X008930Y026619D02*
X008930Y026619D01*
X008930Y026778D02*
X008930Y026778D01*
X009218Y026936D02*
X003960Y026936D01*
X003960Y027095D02*
X009676Y027095D01*
X009642Y026936D02*
X009718Y026936D01*
X009571Y027253D02*
X009520Y027253D01*
X009340Y027253D02*
X003960Y027253D01*
X003960Y027412D02*
X009109Y027412D01*
X009052Y027570D02*
X003960Y027570D01*
X003960Y027729D02*
X009064Y027729D01*
X009157Y027887D02*
X003960Y027887D01*
X003960Y028046D02*
X009455Y028046D01*
X009613Y028204D02*
X003960Y028204D01*
X003960Y028363D02*
X009772Y028363D01*
X009796Y028521D02*
X003960Y028521D01*
X003960Y028680D02*
X004280Y028680D01*
X004580Y028680D02*
X009602Y028680D01*
X009552Y028838D02*
X006975Y028838D01*
X006523Y029219D02*
X009836Y029219D01*
X009854Y029217D01*
X009872Y029212D01*
X009888Y029203D01*
X009902Y029191D01*
X009914Y029177D01*
X009923Y029161D01*
X009928Y029143D01*
X009930Y029125D01*
X010430Y028625D02*
X010430Y029936D01*
X010930Y029936D02*
X010930Y028375D01*
X009930Y027375D01*
X010142Y026936D02*
X010150Y026936D01*
X010430Y027125D02*
X011804Y028499D01*
X011804Y029219D01*
X012299Y029155D02*
X013263Y029155D01*
X013230Y029314D02*
X012299Y029314D01*
X012299Y029472D02*
X013230Y029472D01*
X013278Y029631D02*
X012260Y029631D01*
X012279Y029789D02*
X013354Y029789D01*
X013513Y029948D02*
X011852Y029948D01*
X011756Y029948D02*
X011248Y029948D01*
X011329Y030015D02*
X011329Y030247D01*
X011341Y030293D01*
X011365Y030334D01*
X011398Y030367D01*
X011439Y030391D01*
X011485Y030403D01*
X011756Y030403D01*
X011756Y030015D01*
X011329Y030015D01*
X011329Y030106D02*
X011248Y030106D01*
X011248Y030265D02*
X011333Y030265D01*
X011248Y030423D02*
X014400Y030423D01*
X014400Y030265D02*
X012275Y030265D01*
X012279Y030106D02*
X014400Y030106D01*
X014400Y029948D02*
X014347Y029948D01*
X014327Y030582D02*
X004033Y030582D01*
X003960Y030423D02*
X007140Y030423D01*
X007132Y030265D02*
X006993Y030265D01*
X006998Y030247D02*
X006986Y030293D01*
X006962Y030334D01*
X006928Y030367D01*
X006887Y030391D01*
X006841Y030403D01*
X006570Y030403D01*
X006570Y030015D01*
X006998Y030015D01*
X006998Y030247D01*
X006998Y030106D02*
X007132Y030106D01*
X007132Y029948D02*
X006570Y029948D01*
X006475Y029948D02*
X004847Y029948D01*
X005006Y029789D02*
X006047Y029789D01*
X006066Y029631D02*
X005082Y029631D01*
X005130Y029472D02*
X006027Y029472D01*
X006027Y029314D02*
X005130Y029314D01*
X005097Y029155D02*
X006027Y029155D01*
X006027Y028997D02*
X005031Y028997D01*
X004883Y028838D02*
X006070Y028838D01*
X006047Y030015D02*
X006475Y030015D01*
X006475Y030403D01*
X006204Y030403D01*
X006158Y030391D01*
X006117Y030367D01*
X006083Y030334D01*
X006060Y030293D01*
X006047Y030247D01*
X006047Y030015D01*
X006047Y030106D02*
X003960Y030106D01*
X003960Y029948D02*
X004013Y029948D01*
X003960Y030265D02*
X006052Y030265D01*
X006475Y030265D02*
X006570Y030265D01*
X006570Y030106D02*
X006475Y030106D01*
X006998Y029789D02*
X007132Y029789D01*
X007132Y029936D02*
X007430Y029936D01*
X007430Y029936D01*
X007632Y029936D01*
X007930Y029936D01*
X007930Y029936D01*
X008430Y029936D01*
X008430Y029936D01*
X008930Y029936D01*
X008930Y029936D01*
X009430Y029936D01*
X009430Y029499D01*
X009430Y029936D01*
X009430Y029936D01*
X009610Y029936D01*
X009610Y029936D01*
X009430Y029936D01*
X009430Y029936D01*
X009430Y029936D01*
X009228Y029936D01*
X008930Y029936D01*
X008930Y029936D01*
X008728Y029936D01*
X008430Y029936D01*
X008430Y029936D01*
X008228Y029936D01*
X007930Y029936D01*
X007930Y029936D01*
X007430Y029936D01*
X007430Y029936D01*
X007132Y029936D01*
X007132Y029631D02*
X006979Y029631D01*
X007430Y029936D02*
X007430Y030549D01*
X007430Y029936D01*
X007430Y029936D01*
X007430Y029948D02*
X007430Y029948D01*
X007430Y030106D02*
X007430Y030106D01*
X007430Y030265D02*
X007430Y030265D01*
X007430Y030423D02*
X007430Y030423D01*
X007930Y030423D02*
X007930Y030423D01*
X007930Y030549D02*
X007930Y029936D01*
X007930Y029936D01*
X007930Y030549D01*
X007930Y030265D02*
X007930Y030265D01*
X007930Y030106D02*
X007930Y030106D01*
X007930Y029948D02*
X007930Y029948D01*
X008430Y029948D02*
X008430Y029948D01*
X008430Y029936D02*
X008430Y030549D01*
X008430Y029936D01*
X008430Y029936D01*
X008430Y030106D02*
X008430Y030106D01*
X008430Y030265D02*
X008430Y030265D01*
X008430Y030423D02*
X008430Y030423D01*
X008930Y030423D02*
X008930Y030423D01*
X008930Y030549D02*
X008930Y029936D01*
X008930Y029936D01*
X008930Y030549D01*
X008930Y030265D02*
X008930Y030265D01*
X008930Y030106D02*
X008930Y030106D01*
X008930Y029948D02*
X008930Y029948D01*
X009430Y029948D02*
X009430Y029948D01*
X009430Y029936D02*
X009430Y030549D01*
X009430Y029936D01*
X009430Y029936D01*
X009430Y029789D02*
X009430Y029789D01*
X009430Y029631D02*
X009430Y029631D01*
X009430Y029499D02*
X009430Y029499D01*
X009430Y030106D02*
X009430Y030106D01*
X009430Y030265D02*
X009430Y030265D01*
X009430Y030423D02*
X009430Y030423D01*
X010430Y028625D02*
X009430Y027625D01*
X011113Y027412D02*
X014400Y027412D01*
X014400Y027570D02*
X011271Y027570D01*
X011430Y027729D02*
X014400Y027729D01*
X014400Y027887D02*
X011588Y027887D01*
X011747Y028046D02*
X014400Y028046D01*
X014400Y028204D02*
X011905Y028204D01*
X012051Y028363D02*
X014400Y028363D01*
X014400Y028521D02*
X012084Y028521D01*
X012084Y028680D02*
X013780Y028680D01*
X014080Y028680D02*
X014400Y028680D01*
X014383Y028838D02*
X014400Y028838D01*
X013477Y028838D02*
X012257Y028838D01*
X012299Y028997D02*
X013329Y028997D01*
X014169Y030740D02*
X004191Y030740D01*
X003977Y028838D02*
X003960Y028838D01*
X011210Y028838D02*
X011351Y028838D01*
X011309Y028997D02*
X011210Y028997D01*
X011210Y029155D02*
X011309Y029155D01*
X011309Y029314D02*
X011210Y029314D01*
X011248Y029472D02*
X011309Y029472D01*
X011348Y029631D02*
X011248Y029631D01*
X011248Y029789D02*
X011329Y029789D01*
X011756Y030106D02*
X011852Y030106D01*
X011852Y030265D02*
X011756Y030265D01*
X011524Y028680D02*
X011210Y028680D01*
X011210Y028521D02*
X011430Y028521D01*
X011272Y028363D02*
X011210Y028363D01*
X015091Y022974D02*
X015362Y022974D01*
X015323Y022815D02*
X015249Y022815D01*
X015934Y025193D02*
X016400Y025193D01*
X016400Y025351D02*
X016028Y025351D01*
X016037Y025510D02*
X016400Y025510D01*
X016400Y025668D02*
X015961Y025668D01*
X014557Y017743D02*
X017900Y017743D01*
X017900Y017585D02*
X014540Y017585D01*
X014540Y017426D02*
X017900Y017426D01*
X017900Y017268D02*
X014540Y017268D01*
X014540Y017109D02*
X017900Y017109D01*
X017900Y016951D02*
X014540Y016951D01*
X014540Y016792D02*
X017900Y016792D01*
X017900Y016634D02*
X014540Y016634D01*
X014540Y016475D02*
X017900Y016475D01*
X017900Y016317D02*
X014540Y016317D01*
X014540Y016158D02*
X017900Y016158D01*
X017900Y016000D02*
X014540Y016000D01*
X014540Y015841D02*
X017900Y015841D01*
X017900Y015683D02*
X014540Y015683D01*
X014540Y015524D02*
X017900Y015524D01*
X017900Y015366D02*
X014540Y015366D01*
X014540Y015207D02*
X017900Y015207D01*
X017900Y015049D02*
X014540Y015049D01*
X014540Y014890D02*
X017900Y014890D01*
X017900Y014732D02*
X014540Y014732D01*
X014540Y014573D02*
X017900Y014573D01*
X017900Y014415D02*
X014540Y014415D01*
X014540Y014256D02*
X017900Y014256D01*
X017900Y014098D02*
X014540Y014098D01*
X014540Y013939D02*
X017900Y013939D01*
X017900Y013781D02*
X014540Y013781D01*
X014540Y013622D02*
X017900Y013622D01*
X017900Y013464D02*
X014540Y013464D01*
X014540Y013305D02*
X017900Y013305D01*
X017900Y013147D02*
X014540Y013147D01*
X014540Y012988D02*
X017900Y012988D01*
X017900Y012830D02*
X014540Y012830D01*
X014540Y012671D02*
X017900Y012671D01*
X017900Y012513D02*
X014540Y012513D01*
X014540Y012354D02*
X017900Y012354D01*
X017900Y012196D02*
X014540Y012196D01*
X014540Y012037D02*
X017900Y012037D01*
X017900Y011879D02*
X014540Y011879D01*
X014540Y011720D02*
X017900Y011720D01*
X017900Y011562D02*
X014540Y011562D01*
X014661Y011403D02*
X017900Y011403D01*
X017900Y011245D02*
X014820Y011245D01*
X014978Y011086D02*
X017900Y011086D01*
X017900Y010928D02*
X015137Y010928D01*
X015295Y010769D02*
X017900Y010769D01*
X017900Y010611D02*
X015479Y010611D01*
X015557Y010452D02*
X017900Y010452D01*
X017900Y010294D02*
X015556Y010294D01*
X015475Y010135D02*
X017900Y010135D01*
X014885Y010135D02*
X013975Y010135D01*
X014056Y010294D02*
X014752Y010294D01*
X014594Y010452D02*
X014057Y010452D01*
X014040Y010611D02*
X014435Y010611D01*
X014277Y010769D02*
X014040Y010769D01*
X014040Y010928D02*
X014118Y010928D01*
X009909Y003637D02*
X000460Y003637D01*
X000460Y003795D02*
X001489Y003795D01*
X001342Y003954D02*
X000460Y003954D01*
X000460Y004112D02*
X001302Y004112D01*
X001331Y004271D02*
X000460Y004271D01*
X000460Y004429D02*
X001449Y004429D01*
X000460Y004588D02*
X003133Y004588D01*
X003292Y004746D02*
X000460Y004746D01*
X000460Y004905D02*
X003450Y004905D01*
X003609Y005063D02*
X000460Y005063D01*
X000460Y005222D02*
X003767Y005222D01*
X003926Y005380D02*
X000460Y005380D01*
X000460Y005539D02*
X004084Y005539D01*
X004243Y005697D02*
X000460Y005697D01*
X000460Y005856D02*
X004401Y005856D01*
X004560Y006014D02*
X000460Y006014D01*
X000460Y006173D02*
X004718Y006173D01*
X004877Y006331D02*
X000460Y006331D01*
X000460Y006490D02*
X005035Y006490D01*
X005194Y006648D02*
X000460Y006648D01*
X000460Y006807D02*
X005352Y006807D01*
X005511Y006965D02*
X000460Y006965D01*
X000460Y007124D02*
X005669Y007124D01*
X005828Y007282D02*
X000460Y007282D01*
X000460Y007441D02*
X005986Y007441D01*
X006145Y007599D02*
X000460Y007599D01*
X000460Y007758D02*
X006303Y007758D01*
X008331Y004271D02*
X003835Y004271D01*
X003993Y004429D02*
X008449Y004429D01*
X008302Y004112D02*
X003676Y004112D01*
X003518Y003954D02*
X008342Y003954D01*
X008489Y003795D02*
X003324Y003795D01*
X000759Y000942D02*
X017601Y000942D01*
X017760Y001101D02*
X000600Y001101D01*
X000460Y002052D02*
X011473Y002052D01*
X011336Y002210D02*
X000460Y002210D01*
X000460Y002369D02*
X011177Y002369D01*
X011019Y002527D02*
X000460Y002527D01*
X000460Y002686D02*
X010860Y002686D01*
X010702Y002844D02*
X000460Y002844D01*
X000460Y003003D02*
X010543Y003003D01*
X010385Y003161D02*
X000460Y003161D01*
X000460Y003320D02*
X010226Y003320D01*
X010068Y003478D02*
X000460Y003478D01*
D11*
X003930Y020125D02*
X003932Y020169D01*
X003938Y020213D01*
X003948Y020256D01*
X003961Y020298D01*
X003978Y020339D01*
X003999Y020378D01*
X004023Y020415D01*
X004050Y020450D01*
X004080Y020482D01*
X004113Y020512D01*
X004149Y020538D01*
X004186Y020562D01*
X004226Y020581D01*
X004267Y020598D01*
X004310Y020610D01*
X004353Y020619D01*
X004397Y020624D01*
X004441Y020625D01*
X004485Y020622D01*
X004529Y020615D01*
X004572Y020604D01*
X004614Y020590D01*
X004654Y020572D01*
X004693Y020550D01*
X004729Y020526D01*
X004763Y020498D01*
X004795Y020467D01*
X004824Y020433D01*
X004850Y020397D01*
X004872Y020359D01*
X004891Y020319D01*
X004906Y020277D01*
X004918Y020235D01*
X004926Y020191D01*
X004930Y020147D01*
X004930Y020103D01*
X004926Y020059D01*
X004918Y020015D01*
X004906Y019973D01*
X004891Y019931D01*
X004872Y019891D01*
X004850Y019853D01*
X004824Y019817D01*
X004795Y019783D01*
X004763Y019752D01*
X004729Y019724D01*
X004693Y019700D01*
X004654Y019678D01*
X004614Y019660D01*
X004572Y019646D01*
X004529Y019635D01*
X004485Y019628D01*
X004441Y019625D01*
X004397Y019626D01*
X004353Y019631D01*
X004310Y019640D01*
X004267Y019652D01*
X004226Y019669D01*
X004186Y019688D01*
X004149Y019712D01*
X004113Y019738D01*
X004080Y019768D01*
X004050Y019800D01*
X004023Y019835D01*
X003999Y019872D01*
X003978Y019911D01*
X003961Y019952D01*
X003948Y019994D01*
X003938Y020037D01*
X003932Y020081D01*
X003930Y020125D01*
X003930Y029375D02*
X003932Y029419D01*
X003938Y029463D01*
X003948Y029506D01*
X003961Y029548D01*
X003978Y029589D01*
X003999Y029628D01*
X004023Y029665D01*
X004050Y029700D01*
X004080Y029732D01*
X004113Y029762D01*
X004149Y029788D01*
X004186Y029812D01*
X004226Y029831D01*
X004267Y029848D01*
X004310Y029860D01*
X004353Y029869D01*
X004397Y029874D01*
X004441Y029875D01*
X004485Y029872D01*
X004529Y029865D01*
X004572Y029854D01*
X004614Y029840D01*
X004654Y029822D01*
X004693Y029800D01*
X004729Y029776D01*
X004763Y029748D01*
X004795Y029717D01*
X004824Y029683D01*
X004850Y029647D01*
X004872Y029609D01*
X004891Y029569D01*
X004906Y029527D01*
X004918Y029485D01*
X004926Y029441D01*
X004930Y029397D01*
X004930Y029353D01*
X004926Y029309D01*
X004918Y029265D01*
X004906Y029223D01*
X004891Y029181D01*
X004872Y029141D01*
X004850Y029103D01*
X004824Y029067D01*
X004795Y029033D01*
X004763Y029002D01*
X004729Y028974D01*
X004693Y028950D01*
X004654Y028928D01*
X004614Y028910D01*
X004572Y028896D01*
X004529Y028885D01*
X004485Y028878D01*
X004441Y028875D01*
X004397Y028876D01*
X004353Y028881D01*
X004310Y028890D01*
X004267Y028902D01*
X004226Y028919D01*
X004186Y028938D01*
X004149Y028962D01*
X004113Y028988D01*
X004080Y029018D01*
X004050Y029050D01*
X004023Y029085D01*
X003999Y029122D01*
X003978Y029161D01*
X003961Y029202D01*
X003948Y029244D01*
X003938Y029287D01*
X003932Y029331D01*
X003930Y029375D01*
X013430Y029375D02*
X013432Y029419D01*
X013438Y029463D01*
X013448Y029506D01*
X013461Y029548D01*
X013478Y029589D01*
X013499Y029628D01*
X013523Y029665D01*
X013550Y029700D01*
X013580Y029732D01*
X013613Y029762D01*
X013649Y029788D01*
X013686Y029812D01*
X013726Y029831D01*
X013767Y029848D01*
X013810Y029860D01*
X013853Y029869D01*
X013897Y029874D01*
X013941Y029875D01*
X013985Y029872D01*
X014029Y029865D01*
X014072Y029854D01*
X014114Y029840D01*
X014154Y029822D01*
X014193Y029800D01*
X014229Y029776D01*
X014263Y029748D01*
X014295Y029717D01*
X014324Y029683D01*
X014350Y029647D01*
X014372Y029609D01*
X014391Y029569D01*
X014406Y029527D01*
X014418Y029485D01*
X014426Y029441D01*
X014430Y029397D01*
X014430Y029353D01*
X014426Y029309D01*
X014418Y029265D01*
X014406Y029223D01*
X014391Y029181D01*
X014372Y029141D01*
X014350Y029103D01*
X014324Y029067D01*
X014295Y029033D01*
X014263Y029002D01*
X014229Y028974D01*
X014193Y028950D01*
X014154Y028928D01*
X014114Y028910D01*
X014072Y028896D01*
X014029Y028885D01*
X013985Y028878D01*
X013941Y028875D01*
X013897Y028876D01*
X013853Y028881D01*
X013810Y028890D01*
X013767Y028902D01*
X013726Y028919D01*
X013686Y028938D01*
X013649Y028962D01*
X013613Y028988D01*
X013580Y029018D01*
X013550Y029050D01*
X013523Y029085D01*
X013499Y029122D01*
X013478Y029161D01*
X013461Y029202D01*
X013448Y029244D01*
X013438Y029287D01*
X013432Y029331D01*
X013430Y029375D01*
X015523Y025444D02*
X015525Y025469D01*
X015531Y025493D01*
X015540Y025515D01*
X015553Y025536D01*
X015569Y025555D01*
X015588Y025571D01*
X015609Y025584D01*
X015631Y025593D01*
X015655Y025599D01*
X015680Y025601D01*
X015705Y025599D01*
X015729Y025593D01*
X015751Y025584D01*
X015772Y025571D01*
X015791Y025555D01*
X015807Y025536D01*
X015820Y025515D01*
X015829Y025493D01*
X015835Y025469D01*
X015837Y025444D01*
X015835Y025419D01*
X015829Y025395D01*
X015820Y025373D01*
X015807Y025352D01*
X015791Y025333D01*
X015772Y025317D01*
X015751Y025304D01*
X015729Y025295D01*
X015705Y025289D01*
X015680Y025287D01*
X015655Y025289D01*
X015631Y025295D01*
X015609Y025304D01*
X015588Y025317D01*
X015569Y025333D01*
X015553Y025352D01*
X015540Y025373D01*
X015531Y025395D01*
X015525Y025419D01*
X015523Y025444D01*
X015523Y022806D02*
X015525Y022831D01*
X015531Y022855D01*
X015540Y022877D01*
X015553Y022898D01*
X015569Y022917D01*
X015588Y022933D01*
X015609Y022946D01*
X015631Y022955D01*
X015655Y022961D01*
X015680Y022963D01*
X015705Y022961D01*
X015729Y022955D01*
X015751Y022946D01*
X015772Y022933D01*
X015791Y022917D01*
X015807Y022898D01*
X015820Y022877D01*
X015829Y022855D01*
X015835Y022831D01*
X015837Y022806D01*
X015835Y022781D01*
X015829Y022757D01*
X015820Y022735D01*
X015807Y022714D01*
X015791Y022695D01*
X015772Y022679D01*
X015751Y022666D01*
X015729Y022657D01*
X015705Y022651D01*
X015680Y022649D01*
X015655Y022651D01*
X015631Y022657D01*
X015609Y022666D01*
X015588Y022679D01*
X015569Y022695D01*
X015553Y022714D01*
X015540Y022735D01*
X015531Y022757D01*
X015525Y022781D01*
X015523Y022806D01*
X013430Y020125D02*
X013432Y020169D01*
X013438Y020213D01*
X013448Y020256D01*
X013461Y020298D01*
X013478Y020339D01*
X013499Y020378D01*
X013523Y020415D01*
X013550Y020450D01*
X013580Y020482D01*
X013613Y020512D01*
X013649Y020538D01*
X013686Y020562D01*
X013726Y020581D01*
X013767Y020598D01*
X013810Y020610D01*
X013853Y020619D01*
X013897Y020624D01*
X013941Y020625D01*
X013985Y020622D01*
X014029Y020615D01*
X014072Y020604D01*
X014114Y020590D01*
X014154Y020572D01*
X014193Y020550D01*
X014229Y020526D01*
X014263Y020498D01*
X014295Y020467D01*
X014324Y020433D01*
X014350Y020397D01*
X014372Y020359D01*
X014391Y020319D01*
X014406Y020277D01*
X014418Y020235D01*
X014426Y020191D01*
X014430Y020147D01*
X014430Y020103D01*
X014426Y020059D01*
X014418Y020015D01*
X014406Y019973D01*
X014391Y019931D01*
X014372Y019891D01*
X014350Y019853D01*
X014324Y019817D01*
X014295Y019783D01*
X014263Y019752D01*
X014229Y019724D01*
X014193Y019700D01*
X014154Y019678D01*
X014114Y019660D01*
X014072Y019646D01*
X014029Y019635D01*
X013985Y019628D01*
X013941Y019625D01*
X013897Y019626D01*
X013853Y019631D01*
X013810Y019640D01*
X013767Y019652D01*
X013726Y019669D01*
X013686Y019688D01*
X013649Y019712D01*
X013613Y019738D01*
X013580Y019768D01*
X013550Y019800D01*
X013523Y019835D01*
X013499Y019872D01*
X013478Y019911D01*
X013461Y019952D01*
X013448Y019994D01*
X013438Y020037D01*
X013432Y020081D01*
X013430Y020125D01*
D12*
X010930Y026314D03*
X010430Y026314D03*
X009930Y026314D03*
X009430Y026314D03*
X008930Y026314D03*
X008430Y026314D03*
X007930Y026314D03*
X007430Y026314D03*
X007430Y029936D03*
X007930Y029936D03*
X008430Y029936D03*
X008930Y029936D03*
X009430Y029936D03*
X009930Y029936D03*
X010430Y029936D03*
X010930Y029936D03*
D13*
X011630Y025875D02*
X012230Y025875D01*
X012230Y024875D02*
X011630Y024875D01*
D14*
X011804Y029219D03*
X011804Y029968D03*
X006523Y029968D03*
X006523Y029219D03*
D15*
X004680Y025375D03*
X004680Y022875D03*
D16*
X005680Y022875D03*
X005680Y025375D03*
X007680Y020875D03*
X008680Y021125D03*
X009680Y021125D03*
X010680Y021125D03*
X011680Y017625D03*
X009180Y017625D03*
X010430Y025375D03*
X009930Y027375D03*
X009430Y027625D03*
X009930Y028875D03*
X013680Y024125D03*
X015430Y017625D03*
X016180Y013125D03*
X016680Y011125D03*
X015180Y010375D03*
X013680Y010375D03*
X010930Y005125D03*
X011680Y002375D03*
X009930Y001375D03*
X008680Y004125D03*
X002180Y008375D03*
X001680Y008875D03*
X001680Y004125D03*
X000930Y001375D03*
X002930Y017625D03*
X000930Y018875D03*
X016430Y002125D03*
D17*
X011680Y002375D02*
X009930Y004125D01*
X008680Y004125D01*
X003180Y004125D02*
X010680Y011625D01*
X010680Y021125D01*
X011930Y024875D02*
X012180Y024875D01*
X013180Y024875D01*
X013680Y024375D01*
X013680Y024125D01*
X013680Y023125D01*
X015430Y021375D01*
X015430Y019875D01*
X013680Y018125D01*
X013680Y010375D01*
X014180Y011375D02*
X015180Y010375D01*
X014180Y011375D02*
X014180Y017875D01*
X015930Y019625D01*
X015930Y021625D01*
X014180Y023375D01*
X014180Y024625D01*
X012930Y025875D01*
X011930Y025875D01*
X010430Y025375D02*
X010430Y026625D01*
X003180Y004125D02*
X001680Y004125D01*
D18*
X009930Y028875D02*
X009930Y029125D01*
X009930Y029936D01*
M02*
